<?xml version="1.0" encoding="iso-8859-1"?>
<!-- Generator: Adobe Illustrator 19.0.0, SVG Export Plug-In . SVG Version: 6.00 Build 0)  -->
<svg xmlns="http://www.w3.org/2000/svg" xmlns:xlink="http://www.w3.org/1999/xlink" version="1.1" id="Layer_1" x="0px" y="0px" viewBox="0 0 512 512" style="enable-background:new 0 0 512 512;" xml:space="preserve">
<rect y="136.18" style="fill:#F5F5F5;" width="512" height="47.923"/>
<rect y="184.09" style="fill:#73AF00;" width="512" height="47.923"/>
<rect y="232.01" style="fill:#F5F5F5;" width="512" height="47.923"/>
<rect y="279.93" style="fill:#73AF00;" width="512" height="47.923"/>
<rect y="327.86" style="fill:#F5F5F5;" width="512" height="47.923"/>
<g>
	<path style="fill:#73AF00;" d="M473.655,88.301H38.346c-21.177,0-38.345,17.167-38.345,38.345v9.525h511.998v-9.562   C511.979,105.449,494.82,88.301,473.655,88.301z"/>
	<path style="fill:#73AF00;" d="M512,375.777H0.001v9.628c0,20.513,16.108,37.263,36.364,38.294h439.27   c20.245-1.03,36.344-17.761,36.363-38.256v-9.665L512,375.777L512,375.777z"/>
</g>
<path style="fill:#FF4B55;" d="M0.001,126.646v96.57c0.017,4.861,3.961,8.797,8.826,8.797h238.344c4.875,0,8.828-3.953,8.828-8.828  V97.078c0-4.558-3.456-8.309-7.891-8.777H38.346C17.169,88.301,0.001,105.468,0.001,126.646z"/>
<g>
	<path style="fill:#F5F5F5;" d="M135.749,220.664h-14.233c-1.294,0-2.453-0.805-2.902-2.02l-4.583-12.372   c-1.789-4.83-2.592-9.97-2.362-15.115l1.596-35.735c0.041-0.907,0.623-1.7,1.476-2.01l0,0c1.464-0.533,3.014,0.552,3.014,2.111   v16.273c0,0.455,0.369,0.824,0.824,0.824l0,0c0.439,0,0.801-0.344,0.823-0.783l1.279-25.948c0.052-1.054,0.844-1.922,1.888-2.071   l0,0c1.294-0.185,2.464,0.792,2.513,2.1l0.883,24.191c0.018,0.486,0.448,0.852,0.93,0.791l0,0c0.408-0.051,0.717-0.394,0.725-0.806   l0.531-26.881c0.029-1.468,1.473-2.487,2.866-2.023l0,0c0.853,0.285,1.443,1.063,1.486,1.961l1.312,27.17   c0.014,0.302,0.191,0.573,0.461,0.708l0,0c0.546,0.274,1.192-0.111,1.21-0.723l0.658-21.052c0.05-1.59,1.715-2.605,3.151-1.921l0,0   c0.725,0.345,1.205,1.058,1.252,1.86l1.532,25.838l4.099,11.957c0.231,0.671,1.174,0.684,1.418,0.018   c1.161-3.169,3.796-9.087,8.024-11.693c0.749-0.461,1.709-0.402,2.413,0.126l0,0c1.035,0.777,1.156,2.274,0.271,3.217   c-2.061,2.194-5.066,6.805-4.849,14.912c0.028,1.032-0.271,2.046-0.881,2.879l-11.55,15.778c-1.156,1.58-1.898,3.425-2.157,5.366   l-0.052,0.387C138.613,219.516,137.301,220.664,135.749,220.664z"/>
	<path style="fill:#F5F5F5;" d="M128.671,100.34l2.319,6.954l7.33,0.056c0.568,0.004,0.803,0.729,0.346,1.067l-5.897,4.354   l2.211,6.989c0.171,0.542-0.445,0.99-0.907,0.659l-5.964-4.263l-5.964,4.263c-0.462,0.33-1.078-0.118-0.907-0.659l2.211-6.989   l-5.897-4.354c-0.457-0.338-0.222-1.063,0.346-1.067l7.33-0.056l2.319-6.954C127.728,99.8,128.491,99.8,128.671,100.34z"/>
	<path style="fill:#F5F5F5;" d="M94.188,110.345l2.319,6.954l7.33,0.056c0.568,0.004,0.803,0.729,0.346,1.067l-5.897,4.354   l2.211,6.989c0.171,0.542-0.445,0.99-0.907,0.659l-5.964-4.263l-5.964,4.263c-0.462,0.33-1.078-0.118-0.907-0.659l2.211-6.989   l-5.897-4.354c-0.457-0.338-0.222-1.063,0.346-1.067l7.33-0.056l2.319-6.954C93.247,109.806,94.008,109.806,94.188,110.345z"/>
	<path style="fill:#F5F5F5;" d="M163.992,110.345l2.319,6.954l7.33,0.056c0.568,0.004,0.803,0.729,0.346,1.067l-5.897,4.354   l2.211,6.989c0.171,0.542-0.445,0.99-0.907,0.659l-5.964-4.263l-5.964,4.263c-0.462,0.33-1.078-0.118-0.907-0.659l2.211-6.989   l-5.897-4.354c-0.457-0.338-0.222-1.063,0.346-1.067l7.33-0.056l2.319-6.954C163.051,109.806,163.812,109.806,163.992,110.345z"/>
	<path style="fill:#F5F5F5;" d="M187.118,136.64l2.319,6.954l7.33,0.056c0.568,0.004,0.803,0.729,0.346,1.067l-5.897,4.354   l2.211,6.989c0.171,0.542-0.445,0.99-0.907,0.659l-5.964-4.263l-5.964,4.263c-0.462,0.33-1.078-0.118-0.907-0.659l2.211-6.989   l-5.897-4.354c-0.457-0.338-0.222-1.063,0.346-1.067l7.33-0.056l2.319-6.954C186.177,136.101,186.938,136.101,187.118,136.64z"/>
	<path style="fill:#F5F5F5;" d="M69.139,136.64l2.319,6.954l7.33,0.056c0.568,0.004,0.803,0.729,0.346,1.067l-5.897,4.354   l2.211,6.989c0.171,0.542-0.445,0.99-0.907,0.659l-5.964-4.263l-5.964,4.263c-0.462,0.33-1.078-0.118-0.907-0.659l2.211-6.989   l-5.897-4.354c-0.457-0.338-0.222-1.063,0.346-1.067l7.33-0.056l2.319-6.954C68.196,136.101,68.959,136.101,69.139,136.64z"/>
	<path style="fill:#F5F5F5;" d="M193.77,171.131l2.319,6.954l7.33,0.056c0.568,0.004,0.803,0.729,0.346,1.067l-5.897,4.354   l2.211,6.989c0.171,0.542-0.445,0.99-0.907,0.659l-5.964-4.263l-5.964,4.263c-0.462,0.33-1.078-0.118-0.907-0.659l2.211-6.989   l-5.897-4.354c-0.457-0.338-0.222-1.063,0.346-1.067l7.33-0.056l2.319-6.954C192.827,170.592,193.59,170.592,193.77,171.131z"/>
	<path style="fill:#F5F5F5;" d="M60.152,171.131l2.319,6.954l7.33,0.056c0.568,0.004,0.803,0.729,0.346,1.067l-5.897,4.354   l2.211,6.989c0.171,0.542-0.445,0.99-0.907,0.659l-5.964-4.263l-5.964,4.263c-0.462,0.33-1.078-0.118-0.907-0.659l2.211-6.989   l-5.897-4.354c-0.457-0.338-0.222-1.063,0.346-1.067l7.33-0.056l2.319-6.954C59.21,170.592,59.972,170.592,60.152,171.131z"/>
</g>
<g>
</g>
<g>
</g>
<g>
</g>
<g>
</g>
<g>
</g>
<g>
</g>
<g>
</g>
<g>
</g>
<g>
</g>
<g>
</g>
<g>
</g>
<g>
</g>
<g>
</g>
<g>
</g>
<g>
</g>
</svg>
