<?xml version="1.0" encoding="iso-8859-1"?>
<!-- Generator: Adobe Illustrator 19.0.0, SVG Export Plug-In . SVG Version: 6.00 Build 0)  -->
<svg xmlns="http://www.w3.org/2000/svg" xmlns:xlink="http://www.w3.org/1999/xlink" version="1.1" id="Layer_1" x="0px" y="0px" viewBox="0 0 512 512" style="enable-background:new 0 0 512 512;" xml:space="preserve">
<path style="fill:#F5F5F5;" d="M36.364,423.7h134.302V88.303H38.345C17.167,88.303,0,105.47,0,126.648v258.759  C0,405.919,16.108,422.67,36.364,423.7z"/>
<rect x="170.67" y="88.3" style="fill:#4173CD;" width="170.67" height="335.39"/>
<path style="fill:#FFE15A;" d="M475.636,423.7C495.892,422.67,512,405.919,512,385.406V126.648  c0-21.177-17.167-38.345-38.345-38.345H341.334V423.7H475.636L475.636,423.7z"/>
<g>
	<path style="fill:#C17400;" d="M229.356,265.768c-0.102,2.636-4.055,3.751-4.055,3.751c-0.405-4.46,4.157-12.671,5.068-13.38   c0.913-0.71,4.562-4.055,0.913-3.346c-3.649,0.71-7.198,8.92-8.009,10.339s-2.737,1.318-2.737,1.318s0-6.589,0-8.008   s6.285-4.46,6.285-4.46s1.014-6.082,0.102-6.69c-0.913-0.608-2.838,1.116-5.576,1.318c-2.737,0.203-6.082,0.305-8.92,2.94   c-2.838,2.636-2.94,4.46-2.94,8.92s0,0,0,10.745s-10.036,18.247-13.786,21.997c-1.021,1.021-1.412,2.27-1.446,3.58   c-0.754,0.706-2.417,1.735-3.806,1.437c-2.135-0.459-2.453-4.213-2.453-6.41c0-0.672-0.544-1.216-1.216-1.216   s-1.216,0.544-1.216,1.216c0,7.432,3.164,8.755,5.048,8.884c0.104,0.007,0.207,0.01,0.313,0.01c1.249,0,2.592-0.493,3.706-1.181   c0.725,2.624,2.252,5.063,2.69,6.048c0.811,1.825-3.649,4.765-3.649,4.765l3.649,11.252h4.968c0-2.787-3.395-2.23-3.903-2.94   c-0.506-0.71-1.114-7.147-1.114-7.147l7.048-5.897c0.544-0.455,0.858-1.128,0.858-1.837v-3.138c0,0,5.17,0.836,6.463,1.976   c1.292,1.14,0.152,4.562,0.152,5.017s6.538,6.234,6.538,6.234h4.486c0-2.052-2.129-1.976-3.193-2.357   c-1.065-0.381-4.257-4.333-4.257-4.333s1.724-5.347,1.724-6.665c0-1.318-7.4-6.69-7.4-6.69s1.014-1.724,8.515-6.387   c7.501-4.663,6.893-9.934,6.893-9.934l6.488-7.298v-5.271C231.586,262.93,229.458,263.133,229.356,265.768z"/>
	<path style="fill:#C17400;" d="M282.829,265.768c0.102,2.636,4.055,3.751,4.055,3.751c0.405-4.46-4.157-12.671-5.068-13.38   c-0.913-0.71-4.562-4.055-0.913-3.346c3.649,0.71,7.198,8.92,8.009,10.339s2.737,1.318,2.737,1.318s0-6.589,0-8.008   s-6.285-4.46-6.285-4.46s-1.014-6.082-0.102-6.69c0.913-0.608,2.838,1.116,5.576,1.318c2.737,0.203,6.082,0.305,8.92,2.94   c2.838,2.636,2.94,4.46,2.94,8.92s0,0,0,10.745s10.036,18.247,13.786,21.997c1.021,1.021,1.412,2.27,1.446,3.58   c0.754,0.706,2.417,1.735,3.806,1.437c2.135-0.459,2.453-4.213,2.453-6.41c0-0.672,0.544-1.216,1.216-1.216   s1.216,0.544,1.216,1.216c0,7.432-3.164,8.755-5.048,8.884c-0.104,0.007-0.207,0.01-0.313,0.01c-1.249,0-2.592-0.493-3.707-1.181   c-0.725,2.624-2.252,5.063-2.69,6.048c-0.811,1.825,3.649,4.765,3.649,4.765l-3.649,11.252h-4.968c0-2.787,3.396-2.23,3.903-2.94   c0.507-0.71,1.114-7.147,1.114-7.147l-7.048-5.897c-0.544-0.455-0.858-1.128-0.858-1.837v-3.138c0,0-5.17,0.836-6.463,1.976   c-1.292,1.14-0.152,4.562-0.152,5.017s-6.538,6.234-6.538,6.234h-4.486c0-2.052,2.129-1.976,3.193-2.357   c1.065-0.381,4.257-4.333,4.257-4.333s-1.724-5.347-1.724-6.665c0-1.318,7.4-6.69,7.4-6.69s-1.014-1.724-8.515-6.387   s-6.893-9.934-6.893-9.934l-6.488-7.298v-5.271C280.599,262.93,282.728,263.133,282.829,265.768z"/>
</g>
<g>
	<polygon style="fill:#C8C8C8;" points="246.335,258.824 239.037,266.124 253.634,266.124  "/>
	<polygon style="fill:#C8C8C8;" points="265.799,258.824 258.5,266.124 273.097,266.124  "/>
	<polygon style="fill:#C8C8C8;" points="246.335,270.99 239.037,278.288 253.634,278.288  "/>
	<polygon style="fill:#C8C8C8;" points="265.799,270.99 258.5,278.288 273.097,278.288  "/>
	<polygon style="fill:#C8C8C8;" points="246.335,283.154 239.037,290.452 253.634,290.452  "/>
	<polygon style="fill:#C8C8C8;" points="265.799,283.154 258.5,290.452 273.097,290.452  "/>
	<polygon style="fill:#C8C8C8;" points="256.067,295.319 248.768,302.617 263.366,302.617  "/>
</g>
<g>
	<rect x="254.85" y="219.9" style="fill:#FFE15A;" width="2.433" height="14.598"/>
	<path style="fill:#FFE15A;" d="M242.723,234.79c-0.041-0.157-0.937-3.892,1.579-6.614c2.216-2.4,6.247-3.132,11.965-2.178   l-0.399,2.4c-4.798-0.803-8.178-0.307-9.779,1.428c-1.608,1.741-1.012,4.35-1.006,4.376L242.723,234.79z"/>
	<path style="fill:#FFE15A;" d="M236.06,242.883c-3.04-1.521-4.534-5.935-3.263-9.641c0.533-1.554,2.929-6.49,11.345-4.804   l-0.478,2.386c-4.446-0.896-7.561,0.282-8.565,3.208c-0.867,2.526,0.11,5.707,2.049,6.676L236.06,242.883z"/>
	<path style="fill:#FFE15A;" d="M269.411,234.79l-2.359-0.589l1.18,0.295l-1.182-0.29c0.007-0.026,0.61-2.649-1.018-4.395   c-1.608-1.725-4.984-2.215-9.764-1.414l-0.399-2.4c5.726-0.956,9.75-0.221,11.965,2.178   C270.348,230.898,269.451,234.633,269.411,234.79z"/>
	<path style="fill:#FFE15A;" d="M276.074,242.883l-1.088-2.176c1.939-0.969,2.916-4.151,2.049-6.676   c-1.004-2.925-4.125-4.1-8.565-3.208l-0.478-2.386c8.422-1.685,10.812,3.253,11.345,4.804   C280.609,236.947,279.114,241.362,276.074,242.883z"/>
</g>
<path style="fill:#FF4B55;" d="M265.799,234.495c0,0-4.866-2.433-9.731-2.433c-4.865,0-9.731,2.433-9.731,2.433  c-4.866-2.433-12.164,0-12.164,4.866s7.298,12.164,7.298,12.164h14.598h14.598c0,0,7.298-7.298,7.298-12.164  S270.665,232.062,265.799,234.495z"/>
<rect x="253.64" y="221.11" style="fill:#FFE15A;" width="4.866" height="2.433"/>
<g>
	<rect x="231.74" y="207.74" style="fill:#C8C8C8;" width="48.662" height="9.731"/>
	
		<rect x="225.65" y="212.197" transform="matrix(0.3161 0.9487 -0.9487 0.3161 365.4303 -67.1599)" style="fill:#C8C8C8;" width="7.297" height="15.386"/>
	
		<rect x="275.151" y="216.241" transform="matrix(0.9487 0.3162 -0.3162 0.9487 84.0405 -78.153)" style="fill:#C8C8C8;" width="15.387" height="7.297"/>
</g>
<path style="fill:#464655;" d="M256.067,311.132c-14.086,0-25.546-7.094-25.546-15.814v-41.359c0-2.013,1.638-3.649,3.649-3.649  h43.793c2.013,0,3.649,1.638,3.649,3.649v41.359C281.612,304.038,270.153,311.132,256.067,311.132z M234.17,252.742  c-0.671,0-1.216,0.546-1.216,1.216v41.359c0,7.377,10.368,13.38,23.113,13.38s23.113-6.004,23.113-13.38v-41.359  c0-0.67-0.545-1.216-1.216-1.216H234.17z"/>
<g>
</g>
<g>
</g>
<g>
</g>
<g>
</g>
<g>
</g>
<g>
</g>
<g>
</g>
<g>
</g>
<g>
</g>
<g>
</g>
<g>
</g>
<g>
</g>
<g>
</g>
<g>
</g>
<g>
</g>
</svg>
