<?xml version="1.0" encoding="iso-8859-1"?>
<!-- Generator: Adobe Illustrator 19.0.0, SVG Export Plug-In . SVG Version: 6.00 Build 0)  -->
<svg xmlns="http://www.w3.org/2000/svg" xmlns:xlink="http://www.w3.org/1999/xlink" version="1.1" id="Layer_1" x="0px" y="0px" viewBox="0 0 512 512" style="enable-background:new 0 0 512 512;" xml:space="preserve">
<path style="fill:#82AFFF;" d="M473.885,88.279H38.115C17.045,88.402,0,105.517,0,126.617v258.759  c0,21.177,17.167,38.345,38.345,38.345h435.31c21.177,0,38.345-17.167,38.345-38.345V126.617  C512,105.517,494.955,88.402,473.885,88.279z"/>
<path style="fill:#41479B;" d="M8.828,256.003h238.345c4.875,0,8.828-3.953,8.828-8.828V97.106c0-4.875-3.953-8.828-8.828-8.828  H38.115C17.045,88.402,0,105.517,0,126.617v120.557C0,252.05,3.953,256.003,8.828,256.003z"/>
<path style="fill:#F5F5F5;" d="M8.828,256.003h15.334l81.77-53.574v53.574h44.138v-53.574l81.77,53.574h15.334  c4.875,0,8.828-3.953,8.828-8.828v-7.002l-70.155-45.963H256v-44.138h-70.155L256,104.108v-7.002c0-4.875-3.953-8.828-8.828-8.828  h-15.334l-81.77,53.574V88.279H105.93v53.574l-79.093-51.82c-9.231,2.9-16.951,9.204-21.707,17.436l65.025,42.603H0v44.138h70.155  L0,240.173v7.002C0,252.05,3.953,256.003,8.828,256.003z"/>
<g>
	<polygon style="fill:#FF4B55;" points="256,158.899 141.241,158.899 141.241,88.279 114.759,88.279 114.759,158.899 0,158.899    0,185.382 114.759,185.382 114.759,256.003 141.241,256.003 141.241,185.382 256,185.382  "/>
	<path style="fill:#FF4B55;" d="M8.226,102.904l72.664,47.168h16.213L14.606,96.52C12.237,98.391,10.095,100.535,8.226,102.904z"/>
	<path style="fill:#FF4B55;" d="M166.283,150.072l88.374-57.366c-1.536-2.599-4.246-4.427-7.485-4.427h-1.909l-95.194,61.793   H166.283z"/>
	<path style="fill:#FF4B55;" d="M89.474,194.21L1.269,251.464c1.519,2.663,4.273,4.537,7.559,4.537h1.665l95.196-61.793H89.474   V194.21z"/>
	<path style="fill:#FF4B55;" d="M255.86,247.868l-82.666-53.658H156.98l93.874,60.935   C253.666,253.839,255.595,251.105,255.86,247.868z"/>
</g>
<g>
	<path style="fill:#FFE15A;" d="M218.666,353.365l-4.726,14.169l-14.936,0.116c-1.432,0.011-2.026,1.839-0.874,2.69l12.015,8.873   l-4.505,14.241c-0.433,1.366,1.123,2.495,2.289,1.663l12.152-8.685l12.152,8.685c1.165,0.833,2.72-0.297,2.289-1.663l-4.505-14.241   l12.015-8.873c1.152-0.851,0.558-2.679-0.874-2.69l-14.936-0.116l-4.726-14.169C221.042,352.006,219.119,352.006,218.666,353.365z"/>
	<path style="fill:#FFE15A;" d="M448.735,243.02l-4.726,14.169l-14.936,0.116c-1.432,0.011-2.026,1.839-0.874,2.69l12.015,8.873   l-4.505,14.241c-0.433,1.366,1.123,2.495,2.289,1.663l12.152-8.685l12.152,8.685c1.165,0.833,2.72-0.297,2.289-1.663l-4.505-14.241   l12.015-8.873c1.152-0.851,0.558-2.679-0.874-2.69l-14.936-0.116l-4.726-14.169C451.111,241.661,449.188,241.661,448.735,243.02z"/>
	<path style="fill:#FFE15A;" d="M448.735,123.847l-4.726,14.169l-14.936,0.116c-1.432,0.011-2.026,1.839-0.874,2.69l12.015,8.873   l-4.505,14.241c-0.433,1.366,1.123,2.495,2.289,1.663l12.152-8.685l12.152,8.685c1.165,0.833,2.72-0.297,2.289-1.663l-4.505-14.241   l12.015-8.873c1.152-0.851,0.558-2.679-0.874-2.69l-14.936-0.116l-4.726-14.169C451.111,122.489,449.188,122.489,448.735,123.847z"/>
	<path style="fill:#FFE15A;" d="M277.812,278.818l4.665,14.189l-11.915,9.007c-1.142,0.864-0.529,2.685,0.904,2.68l14.936-0.052   l4.885,14.115c0.469,1.354,2.39,1.332,2.828-0.032l4.566-14.222l14.934-0.284c1.432-0.028,2.005-1.862,0.844-2.699l-12.115-8.737   l4.345-14.291c0.417-1.37-1.151-2.483-2.306-1.636l-12.053,8.822l-12.248-8.548C278.906,276.311,277.364,277.457,277.812,278.818z"/>
	<path style="fill:#FFE15A;" d="M276.708,340.059l4.665,14.189l-11.915,9.007c-1.142,0.864-0.529,2.685,0.904,2.68l14.936-0.052   l4.885,14.115c0.469,1.354,2.39,1.332,2.828-0.032l4.566-14.222l14.934-0.284c1.432-0.028,2.005-1.862,0.844-2.699l-12.115-8.737   l4.345-14.291c0.417-1.37-1.151-2.483-2.306-1.636l-12.053,8.822l-12.248-8.548C277.803,337.552,276.26,338.699,276.708,340.059z"/>
	<path style="fill:#FFE15A;" d="M341.26,324.611l4.665,14.189l-11.915,9.007c-1.142,0.864-0.529,2.685,0.904,2.68l14.936-0.052   l4.885,14.115c0.469,1.354,2.39,1.332,2.828-0.032l4.566-14.222l14.934-0.284c1.432-0.028,2.005-1.862,0.844-2.699l-12.115-8.737   l4.345-14.291c0.417-1.37-1.151-2.483-2.306-1.636l-12.053,8.822l-12.248-8.548C342.355,322.104,340.812,323.25,341.26,324.611z"/>
	<path style="fill:#FFE15A;" d="M340.157,191.094l4.665,14.189l-11.915,9.007c-1.142,0.864-0.529,2.685,0.904,2.68l14.936-0.052   l4.885,14.115c0.469,1.354,2.39,1.332,2.828-0.032l4.566-14.222l14.934-0.284c1.432-0.028,2.005-1.862,0.844-2.699l-12.115-8.737   l4.345-14.291c0.417-1.37-1.151-2.483-2.306-1.636l-12.053,8.822l-12.248-8.548C341.251,188.587,339.709,189.733,340.157,191.094z"/>
	<path style="fill:#FFE15A;" d="M394.777,172.887l4.665,14.189l-11.915,9.007c-1.142,0.864-0.529,2.685,0.904,2.68l14.936-0.052   l4.885,14.115c0.469,1.354,2.39,1.332,2.828-0.032l4.566-14.222l14.934-0.284c1.432-0.028,2.005-1.862,0.844-2.699l-12.115-8.737   l4.345-14.291c0.417-1.37-1.151-2.483-2.306-1.636l-12.053,8.822l-12.248-8.548C395.872,170.38,394.329,171.526,394.777,172.887z"/>
</g>
<g>
</g>
<g>
</g>
<g>
</g>
<g>
</g>
<g>
</g>
<g>
</g>
<g>
</g>
<g>
</g>
<g>
</g>
<g>
</g>
<g>
</g>
<g>
</g>
<g>
</g>
<g>
</g>
<g>
</g>
</svg>
