<?xml version="1.0" encoding="iso-8859-1"?>
<!-- Generator: Adobe Illustrator 19.0.0, SVG Export Plug-In . SVG Version: 6.00 Build 0)  -->
<svg xmlns="http://www.w3.org/2000/svg" xmlns:xlink="http://www.w3.org/1999/xlink" version="1.1" id="Layer_1" x="0px" y="0px" viewBox="0 0 512 512" style="enable-background:new 0 0 512 512;" xml:space="preserve">
<path style="fill:#FF4B55;" d="M473.654,423.724H38.345C17.167,423.724,0,406.556,0,385.379V126.621  c0-21.177,17.167-38.345,38.345-38.345h435.309c21.177,0,38.345,17.167,38.345,38.345v258.758  C511.999,406.556,494.831,423.724,473.654,423.724z"/>
<path style="fill:#73AF00;" d="M473.654,88.276h-1.921L255.999,229.619L40.267,88.276h-1.922c-17.38,0-32.052,11.567-36.757,27.422  L215.735,256L1.588,396.302c4.705,15.854,19.377,27.422,36.757,27.422h1.922l215.732-141.343l215.734,141.343h1.921  c17.38,0,32.053-11.567,36.757-27.422L296.265,256l214.146-140.302C505.706,99.845,491.035,88.276,473.654,88.276z"/>
<polygon style="fill:#F5F5F5;" points="512,233.931 278.068,233.931 278.068,88.276 233.931,88.276 233.931,233.931 0,233.931   0,278.069 233.931,278.069 233.931,423.724 278.068,423.724 278.068,278.069 512,278.069 "/>
<g>
</g>
<g>
</g>
<g>
</g>
<g>
</g>
<g>
</g>
<g>
</g>
<g>
</g>
<g>
</g>
<g>
</g>
<g>
</g>
<g>
</g>
<g>
</g>
<g>
</g>
<g>
</g>
<g>
</g>
</svg>
