<?xml version="1.0" encoding="iso-8859-1"?>
<!-- Generator: Adobe Illustrator 19.0.0, SVG Export Plug-In . SVG Version: 6.00 Build 0)  -->
<svg xmlns="http://www.w3.org/2000/svg" xmlns:xlink="http://www.w3.org/1999/xlink" version="1.1" id="Layer_1" x="0px" y="0px" viewBox="0 0 512.004 512.004" style="enable-background:new 0 0 512.004 512.004;" xml:space="preserve">
<g>
	<polygon style="fill:#41479B;" points="225.391,88.277 61.853,88.277 225.391,141.85  "/>
	<path style="fill:#41479B;" d="M512.001,150.07v-23.448c0-7.559-2.196-14.601-5.972-20.54l-134.28,43.988H512.001z"/>
	<polygon style="fill:#41479B;" points="450.265,88.277 286.726,88.277 286.726,141.85  "/>
	<path style="fill:#41479B;" d="M5.994,106.05c-3.441,5.399-5.574,11.712-5.934,18.498v25.522h140.309L5.994,106.05z"/>
	<polygon style="fill:#41479B;" points="512.001,240.152 512.001,194.208 371.75,194.208  "/>
	<polygon style="fill:#41479B;" points="0.058,194.208 0.058,240.171 140.367,194.208  "/>
	<polygon style="fill:#41479B;" points="286.726,256.001 450.265,256.001 286.726,202.427  "/>
	<polygon style="fill:#41479B;" points="61.852,256.001 225.391,256.001 225.391,202.427  "/>
</g>
<g>
	<path style="fill:#F5F5F5;" d="M102.336,374.07c25.589,0,25.589-7.724,51.178-7.724c25.6,0,25.6,7.724,51.2,7.724   s25.6-7.724,51.2-7.724c25.6,0,25.6,7.724,51.2,7.724c25.593,0,25.593-7.724,51.186-7.724c25.597,0,25.597,7.724,51.192,7.724   c25.619,0,25.619-7.724,51.237-7.724c25.636,0,25.636,7.724,51.272,7.724v-23.172c-25.635,0-25.636-7.724-51.272-7.724   c-25.619,0-25.619,7.724-51.237,7.724c-25.597,0-25.597-7.724-51.192-7.724c-25.593,0-25.593,7.724-51.186,7.724   c-25.6,0-25.6-7.724-51.2-7.724s-25.6,7.724-51.2,7.724s-25.6-7.724-51.2-7.724c-25.589,0-25.589,7.724-51.178,7.724   c-25.576,0-25.576-7.724-51.153-7.724c-25.571,0-25.593,7.712-51.126,7.724v23.172c25.533-0.012,25.554-7.724,51.126-7.724   C76.76,366.346,76.76,374.07,102.336,374.07z"/>
	<path style="fill:#F5F5F5;" d="M102.336,327.725c25.589,0,25.589-7.724,51.178-7.724c25.6,0,25.6,7.724,51.2,7.724   s25.6-7.724,51.2-7.724c25.6,0,25.6,7.724,51.2,7.724c25.593,0,25.593-7.724,51.186-7.724c25.597,0,25.597,7.724,51.192,7.724   c25.619,0,25.619-7.724,51.237-7.724c25.636,0,25.636,7.724,51.272,7.724v-23.172c-25.635,0-25.636-7.724-51.272-7.724   c-25.619,0-25.619,7.724-51.237,7.724c-25.597,0-25.597-7.724-51.192-7.724c-25.593,0-25.593,7.724-51.186,7.724   c-25.6,0-25.6-7.724-51.2-7.724s-25.6,7.724-51.2,7.724s-25.6-7.724-51.2-7.724c-25.589,0-25.589,7.724-51.178,7.724   c-25.576,0-25.576-7.724-51.153-7.724c-25.571,0-25.593,7.712-51.126,7.724v23.172c25.533-0.012,25.554-7.724,51.126-7.724   C76.76,320.001,76.76,327.725,102.336,327.725z"/>
	<path style="fill:#F5F5F5;" d="M102.336,281.38c25.589,0,25.589-7.724,51.178-7.724c25.6,0,25.6,7.724,51.2,7.724   s25.6-7.724,51.2-7.724c25.6,0,25.6,7.724,51.2,7.724c25.593,0,25.593-7.724,51.186-7.724c25.597,0,25.597,7.724,51.192,7.724   c25.619,0,25.619-7.724,51.237-7.724c25.636,0,25.636,7.724,51.272,7.724v-25.379h-7.635h-54.1h-163.54H269.3h-26.483h-17.426   H61.852H21.045H0.058v25.379c25.533-0.012,25.554-7.724,51.126-7.724C76.76,273.656,76.76,281.38,102.336,281.38z"/>
	<path style="fill:#F5F5F5;" d="M409.492,397.242c-25.597,0-25.597-7.724-51.192-7.724c-25.593,0-25.593,7.724-51.186,7.724   c-25.6,0-25.6-7.724-51.2-7.724s-25.6,7.724-51.2,7.724s-25.6-7.724-51.2-7.724c-25.589,0-25.589,7.724-51.178,7.724   c-25.576,0-25.576-7.724-51.153-7.724c-24.948,0-25.587,7.337-49.31,7.706c4.992,15.379,19.429,26.5,36.472,26.5h435.31   c17.043,0,31.48-11.122,36.471-26.5c-23.767-0.369-24.407-7.706-49.398-7.706C435.111,389.518,435.111,397.242,409.492,397.242z"/>
	<polygon style="fill:#F5F5F5;" points="269.3,256.001 286.726,256.001 286.726,202.427 450.265,256.001 504.366,256.001    314.018,194.208 346.446,194.208 512.001,247.939 512.001,240.152 371.75,194.208 512.001,194.208 512.001,185.38 269.3,185.38     "/>
	<polygon style="fill:#F5F5F5;" points="211.435,194.208 21.045,256.001 61.852,256.001 225.391,202.427 225.391,256.001    242.817,256.001 242.817,185.38 0.058,185.38 0.058,194.208 140.367,194.208 0.058,240.171 0.058,252.269 179.007,194.208  "/>
	<path style="fill:#F5F5F5;" d="M512.001,158.897v-8.828H371.75l134.279-43.988c-2.304-3.623-5.196-6.83-8.546-9.492l-164.857,53.48   h-32.428l184.967-60.034c-3.633-1.141-7.497-1.759-11.507-1.759h-23.391l-163.54,53.574V88.277H269.3v70.621h242.701V158.897z"/>
	<path style="fill:#F5F5F5;" d="M242.817,88.277h-17.426v53.574L61.853,88.277H38.346c-6.92,0-13.406,1.843-19.011,5.049   l174.931,56.744h-32.428l-151.83-49.279c-1.485,1.629-2.825,3.392-4.014,5.259l134.374,44.02H0.058v8.828h242.759V88.277z"/>
</g>
<g>
	<rect x="269.3" y="158.901" style="fill:#FF4B55;" width="242.7" height="26.483"/>
	<rect x="0.058" y="158.901" style="fill:#FF4B55;" width="242.76" height="26.483"/>
	<polygon style="fill:#FF4B55;" points="242.817,185.38 242.817,256.001 269.3,256.001 269.3,185.38 269.3,158.897 269.3,88.277    242.817,88.277 242.817,158.897  "/>
	<polygon style="fill:#FF4B55;" points="211.435,194.208 179.007,194.208 0.058,252.269 0.058,256.001 21.045,256.001  "/>
	<polygon style="fill:#FF4B55;" points="314.018,194.208 504.366,256.001 512.001,256.001 512.001,247.939 346.446,194.208  "/>
</g>
<g>
	<path style="fill:#41479B;" d="M102.336,304.553c25.589,0,25.589-7.724,51.178-7.724c25.6,0,25.6,7.724,51.2,7.724   s25.6-7.724,51.2-7.724c25.6,0,25.6,7.724,51.2,7.724c25.593,0,25.593-7.724,51.186-7.724c25.597,0,25.597,7.724,51.192,7.724   c25.619,0,25.619-7.724,51.237-7.724c25.636,0,25.636,7.724,51.272,7.724v-23.172c-25.635,0-25.636-7.724-51.272-7.724   c-25.619,0-25.619,7.724-51.237,7.724c-25.597,0-25.597-7.724-51.192-7.724c-25.593,0-25.593,7.724-51.186,7.724   c-25.6,0-25.6-7.724-51.2-7.724s-25.6,7.724-51.2,7.724s-25.6-7.724-51.2-7.724c-25.589,0-25.589,7.724-51.178,7.724   c-25.576,0-25.576-7.724-51.153-7.724c-25.571,0-25.593,7.712-51.126,7.724c-0.02,0-0.038,0-0.057,0v23.172c0.02,0,0.038,0,0.057,0   c25.533-0.012,25.554-7.724,51.126-7.724C76.76,296.829,76.76,304.553,102.336,304.553z"/>
	<path style="fill:#41479B;" d="M102.336,350.897c25.589,0,25.589-7.724,51.178-7.724c25.6,0,25.6,7.724,51.2,7.724   s25.6-7.724,51.2-7.724c25.6,0,25.6,7.724,51.2,7.724c25.593,0,25.593-7.724,51.186-7.724c25.597,0,25.597,7.724,51.192,7.724   c25.619,0,25.619-7.724,51.237-7.724c25.636,0,25.636,7.724,51.272,7.724v-23.172c-25.635,0-25.636-7.724-51.272-7.724   c-25.619,0-25.619,7.724-51.237,7.724c-25.597,0-25.597-7.724-51.192-7.724c-25.593,0-25.593,7.724-51.186,7.724   c-25.6,0-25.6-7.724-51.2-7.724s-25.6,7.724-51.2,7.724s-25.6-7.724-51.2-7.724c-25.589,0-25.589,7.724-51.178,7.724   c-25.576,0-25.576-7.724-51.153-7.724c-25.571,0-25.593,7.712-51.126,7.724c-0.02,0-0.038,0-0.057,0v23.172c0.02,0,0.038,0,0.057,0   c25.533-0.012,25.554-7.724,51.126-7.724C76.76,343.173,76.76,350.897,102.336,350.897z"/>
	<path style="fill:#41479B;" d="M1.875,397.225c23.723-0.37,24.362-7.706,49.31-7.706c25.576,0,25.576,7.724,51.153,7.724   c25.589,0,25.589-7.724,51.178-7.724c25.6,0,25.6,7.724,51.2,7.724s25.6-7.724,51.2-7.724s25.6,7.724,51.2,7.724   c25.593,0,25.593-7.724,51.186-7.724c25.597,0,25.597,7.724,51.192,7.724c25.619,0,25.619-7.724,51.238-7.724   c24.992,0,25.631,7.337,49.398,7.706c1.21-3.731,1.874-7.71,1.874-11.844v-11.31c-25.635,0-25.636-7.724-51.272-7.724   c-25.619,0-25.619,7.724-51.238,7.724c-25.597,0-25.597-7.724-51.192-7.724c-25.593,0-25.593,7.724-51.186,7.724   c-25.6,0-25.6-7.724-51.2-7.724c-25.6,0-25.6,7.724-51.2,7.724s-25.6-7.724-51.2-7.724c-25.589,0-25.589,7.724-51.178,7.724   c-25.576,0-25.576-7.724-51.153-7.724c-25.571,0-25.593,7.712-51.126,7.724c-0.02,0-0.038,0-0.057,0v11.31   C0.001,389.515,0.663,393.493,1.875,397.225z"/>
</g>
<g>
	<path style="fill:#FF4B55;" d="M194.265,150.07L19.335,93.326c-3.488,1.996-6.637,4.515-9.326,7.465l151.829,49.279H194.265z"/>
	<path style="fill:#FF4B55;" d="M332.625,150.07l164.859-53.48c-3.631-2.884-7.791-5.131-12.32-6.553L300.197,150.07H332.625z"/>
</g>
<g>
	<path style="fill:#FFE15A;" d="M301.319,156.76l-13.023,6.732l-5.143-11.965c-0.531-1.235-2.66-1.455-3.592-0.373l-10.607,12.338   l-11.091-17.201c-0.744-1.153-2.865-1.153-3.608,0l-11.091,17.201l-10.607-12.338c-0.931-1.082-3.061-0.862-3.592,0.373   l-5.143,11.965l-13.023-6.732c-1.721-0.889-3.848,0.566-2.923,2.001l12.722,19.731h-0.551c-1.476,0-2.674,0.928-2.674,2.073v5.853   c0,1.145,1.197,2.073,2.674,2.073h72.021c1.476,0,2.674-0.928,2.674-2.073v-5.853c0-1.145-1.197-2.073-2.674-2.073h-0.551   l12.722-19.731C305.166,157.326,303.039,155.87,301.319,156.76z"/>
	<path style="fill:#FFE15A;" d="M401.702,411.837c18.541-9.549,25.212-23.871,27.64-29.192c3.679-8.06,20.748-14.56,20.748-14.56   s-21.086,0.099-32.372,14.751c-10.404,13.507-29.137,14.669-47.202,25.005c-1.722-2.165-3.495-4.288-5.334-6.35l56.292-68.143   l-68.143,56.292c-2.667-2.379-5.426-4.655-8.264-6.837c1.794-4.664,5.334-11.873,12.285-20.083   c13.475-15.917,14.157-31.702,14.365-37.546c0.316-8.854,13.597-21.393,13.597-21.393s-19.443,8.161-24.263,26.016   c-4.44,16.452-21.287,24.694-34.02,41.14c-2.417-1.345-4.864-2.642-7.362-3.851l25.914-84.448l-41.402,78.061   c-3.369-1.174-6.787-2.238-10.263-3.167c-0.124-4.999,0.393-13,3.665-23.219c6.358-19.863,0.947-34.707-1.098-40.186   c-3.097-8.301,4.375-24.967,4.375-24.967s-14.84,14.98-12.46,33.321c2.194,16.904-10.225,30.969-15.693,51.044   c-2.735-0.31-5.489-0.557-8.267-0.715l-8.38-87.982l-8.38,87.979c-3.598,0.204-7.153,0.563-10.677,1.022   c-2.029-4.567-4.625-12.169-5.515-22.89c-1.727-20.783-12.406-32.428-16.392-36.707c-6.039-6.483-5.513-24.74-5.513-24.74   s-7.978,19.518,1.24,35.552c8.494,14.775,2.409,32.519,5.035,53.152c-2.671,0.762-5.312,1.592-7.917,2.502l-41.402-78.061   l25.914,84.448c-3.231,1.564-6.376,3.274-9.47,5.063c-3.623-3.444-8.925-9.472-13.846-19.028   c-9.549-18.541-23.872-25.212-29.192-27.64c-8.06-3.679-14.56-20.747-14.56-20.747s0.098,21.086,14.751,32.371   c13.507,10.404,14.669,29.138,25.004,47.203c-2.165,1.723-4.288,3.495-6.35,5.334l-68.143-56.292l56.292,68.143   c-2.379,2.667-4.655,5.426-6.837,8.264c-4.664-1.794-11.874-5.335-20.083-12.285c-15.917-13.475-31.702-14.157-37.547-14.366   c-8.854-0.314-21.391-13.596-21.391-13.596s8.161,19.443,26.016,24.263c14.759,3.983,22.958,17.931,36.351,29.956h261.239   C388.292,420.281,393.704,415.956,401.702,411.837z"/>
	<polygon style="fill:#FFE15A;" points="444.867,423.725 472.183,409.238 424.973,423.725  "/>
	<polygon style="fill:#FFE15A;" points="39.934,409.238 67.25,423.725 87.145,423.725  "/>
</g>
<g>
</g>
<g>
</g>
<g>
</g>
<g>
</g>
<g>
</g>
<g>
</g>
<g>
</g>
<g>
</g>
<g>
</g>
<g>
</g>
<g>
</g>
<g>
</g>
<g>
</g>
<g>
</g>
<g>
</g>
</svg>
