<?xml version="1.0" encoding="iso-8859-1"?>
<!-- Generator: Adobe Illustrator 19.0.0, SVG Export Plug-In . SVG Version: 6.00 Build 0)  -->
<svg xmlns="http://www.w3.org/2000/svg" xmlns:xlink="http://www.w3.org/1999/xlink" version="1.1" id="Layer_1" x="0px" y="0px" viewBox="0 0 512 512" style="enable-background:new 0 0 512 512;" xml:space="preserve">
<path style="fill:#FFE15A;" d="M473.655,88.275H38.345C17.167,88.275,0,105.442,0,126.62V385.38  c0,21.177,17.167,38.345,38.345,38.345h435.31c21.177,0,38.345-17.167,38.345-38.345V126.62  C512,105.442,494.833,88.275,473.655,88.275z"/>
<rect x="13.241" y="114.759" style="fill:#41479B;" width="485.52" height="282.48"/>
<g>
	<polygon style="fill:#FF4B55;" points="13.241,114.758 256,255.999 134.622,114.759  "/>
	<polygon style="fill:#FF4B55;" points="256,255.999 256,114.758 377.38,114.759  "/>
	<polygon style="fill:#FF4B55;" points="498.759,114.758 256,255.999 498.759,185.378  "/>
	<polygon style="fill:#FF4B55;" points="256,255.999 498.759,255.999 498.759,326.62  "/>
	<polygon style="fill:#FF4B55;" points="256,255.999 13.244,185.38 13.244,256  "/>
	<polygon style="fill:#FF4B55;" points="13.244,326.622 256,255.999 13.244,397.242  "/>
</g>
<g>
	<polygon style="fill:#FFE15A;" points="260.062,230.164 291.715,157.16 268.343,233.221  "/>
	<path style="fill:#FFE15A;" d="M301.745,272.144c0.69-1.953,1.292-3.944,1.729-6.002l52.757,4.679l-51.897-10.491   c0.127-1.429,0.218-2.869,0.218-4.331c0-1.408-0.093-2.793-0.211-4.17l51.474-10.84l-52.29,5.066   c-0.458-2.199-1.109-4.321-1.853-6.4l46.726-24.428l-49.02,19.054c-1.249-2.488-2.705-4.847-4.345-7.069l38.744-35.724   l-42.489,31.232c-4.505-4.776-9.943-8.655-16.056-11.296l15.432-50.217l-20.919,48.246c-4.362-1.288-8.965-2.006-13.743-2.006   c-4.815,0-9.458,0.725-13.849,2.031l-20.931-48.273l15.447,50.266c-6.092,2.649-11.512,6.527-16,11.298l-42.56-31.284   l38.815,35.789c-1.631,2.215-3.075,4.564-4.317,7.043l-49.119-19.093l46.826,24.481c-0.736,2.067-1.383,4.174-1.837,6.358   l-52.406-5.077l51.59,10.866c-0.117,1.368-0.21,2.745-0.21,4.145c0,1.454,0.092,2.886,0.217,4.307l-52.013,10.514l52.872-4.69   c0.435,2.044,1.031,4.022,1.714,5.962l-46.628,23.827l48.881-18.478c7.924,16.046,24.405,27.111,43.51,27.111   c19.091,0,35.561-11.046,43.492-27.071l48.781,18.44L301.745,272.144z"/>
</g>
<path style="fill:#F5F5F5;" d="M498.759,397.24l-237.21-138.012c-3.431-1.996-7.668-1.996-11.098,0L13.241,397.24H498.759z"/>
<g>
	<circle style="fill:#FF4B55;" cx="256.04" cy="325.26" r="1.837"/>
	<path style="fill:#FF4B55;" d="M253.24,263.724c5.511,6.813-3.406,10.22-2.304,16.733c0,0-1.803-2.706-1.102-6.513   c0.701-3.807-1.704-5.01-1.704-5.01s1.102,4.308-1.603,6.713c-2.706,2.404-1.903,7.915-1.903,7.915s-3.406-2.304-2.706-5.811   c0,0-4.609,4.008-0.501,10.721c0,0-2.706-0.201-3.708-1.903c0,0-2.399,7.063,7.267,12.449c9.666,5.386,11.069-7.439,11.069-7.439   l6.913,8.617c0,0,8.282-0.234,12.224-9.118l-4.743,0.868c0.3-2.505,6.646-3.172,4.141-10.687c0,0-0.201,1.603-2.004,2.706   c0,0,0.067-5.176-3.673-8.584c0,0-0.134,2.772-1.336,3.774c0,0,0.401-3.574-1.803-6.379c-2.106-2.68-2.304-5.143-2.304-5.143   s-2.505,4.609-1.603,6.913c0,0-2.089-0.508-2.304-3.306C259.085,265.161,253.24,263.724,253.24,263.724z"/>
</g>
<ellipse style="fill:#FFE15A;" cx="256.04" cy="318.399" rx="15.637" ry="6.702"/>
<ellipse style="fill:#FF4B55;" cx="256.04" cy="316.94" rx="13.522" ry="6.06"/>
<g>
	<path style="fill:#FF82AA;" d="M258.877,317.729h-5.67c-0.1,1.768,0.701,4.332,2.83,5.262v0.006c0.001,0,0.002-0.002,0.002-0.002   s0.004,0.002,0.006,0.002v-0.006C258.176,322.06,258.977,319.497,258.877,317.729z"/>
	<path style="fill:#FF82AA;" d="M263.384,316.638l-5.143,1.207c0.313,1.742,1.625,4.069,3.77,4.521l0.001,0.006l0.003-0.004   c0.001,0,0.003,0.002,0.003,0.002v-0.006C263.738,321.005,263.879,318.338,263.384,316.638z"/>
	<path style="fill:#FF82AA;" d="M266.046,314.792l-3.581,2.346c0.906,1.521,2.817,3.335,4.672,3.231l0.003,0.004l0.001-0.004   c0,0,0.003,0.001,0.004,0.001l-0.003-0.004C267.978,318.706,267.079,316.227,266.046,314.792z"/>
	<path style="fill:#FF82AA;" d="M265.941,311.167l-1.409,3.556c1.91,2.43,5.041,2.179,5.041,2.179   C269.698,314.924,267.23,312.378,265.941,311.167z"/>
	<path style="fill:#FF82AA;" d="M248.653,316.638l5.143,1.207c-0.313,1.742-1.625,4.069-3.77,4.521l-0.001,0.006l-0.003-0.004   l-0.004,0.002l0.001-0.006C248.299,321.005,248.158,318.338,248.653,316.638z"/>
	<path style="fill:#FF82AA;" d="M245.992,314.792l3.581,2.346c-0.906,1.521-2.817,3.335-4.672,3.231l-0.003,0.004l-0.001-0.004   l-0.004,0.001l0.003-0.004C244.06,318.706,244.959,316.227,245.992,314.792z"/>
	<path style="fill:#FF82AA;" d="M246.097,311.167l1.409,3.556c-1.91,2.43-5.041,2.179-5.041,2.179   C242.339,314.924,244.808,312.378,246.097,311.167z"/>
</g>
<ellipse style="fill:#FFE15A;" cx="256.04" cy="313.269" rx="10.975" ry="4.918"/>
<ellipse style="fill:#FF4B55;" cx="256.04" cy="313.269" rx="8.166" ry="3.196"/>
<path style="fill:#41479B;" d="M256.871,368.523c-5.337,0.454-10.026-3.514-10.482-8.844c-0.234-2.664,1.752-5.016,4.42-5.242  c2.667-0.227,5.012,1.751,5.238,4.42c0.227,2.669,2.577,4.642,5.24,4.421c2.67-0.226,4.651-2.581,4.419-5.244  C266.161,363.373,262.205,368.068,256.871,368.523"/>
<path style="fill:#FF9B55;" d="M246.389,359.68c-0.234-2.664,1.752-5.016,4.42-5.242c2.667-0.227,5.012,1.751,5.238,4.42  c0.227,2.669,2.577,4.642,5.24,4.421c2.67-0.226,4.651-2.581,4.419-5.244c-0.447-5.343-5.141-9.295-10.478-8.842  C249.894,349.649,245.934,354.342,246.389,359.68"/>
<path style="fill:#FFE15A;" d="M256.046,342.985c-8.765,0-15.87,7.105-15.87,15.87c0,8.765,7.105,15.87,15.87,15.87  c8.765,0,15.87-7.106,15.87-15.87C271.916,350.091,264.811,342.985,256.046,342.985z M256.046,371.42  c-6.938,0-12.564-5.625-12.564-12.564c0-6.939,5.625-12.564,12.564-12.564s12.564,5.625,12.564,12.564  C268.61,365.795,262.985,371.42,256.046,371.42z"/>
<path style="fill:#FF4B55;" d="M256.046,346.292c-6.938,0-12.564,5.625-12.564,12.564c0,6.939,5.625,12.564,12.564,12.564  s12.564-5.625,12.564-12.564C268.61,351.917,262.985,346.292,256.046,346.292z M256.046,368.479c-5.315,0-9.624-4.309-9.624-9.624  s4.309-9.624,9.624-9.624c5.315,0,9.624,4.309,9.624,9.624C265.67,364.172,261.362,368.479,256.046,368.479z"/>
<circle style="fill:#FF9B55;" cx="251.17" cy="358.849" r="1.212"/>
<circle style="fill:#41479B;" cx="260.87" cy="358.849" r="1.212"/>
<g>
	<circle style="fill:#FF4B55;" cx="256.04" cy="339.089" r="1.469"/>
	<circle style="fill:#FF4B55;" cx="257.51" cy="341.649" r="1.469"/>
	<circle style="fill:#FF4B55;" cx="254.58" cy="341.649" r="1.469"/>
	<circle style="fill:#FF4B55;" cx="256.04" cy="378.669" r="1.469"/>
	<circle style="fill:#FF4B55;" cx="254.58" cy="376.109" r="1.469"/>
	<circle style="fill:#FF4B55;" cx="257.51" cy="376.109" r="1.469"/>
</g>
<path style="fill:#FF9B55;" d="M253.361,297.515c-1.009-5.629-3.703-9.855-6.018-9.44c-2.315,0.415-3.374,5.314-2.365,10.942  c0.728,4.062,2.339,7.327,4.046,8.711c-0.705,1.209-1.134,3.053-1.143,5.337c1.268,0.108,2.574,0.102,3.916-0.138  c1.341-0.241,2.569-0.689,3.72-1.23c-0.802-2.138-1.845-3.719-2.926-4.608C253.71,305.198,254.089,301.576,253.361,297.515z"/>
<path style="fill:#41479B;" d="M258.7,297.515c1.009-5.629,3.703-9.855,6.018-9.44c2.315,0.415,3.373,5.314,2.365,10.942  c-0.728,4.062-2.339,7.327-4.046,8.711c0.705,1.209,1.134,3.053,1.143,5.337c-1.268,0.108-2.574,0.102-3.916-0.138  c-1.342-0.239-2.569-0.689-3.72-1.23c0.802-2.138,1.845-3.719,2.926-4.608C258.35,305.198,257.972,301.576,258.7,297.515z"/>
<path style="fill:#F5F5F5;" d="M260.351,297.385c0-6.2-1.907-11.227-4.258-11.227s-4.258,5.026-4.258,11.227  c0,4.474,1.011,8.267,2.446,10.071c-0.907,1.156-1.655,3.041-2.067,5.478c1.229,0.359,2.516,0.601,3.879,0.601  c1.363,0,2.65-0.243,3.879-0.601c-0.413-2.436-1.16-4.322-2.067-5.478C259.341,305.651,260.351,301.857,260.351,297.385z"/>
<g>
	<path style="fill:#FFE15A;" d="M256.046,309.109c-2.774,0-5.319-0.258-6.974-0.715c-0.569-0.15-0.903-0.732-0.748-1.305   c0.158-0.566,0.757-0.94,1.305-0.74c2.927,0.781,9.906,0.781,12.833,0c0.569-0.207,1.152,0.174,1.305,0.74   c0.153,0.574-0.179,1.156-0.748,1.305C261.365,308.852,258.82,309.109,256.046,309.109z"/>
	<path style="fill:#FFE15A;" d="M246.929,325.945c1.152-0.15,2.605-0.501,2.706-2.254c0,0-2.605-0.25-2.605-0.05   S246.929,325.945,246.929,325.945z"/>
</g>
<g>
	<path style="fill:#FF4B55;" d="M220.778,319.432c1.302,0.367,2.572,0.634,2.973,2.238c0,0,1.336-2.671-0.534-4.275   C222.876,317.102,220.778,319.432,220.778,319.432z"/>
	<path style="fill:#FF4B55;" d="M226.322,314.956c1.302,0.367,2.572,0.634,2.973,2.238c0,0,1.336-2.671-0.534-4.275   C228.419,312.628,226.322,314.956,226.322,314.956z"/>
</g>
<path style="fill:#FFE15A;" d="M221.178,324.242c-0.801-0.201-2.205-2.004-0.401-4.809s-6.112,1.402-6.412,3.708  c-0.3,2.304-0.601,6.412,1.203,5.311C217.372,327.347,221.178,324.242,221.178,324.242z"/>
<path style="fill:#FF4B55;" d="M229.762,324.542c0.267-1.47,0-2.472,1.87-3.807c1.87-1.335,2.137-2.071,2.137-2.94  c0,0-1.018,1.086-2.823,1.536c-1.103,0.276-2.054,1.069-2.054,1.069s-0.468-1.67,1.203-2.605c0,0-2.94,0-3.406,2.671  c-0.468,2.671,1.069,3.073-1.135,3.34c-2.205,0.267-7.348-0.801-9.151,3.273c-1.803,4.075,3.673,1.135,5.143,0.601  s6.145,0.601,6.88-0.401C229.162,326.279,229.762,324.542,229.762,324.542z"/>
<path style="fill:#FFF5E6;" d="M210.508,331.857l7.915-13.025c0,0,7.865-3.039,7.932-3.441c0.067-0.401,2.605-3.673,2.605-4.141  c0-0.468-0.267-2.739-1.269-3.139c-1.002-0.401-4.192,0.946-5.578,1.3c-1.386,0.354-3.573-2.234-3.573-2.234  s-12.758,2.404-13.694,3.941c-0.935,1.536-5.344,12.557-5.544,13.694c-0.201,1.135,0,8.951,0.267,8.818  C199.837,333.492,210.508,331.857,210.508,331.857z"/>
<path style="fill:#FF4B55;" d="M229.428,309.313c-1.203-1.737-3.406-1.737-4.342-0.333c-0.935,1.402-2.938,1.402-3.406,3.139  c-0.37,1.372,1.87,3.874,3.207,3.406c1.337-0.468,3.807-2.004,3.807-2.004S230.631,311.049,229.428,309.313z M225.77,312.849  c-0.548,0.701-1.924-0.171-1.933-0.949s1.14-0.821,1.711-0.417C225.92,311.745,226.218,312.278,225.77,312.849z M227.829,311.117  c-0.802,0.386-1.652-1.003-1.316-1.705c0.335-0.702,1.385-0.234,1.719,0.381C228.45,310.195,228.482,310.803,227.829,311.117z"/>
<path style="fill:#FFF5E6;" d="M231.96,359.842c1.331,0.134,3.093-0.049,3.459-3.061c0.42-3.452,1.464-4.658,3.193-3.859  c1.729,0.799,1.301,2.178,1.301,2.178s1.903,5.01,0.902,7.013c-1.002,2.004-3.306,4.408-5.01,4.809s-5.21-1.903-5.21-1.903  L231.96,359.842z"/>
<path style="fill:#FFE6D7;" d="M222.347,348.188c1.135-0.534,15.162-10.286,16.833-13.961c1.67-3.673,0.735-6.346,2.94-6.479  c2.205-0.134,5.945-0.267,5.611-3.006c-0.334-2.739-4.008-1.002-5.01-1.536s-4.141-2.004-4.743,0.134s0,4.075-0.868,5.143  c-0.868,1.069-4.743,2.94-5.41,2.805c-0.668-0.134-2.094-0.308-3.185,0.381s-1.692,1.623-1.692,1.623s-4.108,0.167-4.693,0.718  c-0.585,0.551-2.788,3.49-2.788,3.49L222.347,348.188z"/>
<path style="fill:#5AA587;" d="M223.817,345.984c0,0,2.671-1.002,4.576-4.71c1.903-3.708,3.807-2.205,6.613-4.209  c2.805-2.004,1.002-5.01,0.201-6.212c-0.801-1.202-0.25-4.308,2.505-4.209c1.813,0.066,7.615,5.711,5.01,11.322  c0,0-0.401-1.002-1.402-2.205c0,0,1.503,3.708-2.004,7.816c0,0,0.1-2.104-1.002-3.507c0,0-0.1,5.21-4.108,8.516  c0,0,0.501-3.406-0.1-4.809c0,0-0.601,4.509-6.513,8.617c0,0,0.902-1.603,0.702-4.209l-5.01,2.605L223.817,345.984z"/>
<path style="fill:#F5DCD2;" d="M185.709,363.117c0,0-1.803,5.511,3.106,7.114c4.909,1.603,7.615-0.501,9.418,0  c1.803,0.501,1.402,3.708-1.102,6.412c-2.505,2.706-5.01,3.006-7.816,1.002c-2.805-2.004-3.006-3.807-5.911-3.106  c-2.905,0.702-6.913-2.104-6.913-2.104s2.605-11.322,2.905-11.222C179.698,361.313,185.709,363.117,185.709,363.117z"/>
<path style="fill:#FFF5E6;" d="M160.235,349.331c0,0,3.459-3.327,16.9-7.452c13.44-4.125,20.626-5.855,20.626-5.855l10.513-3.327  c0,0,4.948-0.019,8.195-0.941c3.249-0.922,3.249-0.922,3.249-0.922s8.65,12.243,2.13,24.618l2.262,2.13c0,0,2.378,0.726,4.183,1.361  c1.805,0.636,0.474,4.095,0.474,4.095l-6.92,3.193l-20.227-0.931c0,0-0.399-0.931-7.053,1.197c-6.654,2.13-9.581-2.661-22.356-3.061  C159.436,363.037,160.235,349.331,160.235,349.331z"/>
<g>
	<path style="fill:#5AA587;" d="M217.738,301.565c0,0,2.037,2.037,0.935,4.207c0,0-2.271-2.337-4.141-2.872   c-2.879-0.822-3.474,0.751-9.836,1.052c-4.003,0.189-5.62,4.025-9.535,3.09c-4.191-1.002-7.648,0.918-7.648,0.918   s2.404-0.3,4.359,1.554c1.953,1.853,5.41,1.452,5.41,1.452s-3.156,2.205-5.811,1.152c-2.655-1.053-6.463,0.902-6.463,0.902   c0.701-0.05,2.254,0.2,4.008,2.053c1.754,1.853,5.662,1.402,5.662,1.402c-0.701,0.852-2.655,1.803-4.501,1.45   c-4.184-0.802-8.65,1.065-8.65,1.065s2.662-0.931,6.254,1.73c3.593,2.661,7.719,1.065,7.719,1.065c0,1.73-3.601,8.394-9.99,8.168   c-7.955-0.281-9.971,4.341-9.971,4.341s3.193-1.065,7.319-0.399c7.991,1.289,13.44-3.327,13.44-3.327s-1.331,6.254-6.786,5.988   s-12.375,5.323-12.375,5.323s6.147-1.108,14.086-1.205c2.611-0.032,4.734-1.062,6.549-2.286c4.774-3.224,9.182-3.224,9.182-3.224   c-5.21,1.203-7.915,6.913-7.915,6.913s4.008-3.507,9.818-3.507c5.812,0,7.615-6.813,7.615-6.813   c-5.41,0.099-6.212-4.309-6.212-4.309s-1.603,0.501-3.106,2.305c-0.951,1.141-2.558,1.528-3.658,1.682   c-0.401-3.513,2.252-6.721,2.252-6.721s-3.593-5.455,1.065-11.311c4.658-5.855,15.303-3.992,15.303-3.992   C223.215,304.503,219.074,301.43,217.738,301.565z"/>
	<path style="fill:#5AA587;" d="M206.918,320.935c1.737-0.267,9.82-2.94,9.685-6.546c-0.134-3.607-4.943-2.338-4.675-0.401   c0.267,1.937,2.004,1.536,2.004,1.536s-0.168,0.873-3.741,1.603C207.252,317.729,206.918,320.935,206.918,320.935z"/>
	<path style="fill:#5AA587;" d="M228.292,358.943c0,0,5.01-0.801,4.809,2.805c-0.201,3.607-3.073,7.414-9.017,9.085   c0,0,2.205-1.903,1.704-3.006c-0.501-1.102-3.006-1.402-4.308,0.501s-3.507,2.706-5.41,2.404c0,0,3.406-2.505,1.002-3.406   c-2.166-0.812-1.336,2.706-6.513,3.306c0,0,3.807-3.006,1.603-3.807c-2.204-0.801-3.406,4.408-7.315,4.008   c0,0,3.273-3.273,1.503-3.807c-2.788-0.842-3.507,4.008-8.516,1.903c0,0,2.505-1.102,0.501-3.807   c-2.004-2.706,0.801-6.112,2.205-7.514c1.404-1.402,2.404-2.304,2.004-3.708c0,0,3.574,2.238,1.77,6.178   c-1.694,3.701,5.162,1.657,10.487,1.203c5.478-0.468,8.727,2.674,12.224,1.603C230.296,361.88,228.292,358.943,228.292,358.943z"/>
	<path style="fill:#5AA587;" d="M131.359,360.641c0,0,6.572,3.031,10.298-0.03c3.726-3.061,4.738,0.562,9.13-2.1   c4.392-2.661,4.125-1.197,7.585-1.197c3.459,0,5.988-5.589,3.859-9.448c0,0,7.226-2.802,5.743-8.596   c-1.102-4.308-6.542-2.98-6.542-2.98s-5.74-3.608-9.714,1.065c-3.247,3.82-1.464,6.388-6.92,7.053   c-5.455,0.665-6.254,6.254-12.109,5.589c0,0,3.992,5.19,10.113,1.863C142.803,351.859,142.659,356.872,131.359,360.641z"/>
	<path style="fill:#5AA587;" d="M189.517,370.432c0,0,5.611,5.01-5.41,8.015c0,0,0.702-0.902,1.503-2.505   c0,0-3.406,2.505-7.816,2.304c0,0,1.302-1.002,1.603-2.205c0,0-4.008,1.102-6.913-0.801c0,0,3.507-0.201,5.711-3.507   c0,0,1.002,2.004,3.106,1.002c2.104-1.002,3.31,0.439,5.21,0.501C188.064,373.286,189.417,372.485,189.517,370.432z"/>
	<path style="fill:#5AA587;" d="M186.745,339.505c0,0-4.008,1.87-2.137,5.41c1.247,2.36,5.153,2.927,6.679,0.735   c1.302-1.87,0.269-3.686-1.102-3.942c-1.436-0.267-2.304,0.334-2.973,1.536C187.212,343.245,184.74,342.31,186.745,339.505z"/>
	<path style="fill:#5AA587;" d="M204.747,345.734c0,0,8.703,0.331,8.266,6.362c-0.192,2.654-3.782,4.507-6.046,3.115   c-1.932-1.187-1.619-3.165-0.611-4.042c1.11-0.966,2.208-0.618,3.298,0.214C209.654,351.381,210.207,348.088,204.747,345.734z"/>
	<path style="fill:#5AA587;" d="M222.131,334.01c0,0,4.697-3.151,6.527,0.6c0.804,1.651-0.696,4-2.53,3.954   c-1.565-0.04-2.062-1.329-1.766-2.201c0.328-0.961,1.105-1.133,2.042-1.015C226.404,335.349,226.689,332.907,222.131,334.01z"/>
	<path style="fill:#5AA587;" d="M228.514,331.669c0,0,4.333-2.908,6.02,0.554c0.742,1.523-0.642,3.69-2.334,3.647   c-1.443-0.036-1.902-1.225-1.628-2.03c0.302-0.886,1.018-1.046,1.885-0.937C232.457,332.904,232.719,330.653,228.514,331.669z"/>
	<path style="fill:#5AA587;" d="M212.284,350.888c0,0,7.489,0.285,7.113,5.475c-0.166,2.283-3.254,3.878-5.203,2.68   c-1.663-1.022-1.752-2.897-1.031-3.791c1.252-1.553,2.755-0.852,2.755-0.852S216.982,352.914,212.284,350.888z"/>
	<path style="fill:#5AA587;" d="M217.772,355c0,0,8.266-0.801,7.652,4.778c-0.16,1.455-2.081,2.481-3.328,1.715   c-1.064-0.653-1.121-1.853-0.659-2.425c0.801-0.993,1.762-0.545,1.762-0.545S222.681,356.053,217.772,355z"/>
</g>
<path style="fill:#FFE6D7;" d="M164.759,381.534c0,0,1.131,2.296,1.863,4.524c0.627,1.907,3.859,3.193,5.589,1.996  c1.73-1.197,4.651-4.777,3.454-5.575c-1.197-0.799-6.381-0.147-7.179-2.942c-0.799-2.795-0.532-4.658-0.532-4.658  s6.935,2.063,10.242-3.147c3.307-5.21,2.834-10.297,4.13-12.822c1.013-1.974,2.795-2.927,2.795-2.927  c-2.037-8.066-26.88-13.839-23.997,7.097l-3.903,8.872L164.759,381.534z"/>
<g>
	<path style="fill:#5AA587;" d="M155.951,381.185c1.704,1.102,7.949,4.275,11.823,1.87c3.168-1.966,3.207-4.209,1.203-4.71   s-3.106,0.902-4.209,0c-1.102-0.901-7.315-6.012-5.01-7.615c2.305-1.603,3.552-2.9,3.507-5.711   c-0.033-2.071-1.837-4.075-3.975-4.275c-2.665-0.249-4.743,0.868-7.548,0.868l3.273,1.67c-2.104,1.002-2.271,3.841-4.776,4.342   c0,0,1.704,1.937,3.841,1.336c0,0-0.735,2.004-2.739,2.271c0,0,1.87,2.137,3.607,2.739c0,0-1.135,0.801-2.905,0.468   c0,0,2.772,4.075,6.913,5.11L155.951,381.185z"/>
	<path style="fill:#5AA587;" d="M168.022,373.555c0,0,1.113-0.193,1.208-1.548c0.055-0.781-0.725-1.794-2.052-1.718   c-1.555,0.089-2.61,2.154-1.865,3.523c1.907,3.501,9.007,2.095,9.875,0.826C175.189,374.638,169.512,374.906,168.022,373.555z"/>
</g>
<g>
	<path style="fill:#FFE15A;" d="M171.348,390.203c0.309-0.434,0.559-1.611-0.042-2.338c0,0,0.326-1.678,1.603-1.077   c0,0,0.543,1.344,0.108,2.28C172.584,390.003,171.348,390.203,171.348,390.203z"/>
	<path style="fill:#FFE15A;" d="M173.954,389.261c-0.022-1.21-0.294-1.873-1.27-1.973c0,0-0.25-1.753,1.203-1.753   c0,0,1.077,0.951,1.087,1.983C174.984,388.549,173.954,389.261,173.954,389.261z"/>
	<path style="fill:#FFE15A;" d="M175.565,388.088c-0.238-1.187-0.463-2.013-1.55-2.093c0,0-0.578-1.436,1.024-1.636   c0,0,1.022,0.82,1.217,1.832C176.45,387.203,175.565,388.088,175.565,388.088z"/>
	<path style="fill:#FFE15A;" d="M177.176,386.247c-0.493-1.106-0.984-1.548-2.062-1.388c0,0-0.927-1.302,0.351-2.004   c0,0,1.556,0.444,1.967,1.389C177.845,385.19,177.176,386.247,177.176,386.247z"/>
	<path style="fill:#FFE15A;" d="M196.196,379.471c0.227-0.482,0.265-1.685-0.456-2.293c0,0,0.022-1.709,1.386-1.345   c0,0,0.772,1.227,0.511,2.223C197.377,379.053,196.196,379.471,196.196,379.471z"/>
	<path style="fill:#FFE15A;" d="M198.594,378.081c-0.236-1.187-0.621-1.791-1.6-1.716c0,0-0.557-1.681,0.872-1.939   c0,0,1.228,0.745,1.421,1.758S198.594,378.081,198.594,378.081z"/>
	<path style="fill:#FFE15A;" d="M199.97,376.641c-0.445-1.126-0.813-1.899-1.898-1.785c0,0-0.824-1.311,0.717-1.792   c0,0,1.151,0.626,1.523,1.587C200.684,375.614,199.97,376.641,199.97,376.641z"/>
	<path style="fill:#FFE15A;" d="M201.23,374.542c-0.682-1.001-1.244-1.349-2.276-1c0,0-1.143-1.118-0.011-2.035   c0,0,1.61,0.161,2.184,1.017C201.7,373.383,201.23,374.542,201.23,374.542z"/>
</g>
<path style="fill:#FFE6D7;" d="M229.494,312.852c0.217,1.085-0.334,2.271-2.938,3.406s-2.538,0.668-4.275,2.872  c-1.737,2.205-1.937,2.271-4.075,2.671c-2.137,0.401-3.139,7.013-0.601,6.012c2.538-1.002,2.872-3.073,5.677-2.404  c2.805,0.669,4.275,1.603,6.479-0.868c0,0,2.137,2.872-1.87,4.075c-4.008,1.203-6.195,1.295-8.173,2.217  c-1.98,0.922-9,3.177-9.461-3.386c-0.134-1.903,1.269-2.638,2.071-4.041c0.801-1.402,1.603-2.338,3.54-3.874  s0.735-2.805,3.874-3.273c3.139-0.468,5.745-0.401,6.679-2.671C227.357,311.316,229.227,311.516,229.494,312.852z"/>
<g>
	<path style="fill:#5AA587;" d="M176.893,344.698c0,0-0.602-2.393,2.189-3.407c-0.655,0.199-1.258,0.377-1.946,0.589   c-0.587,0.18-1.053,0.349-1.602,0.526c-0.214,0.289-0.502,0.442-0.647,0.847c-0.849,2.378,1.251,5.463,3.756,5.127   c2.136-0.288,2.742-2.168,2.044-3.287C179.954,343.92,178.345,343.646,176.893,344.698z"/>
	<path style="fill:#5AA587;" d="M177.757,370.105c-3.029,0.678-4.392-0.492-4.392-0.492s1.113-0.193,1.208-1.548   c0.055-0.781-0.725-1.794-2.052-1.718c-1.555,0.089-2.61,2.154-1.864,3.523c1.641,3.011,6.302,2.3,8.356,0.165   c0.108-0.22,0.22-0.438,0.317-0.657C178.881,369.664,178.306,369.984,177.757,370.105z"/>
	<path style="fill:#5AA587;" d="M180.818,365.044c0.077-0.343,0.186-0.689,0.252-1.016c-3.56,1.44-4.598-0.373-4.598-0.373   s1.113-0.193,1.208-1.548c0.055-0.781-0.725-1.794-2.052-1.717c-1.555,0.089-2.61,2.154-1.864,3.523   C175.503,367.104,178.603,366.214,180.818,365.044z"/>
	<path style="fill:#5AA587;" d="M188.826,366.737c-2.069,1.854-3.65,1.752-3.65,1.752s0.826-0.769,0.167-1.956   c-0.381-0.685-1.587-1.107-2.657-0.319c-1.255,0.924-1.011,3.23,0.361,3.97c3.378,1.821,5.57-0.995,6.742-3.262   C189.47,366.878,189.146,366.803,188.826,366.737z"/>
</g>
<g>
	<path style="fill:#FFE15A;" d="M242.151,364.945c-0.149-0.738-0.922-2.143-1.874-2.24c0,0-1.122-1.97,0.153-2.686   c0,0,1.402,0.759,1.869,2.114C242.766,363.489,242.151,364.945,242.151,364.945z"/>
	<path style="fill:#FFE15A;" d="M243.04,361.368c-0.97-1.16-1.664-1.528-2.356-0.63c0,0-1.543-1.457-0.632-2.937   c0,0,1.427-0.169,2.249,0.826C243.123,359.625,243.04,361.368,243.04,361.368z"/>
	<path style="fill:#FFE15A;" d="M243.123,358.581c-1.088-0.916-1.881-1.493-2.626-0.462c0,0-1.497-0.812-0.651-2.642   c0,0,1.289-0.242,2.21,0.548C242.978,356.815,243.123,358.581,243.123,358.581z"/>
	<path style="fill:#FFE15A;" d="M242.678,355.143c-1.183-0.576-1.841-0.509-2.39,0.747c0,0-1.61-0.327-1.364-2.314   c0,0,1.326-1.152,2.332-0.651C242.262,353.426,242.678,355.143,242.678,355.143z"/>
</g>
<circle style="fill:#F5F5F5;" cx="216.87" cy="316.589" r="1.87"/>
<circle style="fill:#41479B;" cx="216.87" cy="316.589" r="0.678"/>
<circle style="fill:#F5F5F5;" cx="220.72" cy="309.76" r="1.519"/>
<circle style="fill:#41479B;" cx="220.72" cy="309.76" r="0.551"/>
<path style="fill:#FFF5E6;" d="M166.773,346.484c-1.73,1.331-7.715-1.603-11.923-0.201c-5.439,1.813-5.394,5.309-5.394,5.309  s3.39-4.206,9.034-2.136c3.123,1.145,4.939,1.205,4.939,1.205L166.773,346.484z"/>
<path style="fill:#FFE15A;" d="M265.068,325.945c-1.152-0.15-2.605-0.501-2.706-2.254c0,0,2.605-0.25,2.605-0.05  S265.068,325.945,265.068,325.945z"/>
<g>
	<path style="fill:#FF4B55;" d="M291.219,319.432c-1.302,0.367-2.572,0.634-2.973,2.238c0,0-1.336-2.671,0.534-4.275   C289.121,317.102,291.219,319.432,291.219,319.432z"/>
	<path style="fill:#FF4B55;" d="M285.675,314.956c-1.302,0.367-2.572,0.634-2.973,2.238c0,0-1.336-2.671,0.534-4.275   C283.576,312.628,285.675,314.956,285.675,314.956z"/>
</g>
<path style="fill:#FFE15A;" d="M290.818,324.242c0.801-0.201,2.205-2.004,0.401-4.809s6.112,1.402,6.412,3.708  c0.3,2.306,0.601,6.412-1.203,5.311C294.625,327.347,290.818,324.242,290.818,324.242z"/>
<path style="fill:#FF4B55;" d="M282.234,324.542c-0.267-1.47,0-2.472-1.87-3.807c-1.87-1.335-2.137-2.071-2.137-2.94  c0,0,1.018,1.086,2.823,1.536c1.103,0.276,2.053,1.069,2.053,1.069s0.468-1.67-1.203-2.605c0,0,2.94,0,3.406,2.671  c0.468,2.671-1.069,3.073,1.135,3.34c2.205,0.267,7.348-0.801,9.151,3.273c1.803,4.074-3.673,1.135-5.143,0.601  s-6.145,0.601-6.88-0.401C282.836,326.279,282.234,324.542,282.234,324.542z"/>
<path style="fill:#FFF5E6;" d="M301.489,331.857l-7.915-13.025c0,0-7.865-3.039-7.932-3.441c-0.067-0.401-2.605-3.673-2.605-4.141  c0-0.468,0.267-2.739,1.269-3.139c1.002-0.401,4.192,0.946,5.578,1.3c1.386,0.354,3.573-2.234,3.573-2.234  s12.758,2.404,13.694,3.941c0.935,1.536,5.344,12.557,5.544,13.694c0.201,1.135,0,8.951-0.267,8.818  C312.16,333.492,301.489,331.857,301.489,331.857z"/>
<path style="fill:#FF4B55;" d="M283.304,313.521c0,0,2.472,1.536,3.807,2.004c1.336,0.467,3.576-2.036,3.207-3.406  c-0.467-1.737-2.472-1.737-3.406-3.139c-0.935-1.402-3.139-1.402-4.342,0.333C281.366,311.049,283.304,313.521,283.304,313.521z   M286.449,311.482c0.572-0.404,1.72-0.36,1.711,0.417c-0.009,0.778-1.385,1.65-1.933,0.949  C285.779,312.278,286.077,311.745,286.449,311.482z M283.764,309.792c0.334-0.615,1.384-1.082,1.719-0.381  c0.335,0.702-0.514,2.091-1.316,1.705C283.514,310.803,283.545,310.195,283.764,309.792z"/>
<path style="fill:#FFF5E6;" d="M280.036,359.842c-1.331,0.134-3.093-0.049-3.459-3.061c-0.42-3.452-1.464-4.658-3.193-3.859  s-1.301,2.178-1.301,2.178s-1.903,5.01-0.902,7.013c1.002,2.004,3.306,4.408,5.01,4.809s5.211-1.903,5.211-1.903L280.036,359.842z"/>
<path style="fill:#FFE6D7;" d="M289.649,348.188c-1.135-0.534-15.162-10.286-16.833-13.961c-1.67-3.673-0.735-6.346-2.94-6.479  c-2.205-0.134-5.945-0.267-5.611-3.006s4.008-1.002,5.01-1.536s4.141-2.004,4.743,0.134s0,4.075,0.868,5.143  c0.868,1.069,4.743,2.94,5.41,2.805c0.668-0.135,2.094-0.308,3.185,0.381c1.09,0.689,1.692,1.623,1.692,1.623  s4.108,0.167,4.693,0.718c0.585,0.551,2.788,3.49,2.788,3.49L289.649,348.188z"/>
<path style="fill:#5AA587;" d="M288.18,345.984c0,0-2.671-1.002-4.576-4.71c-1.903-3.708-3.807-2.205-6.613-4.209  c-2.805-2.004-1.002-5.01-0.201-6.212c0.801-1.203,0.25-4.308-2.505-4.209c-1.813,0.066-7.615,5.711-5.01,11.322  c0,0,0.401-1.002,1.402-2.205c0,0-1.503,3.708,2.004,7.816c0,0-0.1-2.104,1.002-3.507c0,0,0.1,5.21,4.108,8.516  c0,0-0.501-3.406,0.1-4.809c0,0,0.601,4.509,6.513,8.617c0,0-0.901-1.603-0.702-4.209l5.01,2.605L288.18,345.984z"/>
<path style="fill:#F5DCD2;" d="M326.287,363.117c0,0,1.803,5.511-3.106,7.114c-4.909,1.603-7.615-0.501-9.418,0  c-1.803,0.501-1.402,3.708,1.102,6.412c2.505,2.706,5.01,3.006,7.816,1.002c2.805-2.004,3.006-3.807,5.911-3.106  c2.905,0.702,6.913-2.104,6.913-2.104s-2.605-11.322-2.905-11.222C332.299,361.313,326.287,363.117,326.287,363.117z"/>
<path style="fill:#FFF5E6;" d="M351.762,349.331c0,0-3.459-3.327-16.9-7.452c-13.44-4.125-20.626-5.855-20.626-5.855l-10.513-3.327  c0,0-4.948-0.019-8.195-0.941s-3.249-0.922-3.249-0.922s-8.65,12.243-2.13,24.618l-2.262,2.13c0,0-2.378,0.726-4.183,1.361  c-1.805,0.636-0.474,4.095-0.474,4.095l6.92,3.193l20.227-0.931c0,0,0.399-0.931,7.053,1.197c6.654,2.129,9.581-2.661,22.356-3.061  C352.559,363.037,351.762,349.331,351.762,349.331z"/>
<g>
	<path style="fill:#5AA587;" d="M294.258,301.565c0,0-2.037,2.037-0.935,4.207c0,0,2.271-2.337,4.141-2.872   c2.879-0.822,3.474,0.751,9.836,1.052c4.003,0.189,5.62,4.025,9.535,3.09c4.191-1.002,7.648,0.918,7.648,0.918   s-2.404-0.3-4.359,1.554c-1.953,1.853-5.41,1.452-5.41,1.452s3.156,2.205,5.811,1.152c2.655-1.052,6.463,0.902,6.463,0.902   c-0.701-0.05-2.254,0.2-4.008,2.053c-1.753,1.854-5.662,1.402-5.662,1.402c0.701,0.852,2.655,1.803,4.501,1.45   c4.184-0.802,8.65,1.065,8.65,1.065s-2.661-0.931-6.254,1.73s-7.719,1.065-7.719,1.065c0,1.73,3.601,8.394,9.99,8.168   c7.955-0.281,9.971,4.341,9.971,4.341s-3.193-1.065-7.319-0.399c-7.991,1.289-13.44-3.327-13.44-3.327s1.331,6.254,6.786,5.988   s12.375,5.323,12.375,5.323s-6.147-1.108-14.086-1.205c-2.611-0.032-4.734-1.062-6.549-2.286c-4.774-3.224-9.182-3.224-9.182-3.224   c5.21,1.203,7.915,6.913,7.915,6.913s-4.008-3.507-9.818-3.507c-5.812,0-7.615-6.813-7.615-6.813   c5.41,0.099,6.212-4.309,6.212-4.309s1.603,0.501,3.106,2.305c0.951,1.141,2.558,1.528,3.658,1.682   c0.401-3.513-2.252-6.721-2.252-6.721s3.593-5.455-1.065-11.311s-15.304-3.992-15.304-3.992   C288.781,304.503,292.922,301.43,294.258,301.565z"/>
	<path style="fill:#5AA587;" d="M305.079,320.935c-1.737-0.267-9.82-2.94-9.685-6.546c0.135-3.606,4.943-2.338,4.675-0.401   c-0.267,1.937-2.004,1.536-2.004,1.536s0.168,0.873,3.741,1.603C304.745,317.729,305.079,320.935,305.079,320.935z"/>
	<path style="fill:#5AA587;" d="M283.704,358.943c0,0-5.01-0.801-4.809,2.805c0.201,3.607,3.073,7.414,9.017,9.085   c0,0-2.205-1.903-1.704-3.006c0.501-1.102,3.006-1.402,4.308,0.501s3.507,2.706,5.41,2.404c0,0-3.406-2.505-1.002-3.406   c2.166-0.812,1.336,2.706,6.513,3.306c0,0-3.807-3.006-1.603-3.807c2.205-0.801,3.406,4.408,7.315,4.008   c0,0-3.273-3.273-1.503-3.807c2.788-0.842,3.507,4.008,8.516,1.903c0,0-2.505-1.102-0.501-3.807   c2.004-2.706-0.801-6.112-2.205-7.514c-1.402-1.402-2.404-2.304-2.004-3.708c0,0-3.574,2.238-1.77,6.178   c1.694,3.701-5.162,1.657-10.487,1.203c-5.478-0.468-8.727,2.674-12.224,1.603C281.7,361.88,283.704,358.943,283.704,358.943z"/>
	<path style="fill:#5AA587;" d="M380.638,360.641c0,0-6.572,3.031-10.298-0.03c-3.726-3.061-4.738,0.562-9.13-2.1   c-4.392-2.661-4.125-1.197-7.585-1.197c-3.459,0-5.988-5.589-3.859-9.448c0,0-7.227-2.802-5.743-8.596   c1.102-4.308,6.542-2.98,6.542-2.98s5.74-3.608,9.714,1.065c3.247,3.82,1.464,6.388,6.92,7.053   c5.455,0.665,6.254,6.254,12.109,5.589c0,0-3.992,5.19-10.113,1.863C369.194,351.859,369.337,356.872,380.638,360.641z"/>
	<path style="fill:#5AA587;" d="M322.479,370.432c0,0-5.611,5.01,5.41,8.015c0,0-0.702-0.902-1.503-2.505   c0,0,3.406,2.505,7.816,2.304c0,0-1.302-1.002-1.603-2.205c0,0,4.008,1.102,6.913-0.801c0,0-3.507-0.201-5.711-3.507   c0,0-1.002,2.004-3.106,1.002c-2.104-1.002-3.31,0.439-5.211,0.501C323.933,373.286,322.58,372.485,322.479,370.432z"/>
	<path style="fill:#5AA587;" d="M325.251,339.505c0,0,4.008,1.87,2.137,5.41c-1.247,2.36-5.153,2.927-6.679,0.735   c-1.302-1.87-0.269-3.686,1.102-3.942c1.437-0.267,2.304,0.334,2.973,1.536C324.783,343.245,327.255,342.31,325.251,339.505z"/>
	<path style="fill:#5AA587;" d="M307.25,345.734c0,0-8.703,0.331-8.266,6.362c0.192,2.654,3.782,4.507,6.046,3.115   c1.932-1.187,1.619-3.165,0.611-4.042c-1.11-0.966-2.208-0.618-3.298,0.214C302.343,351.381,301.79,348.088,307.25,345.734z"/>
	<path style="fill:#5AA587;" d="M289.866,334.01c0,0-4.697-3.151-6.527,0.6c-0.804,1.651,0.696,4,2.53,3.954   c1.565-0.04,2.062-1.329,1.766-2.201c-0.328-0.961-1.105-1.133-2.043-1.015C285.592,335.349,285.308,332.907,289.866,334.01z"/>
	<path style="fill:#5AA587;" d="M283.482,331.669c0,0-4.333-2.908-6.02,0.554c-0.741,1.523,0.642,3.69,2.334,3.647   c1.443-0.036,1.902-1.225,1.628-2.03c-0.302-0.886-1.018-1.046-1.885-0.937C279.54,332.904,279.277,330.653,283.482,331.669z"/>
	<path style="fill:#5AA587;" d="M299.713,350.888c0,0-7.489,0.285-7.113,5.475c0.165,2.283,3.254,3.878,5.203,2.68   c1.663-1.022,1.752-2.897,1.031-3.791c-1.252-1.553-2.755-0.852-2.755-0.852S295.015,352.914,299.713,350.888z"/>
	<path style="fill:#5AA587;" d="M294.225,355c0,0-8.266-0.801-7.652,4.778c0.16,1.455,2.081,2.481,3.328,1.715   c1.064-0.653,1.121-1.853,0.659-2.425c-0.801-0.993-1.762-0.545-1.762-0.545S289.315,356.053,294.225,355z"/>
</g>
<path style="fill:#FFE6D7;" d="M347.238,381.534c0,0-1.131,2.296-1.863,4.524c-0.627,1.907-3.859,3.193-5.589,1.996  c-1.73-1.197-4.651-4.777-3.454-5.575c1.197-0.798,6.381-0.147,7.18-2.942c0.799-2.795,0.532-4.658,0.532-4.658  s-6.935,2.063-10.242-3.147c-3.306-5.211-2.834-10.297-4.13-12.822c-1.013-1.974-2.795-2.927-2.795-2.927  c2.037-8.066,26.88-13.839,23.997,7.097l3.903,8.872L347.238,381.534z"/>
<g>
	<path style="fill:#5AA587;" d="M356.045,381.185c-1.704,1.102-7.949,4.275-11.823,1.87c-3.168-1.966-3.207-4.209-1.203-4.71   c2.004-0.501,3.106,0.902,4.209,0c1.102-0.901,7.315-6.012,5.01-7.615c-2.305-1.603-3.552-2.9-3.507-5.711   c0.033-2.071,1.837-4.075,3.975-4.275c2.665-0.249,4.743,0.868,7.548,0.868l-3.273,1.67c2.104,1.002,2.271,3.841,4.776,4.342   c0,0-1.704,1.937-3.841,1.336c0,0,0.735,2.004,2.739,2.271c0,0-1.87,2.137-3.607,2.739c0,0,1.135,0.801,2.905,0.468   c0,0-2.772,4.075-6.913,5.11L356.045,381.185z"/>
	<path style="fill:#5AA587;" d="M343.975,373.555c0,0-1.113-0.193-1.208-1.548c-0.055-0.781,0.725-1.794,2.052-1.718   c1.555,0.089,2.61,2.154,1.865,3.523c-1.907,3.501-9.007,2.095-9.875,0.826C336.808,374.638,342.485,374.906,343.975,373.555z"/>
</g>
<g>
	<path style="fill:#FFE15A;" d="M340.648,390.203c-0.309-0.434-0.559-1.611,0.042-2.338c0,0-0.326-1.678-1.603-1.077   c0,0-0.543,1.344-0.108,2.28C339.412,390.003,340.648,390.203,340.648,390.203z"/>
	<path style="fill:#FFE15A;" d="M338.041,389.261c0.022-1.21,0.294-1.873,1.27-1.973c0,0,0.25-1.753-1.203-1.753   c0,0-1.077,0.951-1.087,1.983C337.013,388.549,338.041,389.261,338.041,389.261z"/>
	<path style="fill:#FFE15A;" d="M336.431,388.088c0.238-1.187,0.463-2.013,1.55-2.093c0,0,0.578-1.436-1.024-1.636   c0,0-1.022,0.82-1.217,1.832C335.545,387.201,336.431,388.088,336.431,388.088z"/>
	<path style="fill:#FFE15A;" d="M334.82,386.247c0.493-1.106,0.984-1.548,2.062-1.388c0,0,0.927-1.302-0.351-2.004   c0,0-1.556,0.444-1.969,1.389C334.152,385.19,334.82,386.247,334.82,386.247z"/>
	<path style="fill:#FFE15A;" d="M315.8,379.471c-0.227-0.482-0.265-1.685,0.456-2.293c0,0-0.022-1.709-1.387-1.345   c0,0-0.772,1.227-0.512,2.223C314.62,379.053,315.8,379.471,315.8,379.471z"/>
	<path style="fill:#FFE15A;" d="M313.402,378.081c0.236-1.187,0.621-1.791,1.6-1.716c0,0,0.557-1.681-0.872-1.939   c0,0-1.228,0.745-1.421,1.758C312.515,377.198,313.402,378.081,313.402,378.081z"/>
	<path style="fill:#FFE15A;" d="M312.025,376.641c0.445-1.126,0.813-1.899,1.898-1.785c0,0,0.824-1.311-0.717-1.792   c0,0-1.151,0.626-1.523,1.587C311.311,375.614,312.025,376.641,312.025,376.641z"/>
	<path style="fill:#FFE15A;" d="M310.766,374.542c0.682-1.001,1.244-1.349,2.276-1c0,0,1.143-1.118,0.011-2.035   c0,0-1.61,0.161-2.184,1.017C310.296,373.383,310.766,374.542,310.766,374.542z"/>
</g>
<path style="fill:#FFE6D7;" d="M282.502,312.852c-0.217,1.085,0.334,2.271,2.94,3.406s2.538,0.668,4.275,2.872  c1.737,2.205,1.937,2.271,4.075,2.671c2.137,0.401,3.139,7.013,0.601,6.012c-2.538-1.002-2.872-3.073-5.677-2.404  s-4.275,1.603-6.479-0.868c0,0-2.137,2.872,1.87,4.075c4.008,1.203,6.195,1.295,8.173,2.217c1.98,0.922,9,3.177,9.461-3.386  c0.134-1.903-1.269-2.638-2.071-4.041c-0.801-1.402-1.603-2.338-3.54-3.874c-1.938-1.536-0.735-2.805-3.874-3.273  c-3.139-0.468-5.745-0.401-6.679-2.671C284.639,311.316,282.769,311.516,282.502,312.852z"/>
<g>
	<path style="fill:#5AA587;" d="M335.104,344.698c0,0,0.602-2.393-2.189-3.407c0.655,0.199,1.258,0.377,1.947,0.589   c0.587,0.18,1.053,0.349,1.602,0.526c0.214,0.289,0.502,0.442,0.647,0.847c0.849,2.378-1.251,5.463-3.756,5.127   c-2.136-0.288-2.742-2.168-2.044-3.287C332.042,343.92,333.651,343.646,335.104,344.698z"/>
	<path style="fill:#5AA587;" d="M334.239,370.105c3.029,0.678,4.392-0.492,4.392-0.492s-1.113-0.193-1.208-1.548   c-0.055-0.781,0.725-1.794,2.052-1.718c1.555,0.089,2.61,2.154,1.864,3.523c-1.641,3.011-6.302,2.3-8.356,0.165   c-0.108-0.22-0.22-0.438-0.317-0.657C333.116,369.664,333.69,369.984,334.239,370.105z"/>
	<path style="fill:#5AA587;" d="M331.179,365.044c-0.077-0.343-0.186-0.689-0.252-1.016c3.56,1.44,4.598-0.373,4.598-0.373   s-1.113-0.193-1.208-1.548c-0.055-0.781,0.725-1.794,2.052-1.717c1.555,0.089,2.61,2.154,1.864,3.523   C336.493,367.104,333.393,366.214,331.179,365.044z"/>
	<path style="fill:#5AA587;" d="M323.17,366.737c2.069,1.854,3.65,1.752,3.65,1.752s-0.826-0.769-0.167-1.956   c0.381-0.685,1.587-1.107,2.657-0.319c1.255,0.924,1.011,3.23-0.361,3.97c-3.378,1.821-5.57-0.995-6.742-3.262   C322.526,366.878,322.849,366.803,323.17,366.737z"/>
</g>
<g>
	<path style="fill:#FFE15A;" d="M269.846,364.945c0.149-0.738,0.922-2.143,1.874-2.24c0,0,1.122-1.97-0.153-2.686   c0,0-1.402,0.759-1.869,2.114C269.229,363.489,269.846,364.945,269.846,364.945z"/>
	<path style="fill:#FFE15A;" d="M268.957,361.368c0.97-1.16,1.664-1.528,2.356-0.63c0,0,1.543-1.457,0.632-2.937   c0,0-1.427-0.169-2.249,0.826C268.874,359.623,268.957,361.368,268.957,361.368z"/>
	<path style="fill:#FFE15A;" d="M268.874,358.581c1.087-0.916,1.881-1.493,2.626-0.462c0,0,1.497-0.812,0.651-2.642   c0,0-1.289-0.242-2.21,0.548C269.018,356.815,268.874,358.581,268.874,358.581z"/>
	<path style="fill:#FFE15A;" d="M269.319,355.143c1.183-0.576,1.841-0.509,2.39,0.747c0,0,1.61-0.327,1.364-2.314   c0,0-1.326-1.152-2.332-0.651C269.736,353.427,269.319,355.143,269.319,355.143z"/>
</g>
<circle style="fill:#F5F5F5;" cx="295.13" cy="316.589" r="1.87"/>
<circle style="fill:#41479B;" cx="295.13" cy="316.589" r="0.678"/>
<circle style="fill:#F5F5F5;" cx="291.27" cy="309.76" r="1.519"/>
<circle style="fill:#41479B;" cx="291.27" cy="309.76" r="0.551"/>
<path style="fill:#FFF5E6;" d="M345.224,346.484c1.73,1.331,7.715-1.603,11.923-0.201c5.439,1.813,5.394,5.309,5.394,5.309  s-3.39-4.206-9.034-2.136c-3.123,1.145-4.939,1.205-4.939,1.205L345.224,346.484z"/>
<g>
</g>
<g>
</g>
<g>
</g>
<g>
</g>
<g>
</g>
<g>
</g>
<g>
</g>
<g>
</g>
<g>
</g>
<g>
</g>
<g>
</g>
<g>
</g>
<g>
</g>
<g>
</g>
<g>
</g>
</svg>
