<?xml version="1.0" encoding="iso-8859-1"?>
<!-- Generator: Adobe Illustrator 19.0.0, SVG Export Plug-In . SVG Version: 6.00 Build 0)  -->
<svg xmlns="http://www.w3.org/2000/svg" xmlns:xlink="http://www.w3.org/1999/xlink" version="1.1" id="Layer_1" x="0px" y="0px" viewBox="0 0 512 512" style="enable-background:new 0 0 512 512;" xml:space="preserve">
<path style="fill:#4173CD;" d="M473.655,423.724H38.345C17.167,423.724,0,406.557,0,385.379V126.621  c0-21.177,17.167-38.345,38.345-38.345h435.31c21.177,0,38.345,17.167,38.345,38.345V385.38  C512,406.557,494.833,423.724,473.655,423.724z"/>
<path style="fill:#73AF00;" d="M216.518,344.275c-0.742,13.188,7.988,14.813,12.717,14.884s11.895,2.15,18.56,3.511  c6.665,1.362,8.814-4.157,8.814-4.157c3.942,5.16,7.787,3.584,7.787,3.584c3.153-3.153,11.562-4.73,14.858-4.946  c3.296-0.215,2.508-4.729,2.508-4.729c3.454-1.921,5.791-4.122,7.462-6.347c0.072,0.032,0.135,0.082,0.206,0.113  c5.661,2.436,10.033-2.723,10.964-4.658c0.576-1.197,1.631-1.726,2.385-1.984l0.267,2.987c2.436-3.511,7.74-2.221,7.74-2.221  c-5.447-8.384-10.964-4.514-10.964-4.514l2.138,2.031c-3.244,1.635-5.17,8.108-9.949,6.21c-0.408-0.162-0.754-0.395-1.118-0.609  c1.929-3.825,1.992-7.433,1.476-9.495c-0.931-3.726-6.665-4.586-9.459-0.788c-1.953,2.655-0.717,6.756,2.114,9.832  c-1.495,1.043-3.404,2.013-5.911,2.709c-7.74,2.15-19.349-8.026-27.374-8.456c-8.026-0.43-15.049,6.306-19.062,10.606  s-9.398,0.491-9.316-2.293 M286.778,334.65c1.505-0.644,2.15,0.502,2.365,2.365c0.09,0.781-0.339,2.059-1.391,3.432  C286.094,337.898,285.823,335.061,286.778,334.65z"/>
<g>
	<polygon style="fill:#F5F5F5;" points="239.247,360.181 234.968,362.383 236.163,359.426  "/>
	<polygon style="fill:#F5F5F5;" points="235.255,359.16 231.299,361.196 232.404,358.463  "/>
	<polygon style="fill:#F5F5F5;" points="231.565,358.417 228.641,360.066 229.396,357.973  "/>
	<polygon style="fill:#F5F5F5;" points="264.396,362.098 259.738,363.309 261.554,360.685  "/>
	<polygon style="fill:#F5F5F5;" points="261.162,360.374 256.823,361.357 258.577,358.986  "/>
	<polygon style="fill:#F5F5F5;" points="258.135,358.786 255.158,360.334 255.982,358.269  "/>
	
		<ellipse transform="matrix(-0.8179 0.5754 -0.5754 -0.8179 476.0892 253.3394)" style="fill:#F5F5F5;" cx="197.952" cy="202.014" rx="2.02" ry="2.637"/>
	
		<ellipse transform="matrix(0.8179 0.5754 -0.5754 0.8179 173.4321 -143.9078)" style="fill:#F5F5F5;" cx="314.048" cy="202.017" rx="2.02" ry="2.637"/>
	<path style="fill:#F5F5F5;" d="M283.693,245.695v51.433c0,15.271-12.424,27.694-27.694,27.694s-27.694-12.424-27.694-27.694   v-51.433L283.693,245.695 M299.519,225.913h-87.04c-2.185,0-3.956,1.771-3.956,3.956v67.258c0,26.22,21.256,47.477,47.476,47.477   s47.476-21.256,47.476-47.477v-67.258C303.475,227.684,301.704,225.913,299.519,225.913L299.519,225.913z"/>
</g>
<g>
	<path style="fill:#FF4B55;" d="M228.305,245.695h-19.782v-10.954c0-4.875,3.953-8.828,8.828-8.828h10.954V245.695z"/>
	<rect x="246.1" y="225.91" style="fill:#FF4B55;" width="19.782" height="19.782"/>
	<rect x="208.52" y="265.48" style="fill:#FF4B55;" width="19.782" height="19.782"/>
	<rect x="283.7" y="265.48" style="fill:#FF4B55;" width="19.782" height="19.782"/>
	<path style="fill:#FF4B55;" d="M303.475,245.695h-19.781v-19.782h10.954c4.875,0,8.828,3.953,8.828,8.828v10.954H303.475z"/>
	<path style="fill:#FF4B55;" d="M272.83,341.478l-7.611-18.267c-2.889,1.025-5.984,1.611-9.219,1.611   c-3.235,0-6.33-0.587-9.219-1.611l-7.61,18.267c5.238,1.99,10.895,3.127,16.83,3.127S267.592,343.466,272.83,341.478z"/>
	<path style="fill:#FF4B55;" d="M220.977,329.102l15.473-12.377c-3.915-3.906-6.648-8.981-7.677-14.643l-19.071,5.449   C211.537,315.732,215.502,323.109,220.977,329.102z"/>
	<path style="fill:#FF4B55;" d="M302.296,307.53l-19.071-5.449c-1.028,5.662-3.762,10.737-7.677,14.643l15.473,12.377   C296.495,323.109,300.46,315.732,302.296,307.53z"/>
</g>
<g>
	<rect x="214.46" y="229.87" style="fill:#FFE15A;" width="7.913" height="11.869"/>
	<rect x="214.46" y="269.43" style="fill:#FFE15A;" width="7.913" height="11.869"/>
	<rect x="218.42" y="309" style="fill:#FFE15A;" width="7.913" height="11.869"/>
	<rect x="285.67" y="309" style="fill:#FFE15A;" width="7.913" height="11.869"/>
	<rect x="289.63" y="229.87" style="fill:#FFE15A;" width="7.913" height="11.869"/>
</g>
<g>
	<rect x="214.46" y="249.52" style="fill:#FF4B55;" width="7.913" height="11.869"/>
	<rect x="289.63" y="249.52" style="fill:#FF4B55;" width="7.913" height="11.869"/>
	<rect x="214.46" y="288.76" style="fill:#FF4B55;" width="7.913" height="11.869"/>
	<rect x="231.51" y="323.75" style="fill:#FF4B55;" width="7.913" height="11.869"/>
	<rect x="272.56" y="323.75" style="fill:#FF4B55;" width="7.913" height="11.869"/>
	<rect x="289.63" y="288.76" style="fill:#FF4B55;" width="7.913" height="11.869"/>
</g>
<rect x="252.04" y="229.87" style="fill:#FFE15A;" width="7.913" height="11.869"/>
<g>
	<rect x="233.25" y="229.87" style="fill:#FF4B55;" width="7.913" height="11.869"/>
	<rect x="270.51" y="229.87" style="fill:#FF4B55;" width="7.913" height="11.869"/>
</g>
<g>
	<rect x="289.63" y="269.43" style="fill:#FFE15A;" width="7.913" height="11.869"/>
	<rect x="252.04" y="328.78" style="fill:#FFE15A;" width="7.913" height="11.869"/>
	<path style="fill:#FFE15A;" d="M255.999,253.237c7.636,0,13.847,6.211,13.847,13.847s-6.212,13.847-13.847,13.847   c-7.636,0-13.847-6.211-13.847-13.847S248.363,253.237,255.999,253.237 M255.999,251.258c-8.74,0-15.826,7.085-15.826,15.826   s7.085,15.826,15.826,15.826c8.74,0,15.826-7.085,15.826-15.826C271.825,258.344,264.739,251.258,255.999,251.258L255.999,251.258z   "/>
</g>
<g>
	<path style="fill:#73AF00;" d="M253.609,265.972c-3.924,0-6.374,1.105-7.907,2.477c0.63-3.107,1.941-6.434,4.692-6.434   c0.546,0,0.989-0.445,0.989-0.989c0-0.545-0.442-0.989-0.989-0.989c-2.728,0-4.425,1.9-5.487,4.284   c-0.652-12.974-2.667-13.023-3.414-13.023c-0.546,0-0.989,0.445-0.989,0.989c0,0.476,0.332,0.87,0.779,0.966   c0.413,0.494,0.767,2.158,1.054,4.465c-1.28-2.718-3.14-4.689-5.871-4.689c-0.546,0-0.989,0.445-0.989,0.989   s0.442,0.989,0.989,0.989c2.701,0,4.36,3.295,5.35,7.254c-1.898-2.707-4.762-4.696-8.975-4.696c-0.546,0-0.989,0.445-0.989,0.989   s0.442,0.989,0.989,0.989c4.376,0,6.887,2.524,8.335,5.441c-1.697-1.437-4.117-2.474-7.594-2.474c-0.546,0-0.989,0.445-0.989,0.989   s0.442,0.989,0.989,0.989c9.411,0,9.559,8.855,9.56,9.234c0,0.143,0.098,0.245,0.153,0.369c0.05,0.108,0.052,0.242,0.135,0.324   l0.002,0.003c0.179,0.179,0.426,0.29,0.698,0.29h0.002c0.102-0.001,0.168-0.079,0.26-0.108c0.302-0.094,0.51-0.299,0.61-0.598   c0.033-0.097,0.116-0.167,0.117-0.275c0.004-0.236,0.17-5.777,8.49-5.777c0.546,0,0.989-0.445,0.989-0.989   C254.599,266.415,254.156,265.972,253.609,265.972z"/>
	<path style="fill:#73AF00;" d="M258.472,265.972c3.924,0,6.374,1.105,7.907,2.477c-0.63-3.107-1.941-6.434-4.692-6.434   c-0.546,0-0.989-0.445-0.989-0.989c0-0.545,0.443-0.989,0.989-0.989c2.728,0,4.425,1.9,5.487,4.284   c0.652-12.974,2.667-13.023,3.414-13.023c0.546,0,0.989,0.445,0.989,0.989c0,0.476-0.332,0.87-0.779,0.966   c-0.413,0.494-0.767,2.158-1.054,4.465c1.28-2.718,3.14-4.689,5.871-4.689c0.546,0,0.989,0.445,0.989,0.989   s-0.443,0.989-0.989,0.989c-2.701,0-4.36,3.295-5.35,7.254c1.898-2.707,4.762-4.696,8.975-4.696c0.546,0,0.989,0.445,0.989,0.989   s-0.442,0.989-0.989,0.989c-4.376,0-6.887,2.524-8.335,5.441c1.697-1.437,4.117-2.474,7.594-2.474c0.546,0,0.989,0.445,0.989,0.989   s-0.442,0.989-0.989,0.989c-9.411,0-9.559,8.855-9.56,9.234c0,0.143-0.098,0.245-0.153,0.369c-0.05,0.108-0.052,0.242-0.135,0.324   l-0.002,0.003c-0.179,0.179-0.426,0.29-0.698,0.29h-0.002c-0.102-0.001-0.168-0.079-0.26-0.108c-0.302-0.094-0.51-0.299-0.61-0.598   c-0.033-0.097-0.116-0.167-0.117-0.275c-0.003-0.236-0.17-5.777-8.49-5.777c-0.546,0-0.989-0.445-0.989-0.989   C257.483,266.415,257.926,265.972,258.472,265.972z"/>
</g>
<path style="fill:#FF4B55;" d="M240.733,271.04c1.764,6.814,7.901,11.869,15.266,11.869c7.366,0,13.501-5.055,15.266-11.869H240.733  L240.733,271.04z"/>
<g>
	<path style="fill:#FFE15A;" d="M255.999,282.91c7.366,0,13.501-5.055,15.266-11.869h-15.266L255.999,282.91L255.999,282.91z"/>
	<path style="fill:#FFE15A;" d="M255.999,289.091c7.636,0,13.847,6.211,13.847,13.847s-6.212,13.847-13.847,13.847   c-7.636,0-13.847-6.211-13.847-13.847S248.363,289.091,255.999,289.091 M255.999,287.113c-8.74,0-15.826,7.085-15.826,15.826   s7.085,15.826,15.826,15.826c8.74,0,15.826-7.085,15.826-15.826S264.739,287.113,255.999,287.113L255.999,287.113z"/>
</g>
<g>
	<path style="fill:#73AF00;" d="M253.609,301.826c-3.924,0-6.374,1.105-7.907,2.477c0.63-3.107,1.941-6.434,4.692-6.434   c0.546,0,0.989-0.445,0.989-0.989c0-0.545-0.442-0.989-0.989-0.989c-2.728,0-4.425,1.9-5.487,4.284   c-0.652-12.974-2.667-13.023-3.414-13.023c-0.546,0-0.989,0.445-0.989,0.989c0,0.476,0.332,0.87,0.779,0.966   c0.413,0.494,0.767,2.158,1.054,4.465c-1.28-2.718-3.14-4.689-5.871-4.689c-0.546,0-0.989,0.445-0.989,0.989   c0,0.545,0.442,0.989,0.989,0.989c2.701,0,4.36,3.295,5.35,7.254c-1.898-2.707-4.762-4.696-8.975-4.696   c-0.546,0-0.989,0.445-0.989,0.989c0,0.545,0.442,0.989,0.989,0.989c4.376,0,6.887,2.524,8.335,5.441   c-1.697-1.437-4.117-2.474-7.594-2.474c-0.546,0-0.989,0.445-0.989,0.989c0,0.545,0.442,0.989,0.989,0.989   c9.411,0,9.559,8.855,9.56,9.234c0,0.143,0.098,0.245,0.153,0.369c0.05,0.108,0.052,0.242,0.135,0.324l0.002,0.003   c0.179,0.179,0.426,0.29,0.698,0.29h0.002c0.102-0.001,0.168-0.079,0.26-0.108c0.302-0.094,0.51-0.299,0.61-0.598   c0.033-0.097,0.116-0.167,0.117-0.275c0.004-0.236,0.17-5.777,8.49-5.777c0.546,0,0.989-0.445,0.989-0.989   C254.599,302.27,254.156,301.826,253.609,301.826z"/>
	<path style="fill:#73AF00;" d="M258.472,301.826c3.924,0,6.374,1.105,7.907,2.477c-0.63-3.107-1.941-6.434-4.692-6.434   c-0.546,0-0.989-0.445-0.989-0.989c0-0.545,0.443-0.989,0.989-0.989c2.728,0,4.425,1.9,5.487,4.284   c0.652-12.974,2.667-13.023,3.414-13.023c0.546,0,0.989,0.445,0.989,0.989c0,0.476-0.332,0.87-0.779,0.966   c-0.413,0.494-0.767,2.158-1.054,4.465c1.28-2.718,3.14-4.689,5.871-4.689c0.546,0,0.989,0.445,0.989,0.989   c0,0.545-0.443,0.989-0.989,0.989c-2.701,0-4.36,3.295-5.35,7.254c1.898-2.707,4.762-4.696,8.975-4.696   c0.546,0,0.989,0.445,0.989,0.989c0,0.545-0.442,0.989-0.989,0.989c-4.376,0-6.887,2.524-8.335,5.441   c1.697-1.437,4.117-2.474,7.594-2.474c0.546,0,0.989,0.445,0.989,0.989c0,0.545-0.442,0.989-0.989,0.989   c-9.411,0-9.559,8.855-9.56,9.234c0,0.143-0.098,0.245-0.153,0.369c-0.05,0.108-0.052,0.242-0.135,0.324l-0.002,0.003   c-0.179,0.179-0.426,0.29-0.698,0.29h-0.002c-0.102-0.001-0.168-0.079-0.26-0.108c-0.302-0.094-0.51-0.299-0.61-0.598   c-0.033-0.097-0.116-0.167-0.117-0.275c-0.003-0.236-0.17-5.777-8.49-5.777c-0.546,0-0.989-0.445-0.989-0.989   C257.483,302.27,257.926,301.826,258.472,301.826z"/>
</g>
<path style="fill:#FF4B55;" d="M240.733,306.895c1.764,6.814,7.901,11.869,15.266,11.869c7.366,0,13.501-5.055,15.266-11.869  H240.733z"/>
<path style="fill:#FFE15A;" d="M255.999,318.764c7.366,0,13.501-5.055,15.266-11.869h-15.266L255.999,318.764L255.999,318.764z"/>
<g>
	<polygon style="fill:#F5F5F5;" points="200.609,237.782 200.609,229.869 180.828,229.869 180.828,237.782 184.785,237.782    184.785,324.822 180.828,324.822 180.828,332.735 184.785,332.735 196.653,332.735 200.609,332.735 200.609,324.822    196.653,324.822 196.653,237.782  "/>
	<polygon style="fill:#F5F5F5;" points="331.17,237.782 331.17,229.869 311.388,229.869 311.388,237.782 315.345,237.782    315.345,324.822 311.388,324.822 311.388,332.735 315.345,332.735 327.213,332.735 331.17,332.735 331.17,324.822 327.213,324.822    327.213,237.782  "/>
</g>
<path style="fill:#FFE15A;" d="M299.519,225.913h-87.04c-4.37,0-7.913-3.543-7.913-7.913l0,0c0-4.37,3.543-7.913,7.913-7.913h87.04  c4.37,0,7.913,3.543,7.913,7.913l0,0C307.432,222.37,303.889,225.913,299.519,225.913z"/>
<path style="fill:#FF4B55;" d="M258.966,220.968h-5.934c-1.639,0-2.967-1.329-2.967-2.967l0,0c0-1.639,1.329-2.967,2.967-2.967  h5.934c1.639,0,2.967,1.329,2.967,2.967l0,0C261.933,219.639,260.605,220.968,258.966,220.968z"/>
<g>
	<path style="fill:#73AF00;" d="M288.639,220.968h-5.934c-1.639,0-2.967-1.329-2.967-2.967l0,0c0-1.639,1.329-2.967,2.967-2.967   h5.934c1.639,0,2.967,1.329,2.967,2.967l0,0C291.606,219.639,290.277,220.968,288.639,220.968z"/>
	<path style="fill:#73AF00;" d="M229.293,220.968h-5.934c-1.639,0-2.967-1.329-2.967-2.967l0,0c0-1.639,1.329-2.967,2.967-2.967   h5.934c1.639,0,2.967,1.329,2.967,2.967l0,0C232.26,219.639,230.932,220.968,229.293,220.968z"/>
</g>
<path style="fill:#FFE15A;" d="M311.554,193.685l-5.77,1.978l0.556,5.504c-6.372,7.241-9.57,7.708-10.887,7.25  c-1.63-0.563-2.381-2.886-2.684-4.666l2.381,2.381c11.869-11.869,5.069-29.302,5.069-29.302c-3.338,0.618-4.822,3.709-4.822,3.709  c-3.091-0.247-6.305,0-6.305,0c-0.247,2.72,0.742,6.552,0.742,6.552c-6.785,1.399-9.578,5.076-9.578,5.076  c1.164,3.258,4.881,6.051,4.881,6.051c-1.112,2.72,0.247,5.934,0.247,5.934c1.698,0,3.167-0.512,4.206-1.014  c-4.431,5.524-6.517,5.656-7.224,5.39c-2.141-0.794-2.684-7.117-2.383-11.353c0.031-0.433-0.226-0.836-0.631-0.993  c-0.402-0.151-0.864-0.028-1.134,0.313l-3.412,4.35c-14.238-18.969-2.98-30.322-2.98-30.322v-7.913h-3.956v3.956h-3.391v-3.956  h-3.391v3.956h-3.391v-3.956h-3.391v3.956h-3.391v-3.956h-3.391v3.956h-3.391v-3.956h-3.956v7.913c0,0,11.257,11.351-2.98,30.322  l-3.412-4.35c-0.27-0.344-0.733-0.471-1.134-0.313c-0.406,0.157-0.662,0.561-0.631,0.993c0.301,4.236-0.239,10.558-2.383,11.353  c-0.71,0.257-2.799,0.13-7.239-5.409c1.041,0.51,2.522,1.034,4.243,1.034c0,0,1.359-3.214,0.247-5.934c0,0,3.716-2.793,4.881-6.051  c0,0-2.793-3.677-9.578-5.076c0,0,0.989-3.832,0.742-6.552c0,0-3.214-0.247-6.305,0c0,0-1.484-3.091-4.822-3.709  c0,0-6.801,17.432,5.069,29.302l2.354-2.354c-0.306,1.778-1.057,4.079-2.679,4.64c-1.324,0.459-4.511-0.008-10.867-7.226  l0.558-5.527l-5.77-1.978c-2.967-8.984-10.056-7.913-10.056-7.913c4.698,4.039,5.687,14.342,5.687,14.342l12.199,11.869l0.66-1.896  c-0.273-1.585-0.697-2.825-1.154-3.829c3.827,3.535,6.934,4.888,9.393,4.026c2.414-0.836,3.438-3.564,3.871-5.623  c3.245,4.01,5.852,5.94,8.029,5.94c0.425,0,0.833-0.074,1.225-0.221c3.111-1.151,3.711-6.639,3.755-10.306l2.143,2.732v7.281h15.826  c0-2.185,1.771-3.956,3.956-3.956c2.185,0,3.956,1.771,3.956,3.956h15.826v-7.281l2.143-2.732c0.044,3.667,0.646,9.155,3.755,10.306  c0.392,0.147,0.8,0.221,1.225,0.221c2.177,0,4.783-1.932,8.029-5.94c0.433,2.059,1.457,4.787,3.871,5.623  c2.471,0.862,5.588-0.499,9.429-4.057c-0.461,1.01-0.893,2.259-1.169,3.861l0.66,1.896l12.199-11.869c0,0,0.989-10.303,5.687-14.342  C321.61,185.772,314.521,184.701,311.554,193.685z"/>
<g>
	<path style="fill:#F5F5F5;" d="M241.162,220.968L241.162,220.968c-1.639,0-2.967-1.329-2.967-2.967l0,0   c0-1.639,1.329-2.967,2.967-2.967l0,0c1.639,0,2.967,1.329,2.967,2.967l0,0C244.13,219.639,242.802,220.968,241.162,220.968z"/>
	<path style="fill:#F5F5F5;" d="M270.835,220.968L270.835,220.968c-1.639,0-2.967-1.329-2.967-2.967l0,0   c0-1.639,1.329-2.967,2.967-2.967l0,0c1.639,0,2.967,1.329,2.967,2.967l0,0C273.802,219.639,272.473,220.968,270.835,220.968z"/>
</g>
<g>
	<path style="fill:#FF4B55;" d="M300.508,220.968L300.508,220.968c-1.639,0-2.967-1.329-2.967-2.967l0,0   c0-1.639,1.329-2.967,2.967-2.967l0,0c1.639,0,2.967,1.329,2.967,2.967l0,0C303.475,219.639,302.146,220.968,300.508,220.968z"/>
	<path style="fill:#FF4B55;" d="M211.489,220.968L211.489,220.968c-1.639,0-2.967-1.329-2.967-2.967l0,0   c0-1.639,1.329-2.967,2.967-2.967l0,0c1.639,0,2.967,1.329,2.967,2.967l0,0C214.457,219.639,213.129,220.968,211.489,220.968z"/>
</g>
<g>
	<circle style="fill:#F5F5F5;" cx="256" cy="186.35" r="3.956"/>
	
		<ellipse transform="matrix(-0.9696 0.2447 -0.2447 -0.9696 473.1985 326.9203)" style="fill:#F5F5F5;" cx="216.291" cy="192.855" rx="2.556" ry="2.967"/>
	
		<ellipse transform="matrix(0.9696 0.2447 -0.2447 0.9696 56.1821 -66.5058)" style="fill:#F5F5F5;" cx="295.745" cy="192.853" rx="2.556" ry="2.967"/>
	<path style="fill:#F5F5F5;" d="M208.522,264.186c-3.737-0.707-8.716-1.223-14.182-0.646c-5.353,0.564-11.605,2.228-17.47,6.212   v25.061c8.189-19.793,26.451-15.967,31.651-14.397v-16.23H208.522z"/>
	<path style="fill:#F5F5F5;" d="M303.475,264.186c3.737-0.707,8.716-1.223,14.182-0.646c5.353,0.564,11.605,2.228,17.47,6.212   v25.061c-8.189-19.793-26.451-15.967-31.651-14.397v-16.23H303.475z"/>
</g>
<path style="fill:#FF4B55;" d="M234.411,331.147c0,0-4.263,6.69-6.421,7.338c0,0-2.925,2.131-3.519,1.916l10.264-11.897  L234.411,331.147z"/>
<path style="fill:#73AF00;" d="M234.036,335.009c-2.006-0.215-3.583,0.931-4.586,2.293s-3.705,1.81-3.985,0.041  c-0.252-1.591,5.353-6.563,5.353-6.563s-0.931-1.676-3.491-1.024c-2.434,0.62-4.828,4.536-4.828,4.536s-2.433-0.952-4.388,0.676  l-8.367,9.571c0,0,10.278,8.78,23.361-4.157l-2.221-0.717C231.599,336.945,234.036,335.009,234.036,335.009z"/>
<g>
	<circle style="fill:#F5F5F5;" cx="221.69" cy="337.48" r="0.971"/>
	<path style="fill:#F5F5F5;" d="M180.828,168.185c12.153-0.042,24.213,2.082,35.607,6.295v-12.397   c-11.436-3.943-23.487-5.815-35.607-5.519V168.185z"/>
	<path style="fill:#F5F5F5;" d="M279.737,154.699c-15.604-3.746-31.873-3.746-47.476,0c0-3.956,0-7.913,0-11.869   c15.604-3.746,31.873-3.746,47.476,0C279.737,146.786,279.737,150.742,279.737,154.699z"/>
	<path style="fill:#F5F5F5;" d="M236.217,145.655c-9.679,0.899-19.213,3.166-28.301,6.795c0.569,3.915,1.138,7.831,1.707,11.746   c8.552-3.415,17.503-5.598,26.594-6.599V145.655z"/>
	<path style="fill:#F5F5F5;" d="M176.872,181.735c5.39-1.505,10.878-2.614,16.433-3.224v-11.943   c-5.548,0.515-11.036,1.534-16.433,2.946V181.735z"/>
	<path style="fill:#F5F5F5;" d="M331.17,168.185c-12.153-0.042-24.213,2.082-35.607,6.295v-12.397   c11.436-3.943,23.487-5.815,35.607-5.519V168.185z"/>
	<path style="fill:#F5F5F5;" d="M275.78,145.655c9.679,0.899,19.213,3.166,28.301,6.795c-0.569,3.915-1.138,7.831-1.707,11.746   c-8.552-3.415-17.503-5.598-26.594-6.599V145.655L275.78,145.655z"/>
	<path style="fill:#F5F5F5;" d="M335.126,181.735c-5.39-1.505-10.878-2.614-16.433-3.224v-11.943   c5.548,0.515,11.036,1.534,16.433,2.946V181.735z"/>
</g>
<g>
</g>
<g>
</g>
<g>
</g>
<g>
</g>
<g>
</g>
<g>
</g>
<g>
</g>
<g>
</g>
<g>
</g>
<g>
</g>
<g>
</g>
<g>
</g>
<g>
</g>
<g>
</g>
<g>
</g>
</svg>
