<svg xmlns="http://www.w3.org/2000/svg" viewBox="0 0 85.981 85.943">
  <defs>
    <style>
      .cls-1 {
        opacity: 0.7;
      }

      .cls-2 {
        fill: #ced6dd;
      }
    </style>
  </defs>
  <g id="Group_33" data-name="Group 33" class="cls-1" transform="translate(-48.529 -48.529)">
    <path id="Path_13" data-name="Path 13" class="cls-2" d="M91.3,77.9,89,87.3c2.7.7,10.9,3.4,12.2-2C102.5,79.8,94,78.5,91.3,77.9Z"/>
    <path id="Path_14" data-name="Path 14" class="cls-2" d="M87.8,92l-2.6,10.4c3.2.8,13.1,4,14.5-1.9C101.2,94.4,91,92.8,87.8,92Z"/>
    <path id="Path_15" data-name="Path 15" class="cls-2" d="M101.9,49.8a42.977,42.977,0,1,0,31.3,52.1A43.029,43.029,0,0,0,101.9,49.8Zm8.6,35.6h0c-.6,4.2-2.9,6.2-6,6.9,4.2,2.2,6.4,5.6,4.3,11.4-2.5,7.3-8.6,7.9-16.6,6.4l-2,7.8-4.7-1.2,1.9-7.7c-1.2-.3-2.5-.6-3.8-1l-1.9,7.8L77,114.6l2-7.8c-1.1-.3-2.2-.6-3.4-.9l-6.1-1.5L71.8,99s3.5.9,3.4.9a1.818,1.818,0,0,0,2.2-1.1l3.1-12.4c.2,0,.3.1.5.1-.2-.1-.4-.1-.5-.2l2.2-8.8a2.414,2.414,0,0,0-2.2-2.7c.1,0-3.4-.9-3.4-.9l1.3-5,6.5,1.6h0c1,.2,2,.5,3,.7l1.9-7.7,4.7,1.2-1.9,7.6c1.3.3,2.5.6,3.8.9l1.9-7.5,4.7,1.2-1.9,7.8C107,76.6,111.3,79.7,110.5,85.4Z"/>
  </g>
</svg>
