<svg xmlns="http://www.w3.org/2000/svg" viewBox="0 0 20.748 30.803">
  <defs>
    <style>
      .cls-1 {
        opacity: 0.7;
      }

      .cls-2 {
        fill: #ced6dd;
      }
    </style>
  </defs>
  <g id="Group_22" data-name="Group 22" class="cls-1" transform="translate(0 0)">
    <path id="Path_10" data-name="Path 10" class="cls-2" d="M48.942,60.4h0a1.325,1.325,0,0,1-.45-.113l-9.573-6.025a.577.577,0,0,1-.282-.338c0-.056-.056-.113-.056-.169,0-.113-.056-.225,0-.338h0v-.056l3.1-14.247a.487.487,0,0,1,.169-.338l6.476-8.841a.845.845,0,0,1,1.351,0l6.363,8.9.056.056h0a.055.055,0,0,0,.056.056c0,.056.056.113.056.169l3.1,14.247v.056h0v.338c0,.056-.056.113-.056.169a1.493,1.493,0,0,1-.282.338L49.392,60.29A1.325,1.325,0,0,1,48.942,60.4Zm-6.757-6.025,5.35,3.322-1.07-3.322Zm9.291,0L50.406,57.7l5.35-3.322Zm-3.322,0,.788,2.534.788-2.534ZM51.983,52.8h5.181l-3.322-5.856Zm-4.392,0h2.647l2.534-7.771-3.829-6.757-3.829,6.757Zm-6.87,0H45.9l-1.858-5.856Zm13.8-8L56.6,48.521l-1.351-6.138ZM42.635,42.439l-1.351,6.138,2.084-3.717Zm7.1-5.969,3.66,6.476,1.126-3.435L49.73,33.035Zm-6.363,2.985,1.126,3.435,3.66-6.476V32.922Z" transform="translate(-38.556 -29.6)"/>
  </g>
</svg>
