<?xml version="1.0" standalone="no"?>
<!DOCTYPE svg PUBLIC "-//W3C//DTD SVG 20010904//EN"
 "http://www.w3.org/TR/2001/REC-SVG-20010904/DTD/svg10.dtd">
<svg version="1.0" xmlns="http://www.w3.org/2000/svg"
 width="841.000000pt" height="841.000000pt" viewBox="0 0 841.000000 841.000000"
 preserveAspectRatio="xMidYMid meet">
<metadata>
Created by potrace 1.11, written by Peter Selinger 2001-2013
</metadata>
<g transform="translate(0.000000,841.000000) scale(0.100000,-0.100000)"
fill="#000000" stroke="none">
<path d="M5368 8233 c-18 -5 -32 -30 -20 -37 4 -2 6 -792 4 -1756 -1 -1047 -6
-1749 -11 -1745 -5 3 -12 -1 -14 -7 -3 -8 -6 -6 -6 5 -1 11 -6 15 -13 11 -8
-5 -9 0 -5 15 3 13 3 20 0 17 -8 -8 -44 14 -39 23 3 5 -12 27 -34 50 -22 23
-38 47 -35 52 4 5 -1 12 -10 15 -11 4 -15 14 -12 26 4 15 2 18 -10 14 -13 -5
-14 -4 -3 9 11 13 10 14 -3 10 -8 -4 -18 -1 -23 6 -5 8 -3 10 5 4 9 -5 9 -1
-1 14 -7 12 -21 24 -31 27 -13 4 -16 9 -9 16 12 12 -8 38 -30 38 -10 0 -9 3 2
10 12 8 12 10 -5 11 -11 0 -15 3 -8 6 10 3 10 7 0 18 -7 7 -16 10 -21 7 -5 -3
-7 5 -4 16 4 12 1 25 -4 29 -7 3 -8 1 -4 -5 4 -7 2 -12 -3 -12 -6 0 -11 5 -11
11 0 5 -6 7 -12 3 -8 -5 -7 0 2 11 9 11 10 16 3 11 -8 -4 -13 -1 -13 8 0 9 -5
16 -11 16 -6 0 -9 7 -6 15 4 8 1 17 -5 21 -7 4 -8 3 -4 -4 4 -7 2 -12 -3 -12
-6 0 -11 9 -11 20 0 11 -4 20 -10 20 -5 0 -10 6 -10 14 0 7 -10 21 -22 30 -13
9 -17 14 -10 11 16 -8 16 3 -1 19 -7 7 -19 11 -27 9 -11 -3 -10 -1 2 7 18 11
20 9 -54 89 -16 17 -28 38 -28 47 0 14 -2 15 -17 3 -15 -13 -15 -12 -4 9 9 18
9 22 -1 20 -7 -2 -12 5 -12 14 1 10 -4 14 -13 11 -10 -4 -14 0 -11 13 2 11 -2
18 -9 16 -8 -1 -13 9 -13 24 0 21 -3 24 -13 15 -11 -8 -13 -6 -13 12 1 12 -4
22 -11 22 -6 0 -15 4 -20 9 -5 5 -3 6 5 2 18 -10 15 2 -7 30 -10 13 -22 20
-26 16 -4 -4 -2 4 5 18 12 23 12 24 -3 11 -15 -12 -17 -11 -17 8 0 13 -6 21
-16 21 -14 0 -15 2 -3 17 10 11 10 14 2 9 -12 -7 -18 5 -14 27 1 5 -3 6 -9 2
-6 -3 -7 -12 -3 -18 4 -8 1 -7 -9 1 -9 7 -15 22 -13 33 3 12 0 17 -7 13 -8 -5
-9 -1 -4 11 6 16 4 16 -11 4 -9 -8 -14 -9 -10 -2 9 14 -2 45 -14 37 -5 -3 -9
-1 -9 5 0 5 6 12 13 15 6 4 2 4 -11 2 -12 -2 -20 -1 -18 2 7 12 -13 53 -23 48
-5 -4 -8 5 -6 19 1 14 0 23 -3 21 -7 -8 -33 22 -30 36 2 7 -7 14 -20 16 -20 3
-21 6 -10 20 10 12 10 14 1 8 -12 -7 -18 10 -14 39 1 6 -6 1 -15 -10 -15 -18
-16 -18 -10 -1 4 13 -2 26 -20 43 -14 13 -23 30 -20 38 3 8 0 14 -7 12 -7 -1
-11 4 -9 11 1 8 -2 11 -8 7 -5 -3 -10 -1 -10 5 0 6 -5 8 -12 4 -9 -5 -9 -2 1
9 9 12 10 17 2 17 -7 0 -9 5 -6 10 4 6 3 10 -2 9 -4 -1 -14 -1 -22 0 -11 1
-11 4 0 18 8 9 9 14 3 10 -11 -7 -29 19 -25 36 1 5 -8 11 -19 14 -17 5 -18 8
-8 22 7 9 9 13 5 10 -5 -4 -19 4 -33 18 -25 25 -32 39 -12 27 7 -4 8 -3 4 4
-4 6 -14 8 -23 5 -11 -4 -14 -3 -9 5 4 7 2 12 -4 12 -6 0 -8 5 -5 10 3 6 1 10
-4 10 -6 0 -11 7 -11 15 0 9 -7 18 -16 22 -8 3 -13 11 -10 19 3 7 -3 18 -12
26 -16 12 -16 11 -2 -7 14 -19 14 -19 -3 -6 -13 10 -14 17 -7 26 8 10 8 15 -1
21 -8 4 -9 3 -5 -4 4 -7 3 -12 -2 -12 -6 0 -13 7 -16 16 -9 22 -8 26 6 18 7
-4 8 -3 4 4 -4 6 -14 8 -23 5 -11 -4 -14 -3 -9 5 4 7 2 12 -4 12 -6 0 -8 5 -5
10 3 6 1 10 -5 10 -6 0 -8 5 -5 10 3 6 -1 13 -9 16 -9 3 -16 13 -16 21 0 10
-6 13 -16 9 -14 -5 -15 -4 -4 9 10 12 10 15 -4 15 -9 0 -16 8 -16 18 0 9 -11
26 -25 36 -14 11 -24 24 -22 30 6 14 -18 37 -29 28 -4 -4 -4 -2 0 5 3 6 -2 16
-11 22 -14 8 -15 11 -3 11 12 0 11 3 -3 11 -9 6 -15 14 -12 19 3 5 1 11 -5 15
-6 4 -7 11 -4 17 4 7 2 8 -5 4 -9 -6 -9 -11 -1 -21 8 -9 8 -15 0 -20 -6 -4
-10 -3 -9 2 1 7 0 11 -6 31 -2 4 -6 17 -10 29 -4 11 -16 24 -28 27 -18 4 -19
7 -6 22 12 16 12 17 -4 11 -11 -4 -16 -3 -12 3 3 6 -1 13 -10 16 -12 5 -13 9
-4 21 7 8 8 13 3 12 -19 -3 -34 1 -34 12 0 5 5 7 12 3 7 -4 8 -3 4 4 -4 7 -14
12 -22 12 -8 0 -14 10 -14 23 0 18 -2 19 -10 7 -8 -13 -10 -12 -10 4 0 10 -11
27 -25 37 -13 11 -22 25 -19 32 2 7 -7 20 -20 30 -14 11 -22 25 -19 33 3 8 0
14 -7 14 -10 0 -10 3 -1 14 10 12 9 14 -6 10 -14 -4 -21 3 -28 28 -6 18 -16
32 -22 31 -7 -2 -17 13 -24 32 -7 19 -17 31 -23 28 -5 -4 -7 1 -3 10 3 9 1 19
-5 23 -6 4 -8 3 -4 -4 3 -6 3 -13 -2 -16 -4 -2 -9 5 -9 17 -1 12 -7 23 -13 25
-5 2 -8 8 -4 13 3 5 -2 9 -12 9 -14 0 -15 2 -3 18 7 9 10 14 5 10 -5 -4 -17
-3 -28 3 -16 8 -17 13 -7 25 10 12 9 13 -6 7 -14 -5 -17 -3 -12 9 3 10 0 19
-9 22 -8 3 -14 11 -14 18 0 9 3 9 11 -2 9 -13 10 -13 6 0 -2 8 -12 14 -22 12
-10 -2 -14 1 -10 7 3 6 -1 14 -10 17 -11 5 -13 9 -5 14 7 5 6 11 -6 21 -12 9
-15 10 -10 2 4 -7 2 -13 -3 -13 -15 0 -14 13 2 29 10 10 9 12 -3 9 -9 -2 -14
3 -12 12 2 8 1 12 -3 8 -4 -4 -14 -1 -21 7 -17 17 -18 29 -2 19 7 -4 8 -3 4 4
-4 6 -13 9 -22 5 -8 -3 -14 -2 -13 3 4 22 -2 34 -18 35 -10 0 -13 3 -6 5 15 7
5 34 -12 34 -8 0 -17 5 -21 12 -4 7 -3 8 5 4 8 -6 8 -1 0 18 -7 14 -16 23 -20
20 -5 -3 -11 7 -15 21 -3 14 -11 25 -17 25 -6 0 -7 3 -4 6 4 4 -8 20 -26 37
-17 16 -24 24 -14 17 15 -11 17 -10 11 4 -3 9 -13 16 -21 16 -10 0 -13 6 -9
16 5 12 2 15 -10 10 -14 -5 -15 -4 -5 8 9 11 9 16 0 22 -8 4 -9 3 -5 -4 4 -7
2 -12 -3 -12 -10 0 -16 30 -12 54 1 5 -6 3 -15 -5 -12 -9 -15 -9 -10 -1 4 6 2
12 -3 12 -6 0 -11 10 -11 23 0 18 -2 19 -10 7 -8 -13 -10 -12 -10 3 0 23 -26
51 -35 37 -4 -6 -13 -7 -23 -1 -12 6 -24 5 -36 -5 -10 -7 -23 -11 -27 -8 -5 3
-9 0 -9 -6 0 -6 -4 -8 -10 -5 -6 3 -10 0 -10 -7 -1 -8 -7 -5 -17 7 -11 14 -14
15 -10 3 5 -16 -22 -32 -49 -29 -7 1 -15 -6 -18 -15 -5 -14 -9 -14 -23 -3 -9
8 -14 9 -11 4 4 -6 -5 -15 -18 -22 -15 -7 -22 -7 -18 -1 4 6 1 8 -7 6 -8 -3
-13 -11 -11 -17 1 -7 -2 -10 -8 -6 -5 3 -10 0 -10 -7 0 -10 -2 -10 -9 0 -7 11
-13 9 -31 -10 -13 -12 -20 -18 -16 -11 5 10 -12 11 -34 3 -3 -1 -8 -2 -12 -1
-4 0 -5 -5 -2 -13 3 -9 -1 -13 -13 -13 -10 1 -17 -3 -16 -9 1 -7 -6 -10 -17
-7 -11 3 -20 0 -20 -6 0 -6 -11 -11 -25 -11 -17 0 -25 -6 -25 -17 0 -14 -2
-15 -9 -4 -6 9 -11 10 -15 2 -4 -6 -4 -16 -1 -21 8 -13 -18 -8 -27 5 -5 6 -8
5 -8 -2 0 -7 -9 -13 -21 -13 -11 0 -18 -4 -15 -9 3 -4 -5 -7 -19 -6 -16 2 -22
-1 -18 -11 3 -9 -1 -12 -15 -9 -14 2 -26 -5 -37 -21 -13 -20 -19 -22 -35 -14
-16 8 -18 8 -14 -4 3 -8 0 -17 -7 -22 -8 -4 -10 -3 -5 4 13 21 -5 12 -31 -15
-15 -16 -23 -23 -19 -16 3 6 2 15 -4 18 -6 4 -10 3 -9 -2 3 -20 -2 -34 -11
-28 -5 3 -10 1 -10 -5 0 -7 -8 -9 -20 -5 -14 4 -20 2 -18 -7 2 -7 -8 -14 -21
-16 -19 -3 -21 -6 -10 -13 10 -6 8 -9 -11 -10 -14 -1 -29 -1 -34 0 -5 1 -3 -5
4 -14 11 -13 10 -15 -4 -9 -10 4 -18 0 -22 -10 -3 -9 -13 -16 -21 -16 -8 0
-11 -5 -7 -11 4 -8 0 -8 -15 0 -12 7 -21 8 -20 4 4 -23 -3 -31 -22 -28 -17 3
-19 1 -9 -10 8 -10 8 -15 -1 -21 -8 -5 -9 -3 -4 6 5 8 3 11 -6 8 -8 -3 -13
-10 -12 -16 1 -5 -5 -9 -15 -8 -9 0 -16 -5 -14 -12 2 -10 -2 -10 -19 -2 -19
11 -20 10 -8 -12 11 -20 10 -22 -3 -10 -13 10 -17 10 -22 -3 -3 -9 -10 -13
-16 -10 -9 5 -14 -7 -12 -26 1 -4 -9 -5 -21 -2 -18 4 -20 3 -7 -7 12 -10 11
-11 -8 -7 -12 3 -20 1 -16 -4 3 -5 -2 -9 -11 -9 -12 0 -15 -5 -11 -16 6 -15 4
-15 -11 -3 -11 9 -14 10 -9 2 4 -8 2 -13 -4 -13 -6 0 -8 -4 -5 -10 3 -5 -1
-10 -10 -10 -10 0 -13 5 -9 12 4 7 3 8 -4 4 -9 -5 -9 -13 -1 -29 7 -12 8 -19
4 -15 -4 4 -14 0 -22 -10 -13 -15 -13 -14 -3 8 10 24 10 23 -13 -4 -17 -19
-29 -26 -38 -20 -11 6 -11 5 0 -9 12 -15 12 -17 -2 -12 -8 4 -18 1 -23 -6 -5
-8 -3 -10 6 -4 9 5 11 4 6 -3 -4 -7 -17 -12 -29 -12 -16 0 -18 -3 -9 -9 10 -6
8 -10 -8 -14 -15 -4 -19 -10 -14 -19 5 -9 2 -8 -11 2 -15 12 -17 12 -10 1 6
-11 4 -13 -8 -8 -11 4 -14 2 -11 -8 4 -10 0 -13 -16 -10 -19 4 -20 2 -8 -12
11 -14 11 -16 -1 -8 -11 6 -13 4 -8 -9 6 -14 3 -15 -14 -5 -19 10 -20 9 -8
-13 11 -20 10 -21 -3 -11 -15 13 -28 8 -28 -11 0 -6 5 -4 10 4 5 8 10 10 10 4
0 -19 -13 -24 -28 -11 -13 10 -14 9 -3 -11 12 -22 11 -23 -7 -13 -18 9 -20 8
-18 -13 3 -20 -1 -23 -20 -21 -15 1 -21 -2 -17 -11 3 -8 -1 -14 -11 -14 -10 0
-13 -6 -10 -15 5 -12 2 -14 -12 -8 -17 6 -18 5 -4 -12 14 -17 14 -18 -8 -6
-23 12 -23 12 -11 -11 6 -13 8 -20 4 -16 -4 4 -14 0 -22 -10 -13 -15 -13 -14
-3 8 10 22 10 23 -3 8 -8 -10 -18 -14 -22 -10 -4 4 -2 -3 4 -15 9 -19 9 -22
-3 -17 -8 3 -17 0 -22 -7 -5 -8 -3 -10 7 -4 12 7 12 6 1 -7 -8 -10 -21 -14
-30 -11 -13 4 -12 2 3 -11 20 -17 20 -17 -2 -13 -20 4 -21 3 -12 -15 10 -18 9
-19 -11 -8 -15 8 -20 8 -16 1 4 -6 2 -11 -3 -11 -6 0 -11 -4 -11 -10 0 -5 8
-7 18 -4 14 5 15 4 2 -5 -8 -6 -24 -11 -35 -11 -17 0 -18 -2 -5 -11 12 -9 11
-10 -7 -6 -16 4 -20 1 -16 -11 5 -12 2 -14 -13 -8 -15 6 -16 5 -7 -5 10 -10 9
-16 -4 -31 -9 -10 -23 -18 -32 -18 -14 0 -14 -2 -1 -10 10 -6 11 -10 3 -10 -7
0 -13 -7 -13 -15 0 -8 -4 -15 -10 -15 -7 0 -10 -875 -10 -2605 0 -2077 3
-2605 13 -2605 9 0 8 -3 -2 -9 -11 -7 -9 -10 9 -16 18 -6 20 -9 9 -16 -11 -7
-10 -9 5 -9 12 0 16 -5 13 -15 -4 -8 -2 -17 3 -20 4 -3 11 1 13 7 3 7 6 3 6
-9 1 -12 5 -25 11 -28 6 -3 7 1 4 9 -3 9 -1 16 5 16 6 0 10 -3 10 -7 -4 -27 4
-45 27 -53 15 -6 22 -14 18 -22 -5 -7 -2 -9 8 -5 22 8 30 -3 15 -21 -10 -13
-9 -14 1 -8 7 4 15 1 18 -9 6 -14 9 -14 16 -3 7 9 8 6 5 -10 -5 -20 -3 -22 11
-10 9 7 13 8 9 2 -10 -17 22 -57 37 -45 8 7 12 4 13 -11 2 -27 14 -39 41 -41
11 0 18 -5 16 -9 -3 -5 2 -11 11 -14 10 -4 15 -14 12 -25 -4 -13 0 -16 15 -14
12 3 18 2 15 -2 -4 -3 1 -12 11 -20 9 -8 11 -11 3 -7 -10 5 -12 3 -7 -5 5 -7
15 -10 24 -6 9 3 13 3 9 -1 -4 -5 3 -14 15 -22 14 -8 16 -11 5 -8 -11 3 -15 2
-12 -4 3 -6 16 -10 28 -11 12 0 16 -3 10 -6 -7 -2 -13 -9 -13 -14 0 -6 4 -8 9
-5 14 9 39 -3 46 -22 5 -13 1 -12 -17 4 -13 11 -18 12 -10 3 6 -9 8 -19 4 -23
-4 -4 -2 -6 4 -4 18 6 84 -36 84 -54 0 -9 10 -20 22 -24 12 -3 32 -19 46 -35
13 -16 32 -29 43 -29 10 0 23 -9 29 -21 9 -16 14 -18 26 -8 13 10 14 8 10 -13
-3 -21 -1 -25 13 -21 10 2 24 -4 32 -13 12 -15 12 -16 0 -9 -10 5 -12 4 -7 -4
6 -9 11 -9 24 1 12 10 14 10 8 0 -6 -11 4 -16 25 -14 4 1 5 -9 3 -21 -2 -12
-1 -16 2 -9 4 9 12 5 28 -15 21 -28 53 -45 41 -21 -4 7 5 -2 20 -20 15 -18 31
-30 36 -26 5 3 12 -1 15 -10 3 -8 12 -12 19 -10 7 3 16 0 21 -7 5 -8 3 -10 -6
-4 -8 5 -11 4 -6 -3 4 -6 13 -9 21 -5 10 3 15 -1 15 -12 0 -15 2 -16 17 -4 11
10 14 10 9 2 -4 -8 -2 -13 4 -13 6 0 8 -5 4 -12 -5 -8 -2 -8 10 1 15 12 17 12
14 0 -2 -8 5 -14 16 -14 11 0 21 -6 24 -13 2 -6 8 -10 13 -6 5 3 9 0 9 -6 0
-6 5 -8 12 -4 7 4 8 3 4 -5 -7 -11 32 -33 46 -25 4 3 12 -5 18 -16 10 -18 14
-19 28 -8 9 7 14 9 10 4 -3 -4 2 -16 13 -27 24 -24 30 -24 22 -1 -4 12 -1 11
14 -6 11 -12 26 -22 33 -22 7 0 10 -7 6 -17 -6 -15 -4 -15 14 2 18 17 20 17
20 1 0 -9 4 -15 9 -12 5 4 11 2 13 -4 1 -5 13 -11 26 -13 13 -2 27 -9 31 -16
4 -6 14 -10 22 -8 8 2 11 2 7 0 -4 -3 -2 -10 5 -18 9 -9 14 -10 19 -1 6 8 8 8
8 -1 0 -7 10 -17 21 -24 15 -8 19 -8 15 0 -12 19 2 12 25 -12 12 -12 19 -17
15 -10 -4 7 4 6 24 -3 16 -9 34 -13 39 -10 5 4 17 -4 25 -16 11 -15 16 -18 16
-8 0 9 3 11 8 5 4 -5 18 -16 31 -23 19 -11 22 -11 16 0 -6 10 -5 11 6 1 7 -7
21 -13 32 -13 12 0 16 -4 11 -12 -6 -10 -4 -10 8 0 13 10 17 10 23 -5 5 -10 7
-22 6 -26 -1 -5 3 -6 9 -2 6 3 7 11 4 17 -8 13 12 2 38 -19 11 -10 18 -11 23
-4 3 6 12 11 18 11 7 0 6 -4 -3 -10 -12 -8 -10 -10 10 -11 14 -1 31 -2 38 -2
6 1 12 -2 12 -6 0 -4 6 -8 13 -8 11 0 13 307 13 1740 -1 956 1 1742 4 1746 3
4 14 11 24 14 17 7 17 6 5 -10 -12 -15 -12 -16 5 -10 12 5 17 3 13 -5 -5 -15
17 -40 27 -31 3 4 6 -1 6 -10 0 -10 5 -17 11 -17 8 0 7 -5 -1 -16 -8 -8 -9
-14 -4 -13 19 3 34 -1 34 -12 0 -5 -5 -7 -12 -3 -7 4 -8 3 -4 -4 4 -7 14 -12
22 -12 8 0 14 -9 14 -20 0 -11 5 -20 11 -20 6 0 8 -9 4 -22 -5 -17 -4 -19 3
-9 9 12 13 12 26 -2 12 -11 13 -17 3 -20 -7 -3 -4 -6 7 -6 12 -1 16 -6 12 -16
-3 -9 4 -21 20 -31 14 -10 23 -23 20 -31 -4 -9 -1 -11 6 -7 8 5 9 2 5 -10 -4
-10 -3 -15 3 -11 6 3 10 1 10 -4 0 -6 5 -11 11 -11 5 0 7 5 3 12 -4 7 -3 8 5
4 9 -6 9 -11 0 -22 -9 -11 -8 -14 6 -14 12 0 15 -5 11 -16 -5 -12 -2 -15 9
-10 9 3 13 2 10 -4 -3 -6 -1 -10 6 -10 8 0 7 -5 -2 -16 -12 -15 -11 -16 9 -9
22 6 23 5 11 -17 -11 -20 -11 -22 3 -10 13 10 18 10 24 1 4 -8 3 -9 -4 -5 -7
4 -12 2 -12 -3 0 -6 4 -11 9 -11 5 0 11 -9 14 -20 4 -14 10 -18 24 -14 15 6
16 4 6 -7 -14 -14 -17 -30 -5 -28 4 1 14 1 22 0 13 -1 13 -2 0 -11 -13 -8 -12
-10 4 -10 12 0 16 -5 13 -14 -3 -8 1 -20 8 -26 8 -7 12 -16 9 -21 -3 -5 2 -6
10 -3 15 6 21 -6 17 -30 -1 -5 6 -6 15 -2 14 5 15 4 5 -8 -11 -13 -9 -15 9
-11 19 4 20 2 8 -12 -9 -12 -9 -15 0 -9 10 6 16 -3 14 -24 0 -3 9 -17 20 -30
11 -14 16 -18 12 -10 -7 13 -6 13 10 1 13 -11 14 -16 4 -22 -10 -7 -10 -9 2
-10 8 -1 19 -1 24 0 5 1 3 -6 -5 -15 -9 -12 -9 -15 -1 -10 7 4 12 2 12 -4 0
-6 5 -8 13 -4 8 5 8 3 -2 -9 -11 -14 -11 -18 5 -24 25 -9 45 -29 37 -37 -3 -3
2 -8 11 -12 9 -3 16 -12 16 -20 0 -8 6 -14 13 -14 8 0 7 -4 -3 -10 -13 -8 -12
-10 3 -10 11 0 17 -6 15 -18 -2 -10 3 -17 12 -16 9 1 17 -7 17 -18 1 -10 9
-25 17 -34 9 -8 16 -20 16 -26 0 -6 6 -6 15 2 18 15 19 7 4 -22 -9 -18 -9 -20
4 -15 11 4 18 -1 23 -15 4 -12 16 -30 28 -40 13 -10 16 -17 8 -18 -7 0 -11 -4
-7 -10 3 -5 11 -7 19 -4 7 3 13 -2 14 -11 1 -8 3 -22 4 -30 1 -8 6 -11 11 -8
14 8 28 -19 16 -33 -6 -8 -2 -11 15 -9 19 3 23 -1 18 -18 -4 -15 -2 -18 8 -12
10 6 12 4 7 -8 -4 -12 -1 -17 11 -17 15 0 15 -2 2 -10 -13 -9 -13 -10 0 -11 8
-1 18 -1 23 0 6 1 12 -38 9 -60 -1 -4 9 -5 21 -2 18 4 19 3 7 -6 -13 -9 -12
-11 4 -11 12 0 16 -5 12 -16 -3 -8 -2 -12 4 -9 6 3 10 -1 10 -9 0 -8 9 -21 21
-29 15 -11 17 -16 7 -21 -7 -3 -3 -4 10 -2 12 2 20 1 17 -4 -2 -4 7 -20 20
-36 14 -16 25 -37 25 -47 0 -12 4 -16 13 -11 8 6 8 3 -1 -9 -12 -14 -11 -16 7
-12 23 4 27 -5 10 -22 -8 -8 -5 -13 10 -18 12 -3 21 -13 21 -21 0 -8 4 -13 9
-10 11 7 23 -22 15 -35 -3 -5 -2 -9 3 -8 26 4 35 -1 24 -15 -10 -12 -8 -14 11
-10 13 2 17 1 9 -2 -11 -5 -8 -10 10 -21 18 -11 19 -13 4 -9 -16 5 -14 1 8
-19 15 -14 22 -25 15 -25 -8 0 -6 -5 5 -11 10 -6 14 -15 10 -22 -5 -9 -2 -8 9
0 18 16 32 5 17 -14 -9 -10 -7 -13 6 -13 11 0 15 -5 11 -15 -4 -11 0 -15 11
-13 10 2 18 -4 19 -12 3 -36 4 -41 12 -36 4 2 14 -5 22 -17 11 -19 11 -21 -1
-12 -8 6 -7 2 4 -7 10 -10 16 -22 12 -28 -3 -5 -2 -10 3 -10 16 0 57 -40 41
-40 -9 0 -7 -5 6 -12 26 -15 49 -38 38 -38 -5 0 -15 6 -23 13 -7 6 -5 0 6 -14
10 -15 25 -24 32 -22 7 3 12 2 10 -3 -5 -14 28 -55 37 -46 5 4 5 2 2 -5 -9
-14 2 -43 15 -43 5 0 6 5 2 12 -4 7 -3 8 5 4 9 -6 9 -11 1 -21 -8 -10 -5 -17
12 -29 12 -9 18 -16 13 -16 -5 0 0 -7 11 -16 10 -8 13 -12 5 -8 -10 5 -12 3
-7 -5 5 -7 14 -10 21 -7 9 3 11 -2 7 -16 -4 -16 -2 -19 8 -13 10 6 12 4 6 -10
-5 -15 -4 -16 9 -5 9 7 15 9 14 4 -4 -25 2 -54 11 -49 6 3 10 1 10 -5 0 -6 5
-8 13 -4 7 5 6 0 -3 -11 -14 -17 -13 -18 2 -13 10 4 19 1 22 -8 3 -9 1 -12 -4
-9 -6 3 -10 2 -10 -3 0 -5 10 -12 21 -15 16 -4 20 -11 16 -26 -3 -12 -1 -18 4
-15 5 3 12 -2 15 -10 3 -9 10 -13 15 -10 5 3 9 -2 9 -10 0 -9 5 -16 11 -16 8
0 7 -6 -2 -16 -12 -15 -11 -16 9 -10 12 4 22 4 21 -1 -4 -25 3 -41 23 -46 18
-5 19 -8 8 -21 -11 -14 -9 -16 9 -16 11 0 21 -5 21 -11 0 -5 -4 -8 -8 -5 -5 3
-9 -1 -9 -9 0 -8 8 -12 20 -10 13 3 17 0 13 -10 -3 -9 1 -15 10 -15 8 0 12 -4
9 -10 -3 -5 2 -10 12 -11 10 0 13 -3 6 -6 -10 -3 -10 -7 0 -18 7 -7 15 -11 19
-8 4 2 5 -2 2 -10 -5 -14 38 -67 55 -67 5 0 8 -8 7 -18 0 -9 5 -16 12 -14 10
2 11 -4 7 -19 -6 -18 -4 -21 10 -15 15 5 16 4 5 -9 -11 -13 -11 -16 1 -13 8 2
14 -5 14 -15 0 -10 7 -24 16 -30 9 -7 19 -22 23 -35 4 -12 16 -27 27 -33 11
-5 17 -14 14 -18 -2 -5 5 -11 16 -14 12 -3 18 -10 15 -15 -5 -9 27 -54 38 -53
7 1 6 -12 -1 -19 -4 -3 -3 1 2 9 6 10 4 12 -4 7 -16 -10 14 -46 38 -46 14 0
14 -2 1 -10 -8 -5 -10 -10 -4 -10 7 0 14 -9 17 -20 3 -13 10 -18 21 -14 12 5
15 2 10 -10 -3 -9 -1 -16 4 -16 6 0 12 -10 14 -22 2 -12 14 -28 28 -35 14 -7
18 -13 10 -13 -13 0 -13 -2 0 -9 8 -6 19 -7 25 -3 5 3 4 -1 -3 -10 -16 -20 -9
-24 47 -27 34 -2 41 0 35 11 -6 10 -4 10 9 -1 12 -9 17 -10 17 -2 0 7 4 10 9
7 5 -3 14 1 21 9 10 12 16 12 26 4 11 -9 15 -7 20 5 3 9 10 13 15 10 5 -3 9 1
9 8 0 9 3 9 10 -2 7 -11 10 -11 10 -2 0 7 5 10 10 7 6 -3 10 -1 10 6 0 7 3 9
7 6 3 -4 13 -1 21 6 13 9 14 9 8 0 -5 -9 -2 -11 8 -7 9 3 14 9 12 13 -3 4 5
13 17 21 20 12 21 12 8 -4 -13 -16 -12 -16 12 -5 15 7 27 17 27 23 0 6 4 5 9
-3 7 -11 11 -9 20 8 7 12 17 19 22 15 6 -3 17 2 25 12 12 15 17 16 21 6 4 -10
12 -8 31 10 14 13 22 18 19 11 -5 -7 -1 -10 10 -8 10 1 17 9 17 18 -1 9 4 13
13 10 8 -3 21 3 29 13 9 11 13 13 9 7 -3 -7 -1 -13 4 -13 6 0 11 4 11 9 0 10
39 27 54 23 5 -2 6 4 3 12 -7 17 13 18 25 1 4 -5 8 1 8 15 0 14 4 21 8 15 9
-12 36 -19 28 -7 -3 5 6 15 19 22 13 7 21 18 18 24 -4 6 2 4 12 -4 10 -8 16
-10 13 -5 -3 6 0 16 8 23 11 10 14 10 14 0 1 -8 8 -4 19 9 13 15 21 19 29 11
7 -7 14 -3 22 12 10 18 14 20 22 9 7 -10 7 -8 3 9 -7 23 9 32 18 10 4 -10 6
-10 6 0 1 7 5 10 11 7 6 -3 7 1 4 10 -5 11 -2 14 10 9 10 -4 18 0 22 10 5 13
9 14 20 5 12 -10 13 -8 7 6 -5 14 -3 17 10 12 9 -3 19 -1 23 5 5 7 2 8 -7 4
-8 -4 -5 0 6 8 11 9 25 14 33 11 7 -2 11 -1 8 4 -8 12 21 34 34 26 5 -3 10 1
10 9 0 8 5 18 12 22 7 5 8 3 3 -6 -13 -22 35 15 52 40 12 18 17 19 31 8 12
-10 14 -10 8 0 -4 7 -2 12 4 12 6 0 8 5 4 13 -5 7 -1 7 12 -3 10 -8 16 -11 12
-6 -4 5 5 21 20 36 20 20 30 25 40 17 9 -7 11 -6 6 8 -6 14 -4 16 6 10 10 -6
12 -4 7 9 -4 10 -3 15 3 11 6 -4 14 4 19 17 6 13 10 17 11 8 0 -11 6 -9 19 8
20 23 38 31 25 10 -5 -7 -3 -8 5 -4 7 5 10 14 7 22 -3 8 0 11 10 7 10 -3 12 0
9 10 -4 10 2 17 20 21 21 5 24 10 16 20 -8 9 -7 13 4 13 8 0 15 -5 15 -10 0
-6 12 3 27 19 15 16 36 34 47 40 12 5 20 17 20 26 -1 11 4 14 14 11 10 -4 13
-2 8 5 -4 7 -1 12 8 12 8 0 18 5 22 12 4 7 3 8 -4 4 -7 -4 -12 -3 -12 2 0 5
14 15 30 22 29 12 33 19 31 50 0 10 1 11 5 3 8 -18 27 -16 21 1 -4 11 -1 13
11 9 9 -3 14 -3 10 2 -4 4 -1 14 7 21 17 17 29 18 19 2 -4 -7 -3 -8 5 -4 9 6
9 11 -1 24 -10 12 -10 14 0 8 7 -4 12 -2 12 4 0 6 5 8 10 5 6 -3 10 1 10 10 0
9 5 13 11 9 8 -4 9 1 5 17 -3 13 -3 18 0 12 7 -16 27 -17 22 -2 -5 15 61 80
83 82 10 1 15 7 11 16 -3 9 -1 12 6 7 8 -5 10 -2 6 8 -3 9 -1 16 6 16 6 0 8 5
4 12 -5 8 -2 9 10 5 10 -4 15 -3 11 3 -3 6 0 10 7 11 7 0 4 4 -7 9 -15 7 -16
9 -4 9 20 1 31 35 16 50 -6 6 -7 15 -1 23 11 16 11 38 1 56 -5 7 -2 14 8 18
12 5 13 9 4 20 -9 11 -8 14 1 14 7 0 10 7 7 15 -4 8 -3 17 2 19 4 3 5 26 1 50
-4 25 -3 51 1 58 4 6 4 19 -1 28 -5 9 -4 23 2 34 8 14 7 21 -3 27 -12 7 -12 9
0 9 10 0 11 3 2 14 -7 8 -8 17 -4 19 10 6 10 48 0 64 -4 7 -3 14 1 17 5 3 6
26 2 50 -4 25 -3 51 1 58 4 7 3 18 -3 25 -6 7 -7 13 -2 13 10 0 10 113 0 129
-4 6 -2 11 5 11 9 0 9 3 0 14 -7 8 -8 17 -3 20 5 3 6 26 2 50 -4 25 -3 51 1
58 4 6 4 19 -1 28 -5 9 -4 23 2 34 8 14 7 21 -3 27 -12 7 -12 9 0 9 10 0 11 3
2 14 -7 8 -8 17 -4 19 10 6 10 48 0 64 -4 7 -3 14 1 17 5 3 6 26 2 50 -4 25
-3 51 1 58 4 7 3 18 -3 25 -6 7 -7 13 -2 13 10 0 10 113 0 129 -4 6 -2 11 5
11 9 0 9 3 0 14 -7 8 -8 17 -3 20 5 3 6 26 2 50 -4 25 -3 51 1 58 4 6 4 19 -1
28 -5 9 -4 23 2 34 8 14 7 21 -3 27 -12 7 -12 9 0 9 10 0 11 3 2 14 -7 8 -8
17 -3 20 5 3 6 26 2 50 -4 25 -3 51 1 58 4 6 4 19 -1 28 -5 9 -4 23 2 34 8 14
7 21 -3 27 -12 7 -12 9 0 9 10 0 11 3 2 14 -7 8 -8 17 -3 20 5 3 6 26 2 50 -4
25 -3 51 1 58 4 6 4 19 -1 28 -5 9 -4 23 2 34 8 14 7 21 -3 27 -12 7 -12 9 0
9 10 0 11 3 2 14 -7 8 -8 17 -3 20 5 3 6 26 2 50 -4 25 -3 51 1 58 4 7 3 18
-3 25 -7 9 -7 13 0 13 6 0 7 13 2 34 -4 19 -4 40 1 47 4 7 3 19 -3 26 -7 9 -7
13 2 13 9 0 9 4 2 13 -7 8 -7 18 -2 27 5 9 5 19 -2 27 -7 9 -7 13 2 13 9 0 9
4 2 13 -7 8 -7 18 -2 27 5 9 5 19 -2 27 -7 9 -7 13 2 13 9 0 9 4 2 13 -7 8 -7
18 -2 27 5 9 5 19 -2 27 -7 9 -7 13 0 13 6 0 7 13 2 34 -4 19 -4 40 1 47 4 7
4 20 -1 29 -5 9 -4 23 2 34 8 14 7 21 -3 27 -12 7 -12 9 0 9 10 0 11 3 2 14
-7 8 -8 17 -3 20 5 3 6 26 2 50 -4 25 -3 51 1 58 4 6 4 19 -1 28 -5 9 -4 23 2
34 8 14 7 21 -3 27 -12 7 -12 9 0 9 10 0 11 3 2 14 -7 8 -8 17 -3 20 5 3 6 26
2 50 -4 25 -3 51 1 58 4 7 3 18 -3 25 -7 9 -7 13 0 13 6 0 7 13 2 34 -4 19 -4
40 1 47 4 7 3 19 -3 26 -7 9 -7 13 2 13 9 0 9 4 2 13 -7 8 -7 18 -2 27 5 9 5
19 -2 27 -7 9 -7 13 2 13 9 0 9 4 2 13 -7 8 -7 18 -2 27 5 9 5 19 -2 27 -7 9
-7 13 2 13 9 0 9 4 2 13 -7 8 -7 18 -2 27 5 9 5 19 -2 27 -7 9 -7 13 0 13 6 0
7 13 2 34 -4 19 -4 40 1 47 4 7 4 20 -1 29 -5 9 -4 23 2 34 8 14 7 21 -3 27
-12 7 -12 9 0 9 10 0 11 3 2 14 -7 8 -8 17 -3 20 5 3 6 26 2 50 -4 25 -3 51 1
58 4 6 4 19 -1 28 -5 9 -4 23 2 34 8 14 7 21 -3 27 -12 7 -12 9 0 9 10 0 11 3
2 14 -7 8 -8 17 -3 20 5 3 6 26 2 50 -4 25 -3 51 1 58 4 7 3 18 -3 25 -6 7 -6
13 -1 13 5 0 6 24 3 55 -3 30 -3 61 1 67 4 7 4 19 -1 28 -5 9 -4 23 2 34 8 14
7 21 -3 27 -12 7 -12 9 0 9 10 0 11 3 2 14 -7 8 -8 17 -3 20 5 3 6 26 2 50 -4
25 -3 51 1 58 4 6 4 19 -1 28 -5 9 -4 23 2 34 8 14 7 21 -3 27 -12 7 -12 9 0
9 10 0 11 3 2 14 -7 8 -8 17 -3 20 5 3 6 26 2 50 -4 25 -3 51 1 58 4 7 3 18
-3 25 -7 9 -7 13 0 13 6 0 7 13 2 34 -4 19 -4 40 1 47 4 7 3 19 -3 26 -7 9 -7
13 2 13 9 0 9 4 2 13 -7 8 -7 18 -2 27 5 9 5 19 -2 27 -7 9 -7 13 2 13 9 0 9
4 2 13 -7 8 -7 18 -2 27 5 9 5 19 -2 27 -7 9 -7 13 2 13 9 0 9 4 2 13 -7 8 -7
18 -2 27 5 9 5 19 -2 27 -6 7 -7 13 -2 13 5 0 9 11 9 25 0 14 -4 25 -8 25 -5
0 -7 8 -5 18 2 9 -5 21 -17 27 -12 7 -20 20 -19 33 1 16 -3 21 -12 18 -8 -3
-13 -2 -12 2 3 15 -15 42 -28 42 -13 0 -19 13 -15 34 1 5 -6 3 -15 -5 -12 -9
-15 -9 -10 -1 4 6 2 12 -3 12 -6 0 -11 10 -11 23 0 17 -2 19 -10 7 -8 -13 -11
-13 -22 -1 -9 10 -10 12 -1 7 9 -5 11 -2 7 8 -3 9 -12 12 -22 8 -15 -5 -16 -4
-2 13 9 11 10 16 3 11 -8 -4 -13 -2 -13 6 0 9 -3 9 -10 -2 -8 -12 -10 -11 -10
6 0 18 -55 82 -72 84 -5 0 -13 0 -19 0 -6 0 -9 9 -6 20 4 17 2 18 -16 9 -18
-10 -20 -9 -10 2 11 10 8 15 -15 26 -15 7 -18 11 -7 8 l20 -5 -20 16 c-11 8
-19 20 -17 26 2 6 -5 5 -14 -3 -10 -8 -15 -9 -11 -2 4 7 -1 14 -13 18 -18 6
-19 9 -8 23 10 12 10 14 1 8 -7 -4 -13 -3 -13 3 0 5 -10 11 -22 13 -12 2 -23
9 -24 16 -1 7 0 8 3 2 2 -5 9 -10 15 -10 7 0 6 5 -1 14 -7 8 -21 13 -32 11
-11 -2 -17 0 -13 6 3 6 -2 9 -12 7 -13 -2 -18 2 -16 15 2 9 -1 17 -5 16 -22
-4 -33 3 -33 20 0 10 -8 25 -17 32 -16 13 -17 12 -4 -4 12 -15 12 -17 -3 -11
-9 3 -16 13 -16 21 0 8 -4 11 -10 8 -5 -3 -10 -1 -10 4 0 6 -5 11 -11 11 -5 0
-7 -6 -3 -12 4 -8 3 -10 -2 -5 -5 5 -10 13 -10 18 -1 5 -2 14 -3 19 0 6 -8 10
-17 10 -8 0 -12 4 -9 10 4 6 -1 7 -12 3 -16 -6 -16 -5 -4 10 12 15 12 17 -3
11 -11 -4 -23 1 -32 12 -9 11 -13 14 -10 8 3 -6 -1 -11 -9 -11 -8 0 -13 3 -10
5 3 3 -3 11 -13 19 -9 8 -11 11 -3 7 9 -4 12 -3 7 4 -4 6 -14 8 -23 5 -13 -5
-15 -2 -10 12 6 15 5 16 -8 5 -12 -10 -15 -10 -15 4 0 14 -18 21 -43 17 -5 -1
-6 3 -2 9 3 5 1 10 -5 10 -15 0 -41 26 -33 34 4 3 -6 6 -21 6 -19 0 -29 7 -35
23 -5 13 -16 24 -25 24 -8 0 -13 -5 -10 -11 3 -6 -1 -3 -10 8 -9 11 -20 15
-28 10 -9 -5 -8 -2 2 11 8 10 10 16 3 12 -6 -4 -18 0 -26 8 -9 8 -25 15 -36
15 -11 0 -23 5 -27 12 -4 7 -3 8 4 4 18 -11 14 0 -5 15 -14 12 -16 12 -8 0 6
-11 4 -13 -11 -7 -10 5 -25 9 -31 9 -10 0 -10 4 -1 14 9 11 7 12 -7 7 -13 -5
-16 -4 -11 4 5 8 2 10 -8 6 -9 -3 -16 -2 -16 4 0 5 -11 13 -25 16 -17 4 -23
11 -18 19 5 8 2 8 -9 -1 -13 -10 -18 -10 -24 -1 -5 8 -3 9 6 4 9 -6 11 -4 5 4
-4 7 -18 11 -31 8 -13 -2 -21 0 -18 4 3 5 0 9 -6 9 -6 0 -8 6 -4 13 4 6 4 9
-1 5 -4 -4 -17 -1 -29 7 -11 8 -25 15 -31 15 -5 0 -3 -5 5 -10 10 -7 11 -10 2
-10 -7 0 -15 7 -18 15 -4 8 -15 15 -26 15 -13 0 -18 5 -15 13 3 8 -1 14 -9 14
-7 0 -11 -5 -8 -11 3 -6 -1 -3 -9 6 -8 10 -17 15 -20 11 -4 -3 -7 -1 -7 5 0 6
-9 9 -20 7 -11 -2 -20 0 -20 6 0 5 -12 9 -26 9 -14 0 -23 4 -19 10 3 6 -1 10
-10 10 -9 0 -30 7 -47 16 -16 9 -27 11 -24 5 4 -6 2 -11 -3 -11 -6 0 -11 6
-11 14 0 17 -27 29 -36 15 -4 -6 -14 -2 -26 11 -16 18 -22 19 -29 8 -7 -10 -9
-10 -9 0 0 7 -4 10 -10 7 -5 -3 -10 -2 -10 3 0 5 -7 9 -15 10 -8 1 -22 3 -30
4 -9 1 -11 5 -6 12 6 7 2 11 -12 12 -12 1 -33 5 -47 9 -14 3 -31 7 -37 7 -7 1
-13 5 -13 9 0 4 -7 10 -16 13 -8 3 -12 2 -9 -4 3 -6 -1 -7 -9 -4 -9 3 -13 10
-10 15 3 5 4 8 2 8 -2 -1 -10 -3 -20 -6z m-3163 -333 c3 -5 1 -10 -4 -10 -6 0
-11 5 -11 10 0 6 2 10 4 10 3 0 8 -4 11 -10z m4206 -163 c-10 -9 -11 -8 -5 6
3 10 9 15 12 12 3 -3 0 -11 -7 -18z m737 -580 c17 -18 19 -24 7 -24 -8 0 -13
3 -10 5 9 9 -17 32 -28 25 -6 -3 -7 -1 -3 5 9 16 9 16 34 -11z m-3983 -3755
c-3 -3 -11 0 -18 7 -9 10 -8 11 6 5 10 -3 15 -9 12 -12z m240 -340 c-3 -3 -11
0 -18 7 -9 10 -8 11 6 5 10 -3 15 -9 12 -12z m105 -128 c0 -8 -19 -13 -24 -6
-3 5 1 9 9 9 8 0 15 -2 15 -3z m-2343 -1656 c-3 -8 -6 -5 -6 6 -1 11 2 17 5
13 3 -3 4 -12 1 -19z m5828 -199 c-4 -5 -12 -9 -18 -8 -9 0 -8 2 1 6 6 2 9 10
6 15 -4 7 -2 8 5 4 6 -4 9 -12 6 -17z m-5450 -149 c-3 -5 -1 -10 6 -10 7 0 10
-3 6 -6 -9 -9 -28 6 -22 17 4 5 8 9 11 9 3 0 2 -4 -1 -10z m245 -176 c0 -8
-19 -13 -24 -6 -3 5 1 9 9 9 8 0 15 -2 15 -3z m60 -54 c0 -5 -2 -10 -4 -10 -3
0 -8 5 -11 10 -3 6 -1 10 4 10 6 0 11 -4 11 -10z m3275 -78 c-3 -3 -11 0 -18
7 -9 10 -8 11 6 5 10 -3 15 -9 12 -12z m240 -332 c3 -5 1 -10 -4 -10 -6 0 -11
5 -11 10 0 6 2 10 4 10 3 0 8 -4 11 -10z"/>
<path d="M7105 7210 c-3 -5 -1 -10 4 -10 6 0 11 5 11 10 0 6 -2 10 -4 10 -3 0
-8 -4 -11 -10z"/>
<path d="M3590 7196 c0 -2 7 -9 15 -16 13 -11 14 -10 9 4 -5 14 -24 23 -24 12z"/>
<path d="M7387 6899 c7 -7 15 -10 18 -7 3 3 -2 9 -12 12 -14 6 -15 5 -6 -5z"/>
<path d="M913 6873 c0 -9 4 -10 14 -2 7 6 13 12 13 14 0 1 -6 2 -13 2 -8 0
-14 -6 -14 -14z"/>
<path d="M5205 4850 c3 -5 8 -10 11 -10 2 0 4 5 4 10 0 6 -5 10 -11 10 -5 0
-7 -4 -4 -10z"/>
<path d="M5237 4808 c19 -21 31 -25 14 -5 -6 8 -9 16 -6 19 3 2 -2 5 -10 5
-13 0 -13 -3 2 -19z"/>
<path d="M4070 2086 c0 -2 8 -10 18 -17 15 -13 16 -12 3 4 -13 16 -21 21 -21
13z"/>
<path d="M7284 1368 l-29 -33 35 30 c19 17 37 31 39 33 2 1 0 2 -5 2 -6 0 -23
-15 -40 -32z"/>
<path d="M1193 1229 c9 -6 14 -15 11 -21 -4 -7 -2 -8 5 -4 14 9 -3 36 -23 36
-6 0 -3 -5 7 -11z"/>
</g>
</svg>
