<svg xmlns="http://www.w3.org/2000/svg" viewBox="0 0 204 204">
  <defs>
    <style>
      .cls-1, .cls-2 {
        fill: #fff;
      }

      .cls-1 {
        opacity: 0.233;
      }

      .cls-3 {
        fill: #f5f5f5;
      }

      .cls-4 {
        fill: #97e0db;
      }

      .cls-5 {
        fill: #1db6ad;
      }

      .cls-6 {
        fill: #3ecec5;
      }

      .cls-7 {
        fill: #044264;
      }

      .cls-8 {
        fill: #056ca5;
      }
    </style>
  </defs>
  <g id="Group_217" data-name="Group 217" transform="translate(-876 -708)">
    <g id="Group_216" data-name="Group 216" transform="translate(60 17)">
      <g id="Group_206" data-name="Group 206" transform="translate(816 691)">
        <circle id="Ellipse_79" data-name="Ellipse 79" class="cls-1" cx="102" cy="102" r="102"/>
        <g id="Group_193" data-name="Group 193" transform="translate(43.154 42.173)">
          <path id="Path_273" data-name="Path 273" class="cls-2" d="M118.609,164.607v54.533a9.7,9.7,0,0,1-9.707,9.707H9.707A9.7,9.7,0,0,1,0,219.139V164.607A9.7,9.7,0,0,1,9.707,154.9h99.22A9.7,9.7,0,0,1,118.609,164.607Z" transform="translate(0 -119.016)"/>
          <path id="Path_274" data-name="Path 274" class="cls-3" d="M60.324,228.846H9.707A9.7,9.7,0,0,1,0,219.139V164.607A9.7,9.7,0,0,1,9.707,154.9H60.347v73.946Z" transform="translate(0 -119.016)"/>
          <path id="Path_275" data-name="Path 275" class="cls-4" d="M66.509,194.769l52.1-29.7v-.463A9.7,9.7,0,0,0,108.9,154.9H9.707A9.7,9.7,0,0,0,0,164.607v.463l52.17,29.722A14.461,14.461,0,0,0,66.509,194.769Z" transform="translate(0 -119.016)"/>
          <path id="Path_276" data-name="Path 276" class="cls-5" d="M166.231,161.756l4.1,12.139a2.718,2.718,0,0,1-2.571,3.591H95.483a2.718,2.718,0,0,1-2.571-3.591l4.1-12.139V145.98c0-19.135,15.359-34.934,34.494-34.98a34.594,34.594,0,0,1,34.726,34.61Z" transform="translate(-71.274 -85.285)"/>
          <path id="Path_277" data-name="Path 277" class="cls-6" d="M145.61,160.058V110.9A34.613,34.613,0,0,0,111,145.51v14.548Z" transform="translate(-85.286 -85.209)"/>
          <path id="Path_278" data-name="Path 278" class="cls-5" d="M224.1,395.2a8.432,8.432,0,1,0,16.865,0Z" transform="translate(-172.185 -303.648)"/>
          <path id="Path_279" data-name="Path 279" class="cls-6" d="M224.1,395.2a8.433,8.433,0,0,0,8.432,8.432V395.2Z" transform="translate(-172.185 -303.648)"/>
          <path id="Path_280" data-name="Path 280" class="cls-7" d="M166.155,316.3H96.912v3.2l-4.1,12.139a2.718,2.718,0,0,0,2.571,3.591h72.254a2.718,2.718,0,0,0,2.571-3.591l-4.1-12.139Z" transform="translate(-71.197 -243.026)"/>
          <path id="Path_281" data-name="Path 281" class="cls-8" d="M131.521,316.3H96.912v3.2l-4.1,12.139a2.718,2.718,0,0,0,2.571,3.591h36.139V316.3Z" transform="translate(-71.197 -243.026)"/>
          <path id="Path_282" data-name="Path 282" class="cls-7" d="M246.877,15.938a4.083,4.083,0,0,1-4.077-4.077V4.077a4.077,4.077,0,0,1,8.154,0v7.784A4.054,4.054,0,0,1,246.877,15.938Z" transform="translate(-186.553 0)"/>
          <g id="Group_192" data-name="Group 192" transform="translate(31.488)">
            <path id="Path_283" data-name="Path 283" class="cls-8" d="M246.877,15.938a4.083,4.083,0,0,1-4.077-4.077V4.077A4.083,4.083,0,0,1,246.877,0Z" transform="translate(-218.041 0)"/>
            <path id="Path_284" data-name="Path 284" class="cls-8" d="M145.487,49.987a3.979,3.979,0,0,1-2.873-1.2l-5.49-5.49a4.079,4.079,0,0,1,5.768-5.768l5.49,5.49a4.069,4.069,0,0,1,0,5.768A3.993,3.993,0,0,1,145.487,49.987Z" transform="translate(-135.925 -27.91)"/>
          </g>
          <path id="Path_285" data-name="Path 285" class="cls-7" d="M330.1,49.987a3.979,3.979,0,0,1-2.872-1.2,4.069,4.069,0,0,1,0-5.768l5.49-5.49a4.079,4.079,0,0,1,5.768,5.768l-5.49,5.49A3.993,3.993,0,0,1,330.1,49.987Z" transform="translate(-250.498 -27.91)"/>
        </g>
      </g>
      <ellipse id="Ellipse_82" data-name="Ellipse 82" class="cls-4" cx="21.05" cy="21.049" rx="21.05" ry="21.049" transform="matrix(0.966, -0.259, 0.259, 0.966, 842.055, 808.193)"/>
      <circle id="Ellipse_86" data-name="Ellipse 86" class="cls-4" cx="11.581" cy="11.581" r="11.581" transform="matrix(0.966, -0.259, 0.259, 0.966, 868.713, 784.777)"/>
      <g id="Group_211" data-name="Group 211" transform="matrix(0.966, -0.259, 0.259, 0.966, 877.38, 786.424)">
        <path id="Path_292" data-name="Path 292" class="cls-2" d="M6.24,7.119a18.867,18.867,0,0,0-1.916-.867,4.3,4.3,0,0,1-1.052-.589A.915.915,0,0,1,3.5,4.034,1.847,1.847,0,0,1,4.142,3.9a4.889,4.889,0,0,1,2.421.479c.382.184.508.126.638-.272.136-.421.249-.848.375-1.272a.444.444,0,0,0-.288-.592A6.154,6.154,0,0,0,5.76,1.788c-.693-.107-.693-.11-.7-.806C5.061,0,5.061,0,4.077,0c-.142,0-.285,0-.427,0C3.191.014,3.113.1,3.1.558c-.006.207,0,.414,0,.625,0,.615-.006.605-.6.819A3.284,3.284,0,0,0,.1,5.044,3.118,3.118,0,0,0,1.867,8.025a19.5,19.5,0,0,0,2.2.99,3.274,3.274,0,0,1,.8.473,1.1,1.1,0,0,1-.262,1.929A2.64,2.64,0,0,1,3.2,11.6a6.313,6.313,0,0,1-2.156-.644c-.4-.207-.515-.152-.651.278-.117.372-.22.748-.324,1.123-.139.5-.087.625.395.861a6.883,6.883,0,0,0,1.942.557c.524.084.541.107.547.651,0,.246,0,.5.006.741a.44.44,0,0,0,.473.5c.363.006.728.006,1.091,0a.415.415,0,0,0,.45-.469c0-.337.016-.676,0-1.013a.535.535,0,0,1,.463-.608,3.658,3.658,0,0,0,1.906-1.223A3.44,3.44,0,0,0,6.24,7.119Z" transform="translate(0 0)"/>
      </g>
      <g id="Group_213" data-name="Group 213" transform="translate(856.626 816.352)">
        <path id="_-_1_" class="cls-2" d="M49.75,60.8H42.024L41,63.686h7.773Z" transform="translate(-41 -56.006)"/>
        <path id="D_1_" class="cls-2" d="M62.806,52.455a2.045,2.045,0,0,0-.326-1.024,1.462,1.462,0,0,0-.791-.7,2.3,2.3,0,0,0-1.117-.233H46.142l-1.024,3.119H58.2l-2.048,6.33H43.071L42,63.021H56.522a3.99,3.99,0,0,0,1.257-.233A7.117,7.117,0,0,0,59.035,62a5.334,5.334,0,0,0,1.024-1.024,10,10,0,0,0,.652-1.21l1.908-6a2.14,2.14,0,0,0,.186-1.3Z" transform="translate(-41.535 -50.5)"/>
      </g>
      <g id="Group_214" data-name="Group 214" transform="translate(958.372 789.637)">
        <path id="Path_13" data-name="Path 13" class="cls-4" d="M89.676,77.9,89,80.663c.794.206,3.2,1,3.586-.588C92.969,78.459,90.47,78.076,89.676,77.9Z" transform="translate(-77.103 -69.266)"/>
        <path id="Path_14" data-name="Path 14" class="cls-4" d="M85.964,92,85.2,95.057c.941.235,3.851,1.176,4.263-.559C89.9,92.706,86.905,92.235,85.964,92Z" transform="translate(-74.42 -79.221)"/>
        <path id="Path_15" data-name="Path 15" class="cls-4" d="M64.218,48.9a12.634,12.634,0,1,0,9.2,15.316A12.649,12.649,0,0,0,64.218,48.9Zm2.528,10.465h0A2.179,2.179,0,0,1,64.982,61.4a2.418,2.418,0,0,1,1.264,3.351c-.735,2.146-2.528,2.322-4.88,1.881l-.588,2.293L59.4,68.569l.559-2.264c-.353-.088-.735-.176-1.117-.294L58.28,68.3,56.9,67.951l.588-2.293c-.323-.088-.647-.176-1-.265l-1.793-.441.676-1.587s1.029.265,1,.265a.535.535,0,0,0,.647-.323l.911-3.645c.059,0,.088.029.147.029-.059-.029-.118-.029-.147-.059l.647-2.587a.71.71,0,0,0-.647-.794c.029,0-1-.265-1-.265l.382-1.47,1.911.47h0c.294.059.588.147.882.206l.559-2.264,1.382.353-.559,2.234c.382.088.735.176,1.117.265l.559-2.2,1.382.353-.559,2.293C65.717,56.781,66.981,57.692,66.746,59.368Z" transform="translate(-48.529 -48.529)"/>
      </g>
      <ellipse id="Ellipse_87" data-name="Ellipse 87" class="cls-4" cx="15.558" cy="15.558" rx="15.558" ry="15.558" transform="translate(947.143 834.339) rotate(-30)"/>
      <g id="Group_215" data-name="Group 215" transform="translate(961.714 829.989)">
        <path id="Path_10" data-name="Path 10" class="cls-2" d="M45.359,49.776h0a.868.868,0,0,1-.3-.074l-6.27-3.947a.378.378,0,0,1-.184-.221c0-.037-.037-.074-.037-.111,0-.074-.037-.148,0-.221h0v-.037L40.6,35.834a.319.319,0,0,1,.111-.221l4.242-5.791a.553.553,0,0,1,.885,0l4.168,5.828.037.037h0a.036.036,0,0,0,.037.037c0,.037.037.074.037.111l2.029,9.332V45.2h0v.221c0,.037-.037.074-.037.111a.978.978,0,0,1-.184.221L45.654,49.7A.868.868,0,0,1,45.359,49.776Zm-4.426-3.947,3.5,2.176-.7-2.176Zm6.086,0-.7,2.176,3.5-2.176Zm-2.176,0,.516,1.66.516-1.66ZM47.35,44.8h3.393L48.568,40.96Zm-2.877,0h1.734l1.66-5.09L45.359,35.28l-2.508,4.426Zm-4.5,0h3.393L42.15,40.96Zm9.037-5.238,1.365,2.434-.885-4.02ZM41.228,38.01l-.885,4.02L41.707,39.6Zm4.647-3.91,2.4,4.242.738-2.25L45.875,31.85Zm-4.168,1.955.738,2.25,2.4-4.242V31.776Z" transform="translate(-38.556 -29.6)"/>
      </g>
    </g>
  </g>
</svg>
