<?xml version="1.0" standalone="no"?>
<!DOCTYPE svg PUBLIC "-//W3C//DTD SVG 20010904//EN"
 "http://www.w3.org/TR/2001/REC-SVG-20010904/DTD/svg10.dtd">
<svg version="1.0" xmlns="http://www.w3.org/2000/svg"
 width="1250.000000pt" height="261.000000pt" viewBox="0 0 1250.000000 261.000000"
 preserveAspectRatio="xMidYMid meet">

<g transform="translate(0.000000,261.000000) scale(0.100000,-0.100000)"
fill="#000000" stroke="none">
<path d="M300 2594 c-120 -32 -225 -125 -271 -241 l-24 -58 0 -996 0 -995 37
-76 c45 -91 103 -147 196 -191 l67 -32 2398 -3 2397 -2 0 1305 0 1305 -2372
-1 c-2048 0 -2381 -2 -2428 -15z m3015 -554 c214 -31 344 -192 345 -427 l0
-63 -129 0 -130 0 -6 48 c-11 84 -16 101 -37 128 -29 37 -77 54 -147 54 -76 0
-137 -24 -156 -60 -22 -42 -29 -104 -16 -143 17 -51 47 -63 273 -111 153 -32
224 -65 286 -130 69 -73 93 -141 100 -283 8 -191 -27 -303 -123 -392 -86 -78
-194 -111 -359 -111 -101 0 -195 19 -258 51 -58 30 -130 100 -161 158 -37 67
-67 190 -67 273 l0 68 130 0 c146 0 131 9 145 -90 9 -69 42 -128 88 -158 37
-25 49 -27 136 -27 151 0 191 34 198 170 7 119 -20 142 -204 181 -295 61 -391
123 -441 284 -26 86 -23 278 6 351 70 178 271 265 527 229z m-2041 -35 c159
-42 240 -170 240 -380 0 -115 -20 -189 -64 -239 l-29 -32 35 -28 c66 -52 104
-166 104 -310 -1 -188 -64 -318 -187 -383 -87 -47 -145 -53 -475 -53 l-298 0
0 720 0 720 308 0 c242 0 320 -3 366 -15z m1356 -125 l0 -140 -310 0 -310 0 0
-130 0 -130 285 0 285 0 0 -145 0 -145 -285 0 -285 0 0 -165 0 -165 320 0 320
0 0 -140 0 -140 -460 0 -460 0 0 720 0 720 450 0 450 0 0 -140z m2070 0 l0
-140 -165 0 -165 0 0 -580 0 -580 -140 0 -140 0 0 580 0 580 -165 0 -165 0 0
140 0 140 470 0 470 0 0 -140z"/>
<path d="M880 1606 l0 -146 133 1 c72 1 143 4 157 8 14 4 35 22 48 41 21 31
23 44 20 117 -4 119 -2 117 -198 121 l-160 4 0 -146z"/>
<path d="M880 1029 l0 -171 163 4 c180 4 200 10 223 63 17 40 18 144 3 198
-20 74 -28 77 -219 77 l-170 0 0 -171z"/>
<path d="M5810 2026 c-196 -57 -318 -209 -366 -454 -34 -177 -26 -451 17 -621
67 -263 238 -400 500 -401 290 -1 460 171 503 508 l7 52 -134 0 -134 0 -21
-85 c-11 -47 -30 -101 -42 -120 -59 -96 -253 -102 -345 -11 -66 67 -87 144
-92 351 -8 284 30 427 130 489 41 25 61 30 130 34 72 3 87 1 127 -20 53 -29
85 -79 101 -160 l12 -58 129 0 130 0 -7 56 c-10 80 -43 192 -72 247 -36 66
-111 132 -191 170 -64 30 -74 32 -202 34 -89 1 -150 -2 -180 -11z"/>
<path d="M10314 2021 c-165 -47 -278 -173 -334 -371 -33 -119 -46 -314 -32
-478 14 -161 38 -265 82 -353 90 -180 231 -263 440 -262 123 0 194 26 262 94
l48 48 0 -59 0 -60 117 0 116 0 -6 167 c-4 91 -7 267 -7 390 l0 223 -265 0
-265 0 0 -130 0 -130 130 0 130 0 0 -35 c0 -19 -9 -58 -20 -88 -35 -94 -102
-137 -212 -137 -83 0 -131 14 -174 52 -77 68 -104 177 -104 421 0 228 22 319
94 395 44 47 89 64 177 65 133 1 191 -49 211 -183 l10 -70 138 0 137 0 -4 58
c-6 79 -29 167 -60 232 -49 101 -167 192 -284 219 -71 17 -255 12 -325 -8z"/>
<path d="M6610 1467 c0 -305 -3 -629 -7 -720 l-6 -167 141 0 142 0 0 310 0
310 207 0 206 0 -7 -310 -6 -310 140 0 140 0 0 720 0 720 -135 0 -135 0 0
-270 0 -270 -205 0 -205 0 -2 268 -3 267 -132 3 -133 3 0 -554z"/>
<path d="M8030 2016 c0 -3 -88 -325 -195 -715 -107 -390 -195 -712 -195 -715
0 -3 62 -6 138 -6 l138 0 28 118 c16 64 33 132 38 149 l9 33 174 0 c156 0 175
-2 183 -18 5 -9 24 -77 42 -150 l32 -132 144 0 144 0 -5 23 c-4 12 -95 335
-204 717 l-197 695 -137 3 c-75 1 -137 0 -137 -2z m193 -633 c26 -109 50 -208
53 -220 6 -23 6 -23 -105 -23 -61 0 -111 3 -111 8 -1 18 105 432 110 432 3 0
27 -89 53 -197z"/>
<path d="M8830 1467 c0 -305 -3 -629 -7 -720 l-6 -167 141 0 142 0 1 428 0
427 55 -110 c30 -60 121 -252 203 -425 l150 -315 135 -3 136 -3 0 721 0 720
-135 0 -135 0 -2 -428 -3 -428 -206 426 -205 425 -132 3 -132 3 0 -554z"/>
<path d="M11180 1467 c0 -305 -3 -629 -7 -720 l-6 -167 461 0 462 0 0 140 0
140 -320 0 -320 0 0 170 0 170 285 0 285 0 0 135 0 135 -285 0 -285 0 0 135 0
135 310 0 310 0 0 140 0 140 -445 0 -445 0 0 -553z"/>
</g>
</svg>
