<?xml version="1.0" encoding="UTF-8"?>
<!DOCTYPE svg PUBLIC "-//W3C//DTD SVG 1.1//EN" "http://www.w3.org/Graphics/SVG/1.1/DTD/svg11.dtd">
<!-- Creator: CorelDRAW X7 -->
<svg xmlns="http://www.w3.org/2000/svg" xml:space="preserve" width="88px" height="31px" version="1.1" style="shape-rendering:geometricPrecision; text-rendering:geometricPrecision; image-rendering:optimizeQuality; fill-rule:evenodd; clip-rule:evenodd"
viewBox="0 0 58850 20732"
 xmlns:xlink="http://www.w3.org/1999/xlink">
 <defs>
  <style type="text/css">
   <![CDATA[
    .fil1 {fill:#2A609F}
    .fil0 {fill:#3B5999}
    .fil3 {fill:white}
    .fil2 {fill:white}
   ]]>
  </style>
 </defs>
 <g id="Слой_x0020_1">
  <metadata id="CorelCorpID_0Corel-Layer"/>
  <rect class="fil0" width="58851" height="20732"/>
  <g id="_1773510828160">
   <path class="fil1" d="M6976 4397c2077,0 3762,1746 3762,3900 0,2153 -1685,3899 -3762,3899 -2078,0 -3762,-1746 -3762,-3899 0,-2154 1684,-3900 3762,-3900z"/>
   <path class="fil1" d="M12829 14534l26253 0 0 -8856 -28563 0c121,142 231,293 332,456 933,1506 704,3439 -448,4671 -90,98 -187,190 -289,278l131 212 114 183 90 146 239 384c88,-10 177,1 261,30 133,6 263,53 371,139 60,46 114,105 158,174l1237 1997 114 186z"/>
   <path class="fil2" d="M35095 7460l2342 0 0 988 -1343 0 0 1126 1174 0 0 988 -1174 0 0 1202 1343 0 0 989 -2342 0 0 -5293zm-22748 0l2341 0 0 988 -1342 0 0 1126 1173 0 0 988 -1173 0 0 1202 1342 0 0 989 -2341 0 0 -5293zm2612 0l1168 0 374 1308 44 0 352 -1308 1174 0 -1012 2532 1086 2761 -1175 0 -448 -1552 -29 0 -448 1552 -1159 0 1057 -2761 -984 -2532zm3537 1345c0,-421 109,-758 327,-1011 218,-254 552,-380 1002,-380 445,0 774,113 987,338 213,226 319,519 319,878 0,26 0,50 0,73 0,23 -3,46 -8,72l-961 175c-5,-157 -37,-288 -98,-392 -60,-103 -141,-155 -242,-155 -68,0 -123,13 -164,41 -41,28 -74,62 -98,103 -24,40 -42,85 -51,133 -9,48 -14,90 -14,125l0 2701c0,71 17,139 51,205 34,66 115,99 241,99 97,0 177,-46 238,-137 60,-91 93,-229 98,-411l986 137c-4,421 -117,759 -338,1015 -219,256 -538,384 -953,384 -461,0 -796,-111 -1006,-334 -210,-223 -316,-558 -316,-1004l0 -2655zm3178 -1345l998 0 0 2098 639 0 0 -2098 998 0 0 5293 -998 0 0 -2191 -639 0 0 2191 -998 0 0 -5293zm4029 0l1218 0 976 5293 -1049 0 -154 -1034 -749 0 -154 1034 -1057 0 969 -5293zm748 2441l-110 -1073 -44 0 -110 1073 -102 844 462 0 -96 -844zm1864 -2441l873 0 603 1536 344 966 37 0 0 -2502 976 0 0 5293 -848 0 -599 -1544 -351 -1004 -36 0 0 2548 -999 0 0 -5293zm3559 1345c0,-421 114,-758 342,-1011 227,-254 556,-380 986,-380 230,0 430,34 599,102 168,68 308,164 418,286 110,121 189,266 235,433 46,168 62,348 48,540l-969 175c-5,-157 -37,-288 -97,-392 -60,-103 -141,-155 -241,-155 -66,0 -121,13 -161,41 -40,28 -74,62 -97,103 -24,40 -41,85 -50,133 -10,48 -15,90 -15,125l0 2701c0,71 17,139 51,205 33,66 112,99 236,99 95,0 174,-27 237,-80 61,-53 93,-123 93,-209l0 -814 -338 0 0 -905 1335 0 0 1665c0,437 -112,767 -337,993 -225,226 -542,338 -954,338 -460,0 -795,-111 -1005,-334 -211,-223 -316,-558 -316,-1004l0 -2655z"/>
   <path class="fil2" d="M8925 6287c-527,-333 -1056,-660 -1585,-991 -35,-23 -72,-32 -106,-10 -39,25 -45,69 -36,113 33,161 70,321 104,482 7,34 2,53 -38,55 -1779,99 -3218,1675 -2736,3540 12,49 26,100 82,119 39,13 79,1 106,-26 22,-20 36,-49 38,-83 100,-1447 1543,-2155 2790,-2226 32,-2 54,13 58,50 30,211 94,448 139,659 10,52 33,80 76,88 46,8 76,-21 100,-56 352,-521 701,-1057 1038,-1589 31,-48 18,-95 -30,-125zm-3898 4019c527,334 1057,661 1584,992 37,22 73,31 108,9 38,-25 43,-70 34,-113 -33,-160 -70,-321 -103,-481 -7,-34 -2,-53 39,-55 1778,-100 3218,-1676 2735,-3541 -12,-48 -27,-101 -81,-118 -40,-13 -79,-2 -107,25 -21,20 -36,49 -39,84 -98,1447 -1542,2155 -2789,2225 -33,2 -53,-13 -59,-50 -28,-211 -93,-448 -137,-659 -12,-52 -34,-79 -76,-87 -48,-9 -77,20 -101,56 -352,521 -702,1057 -1038,1588 -30,49 -18,95 30,125z"/>
   <path class="fil3" d="M12063 14597l-1270 -2050c-44,-72 -100,-132 -161,-180 -173,-136 -402,-178 -611,-110l-283 -457 -93 -150 -117 -188 -135 -217c105,-91 205,-186 298,-286 1182,-1265 1418,-3250 460,-4796 -136,-218 -289,-418 -458,-598 -281,-304 -604,-551 -952,-740 -417,-226 -869,-369 -1334,-422 -141,-16 -283,-24 -426,-24 -688,2 -1384,201 -2006,615 -1115,743 -1722,1995 -1722,3274 0,717 193,1442 594,2090 795,1283 2196,1917 3565,1761 382,-43 762,-149 1125,-318l147 237 486 786c-199,229 -235,575 -67,848l1462 2359c130,209 348,322 571,322 125,0 252,-36 365,-111l47 -32 503 -334c314,-210 406,-644 204,-970l-192 -309zm-7761 -4541c-927,-1495 -551,-3470 827,-4494 45,-33 91,-65 138,-97 660,-439 1418,-595 2140,-499 22,3 43,6 64,9 809,126 1567,570 2089,1289 44,62 88,125 129,191 3,4 5,7 7,11 119,192 216,392 293,597 180,479 245,986 203,1481 -82,991 -591,1933 -1461,2513 -413,274 -862,437 -1318,499 -34,5 -67,8 -101,11 -772,77 -1552,-138 -2186,-610 -318,-237 -599,-539 -824,-901z"/>
   <path class="fil2" d="M54070 5678l-15050 0 0 8856 15050 0c864,0 1565,-726 1565,-1622l0 -5611c0,-897 -701,-1623 -1565,-1623z"/>
   <path class="fil1" d="M41486 9102c10,56 34,109 73,160 39,51 96,100 171,149 76,48 182,99 319,155 234,96 418,198 555,304 136,107 239,224 310,350 71,127 117,270 139,430 23,159 34,341 34,544 0,243 -22,464 -64,662 -41,197 -112,366 -212,505 -100,140 -236,248 -408,324 -171,75 -386,113 -646,113 -234,0 -436,-35 -605,-106 -168,-72 -305,-171 -411,-296 -105,-125 -182,-271 -231,-437 -49,-165 -73,-342 -73,-530l1005 -197c10,193 37,337 84,434 46,96 132,144 257,144 73,0 130,-18 171,-53 41,-35 73,-81 94,-137 22,-56 36,-121 44,-198 6,-76 10,-151 10,-227 0,-106 -7,-195 -21,-266 -16,-71 -40,-131 -77,-182 -37,-51 -87,-95 -151,-133 -63,-38 -142,-77 -235,-117 -249,-107 -450,-217 -602,-331 -151,-114 -267,-235 -348,-365 -81,-128 -133,-265 -158,-409 -24,-144 -36,-303 -36,-475 0,-217 24,-419 73,-604 49,-184 126,-342 231,-474 106,-131 242,-235 411,-312 169,-75 373,-113 612,-113 255,0 466,42 632,125 166,84 297,191 392,319 96,130 163,273 202,430 40,157 60,310 60,457l-985 220c0,-76 -4,-147 -10,-212 -8,-67 -24,-126 -47,-180 -25,-53 -57,-95 -98,-125 -41,-30 -98,-45 -171,-45 -68,0 -121,16 -159,49 -39,33 -69,73 -91,121 -22,48 -37,103 -44,164 -7,61 -11,119 -11,175 0,71 5,134 15,190zm12291 2358c0,456 -109,793 -330,1012 -219,218 -545,326 -975,326 -867,0 -1300,-445 -1300,-1338l0 -2715c0,-457 115,-793 346,-1008 230,-216 548,-323 954,-323 445,0 774,107 986,323 214,215 319,551 319,1008l0 2715zm-1305 -3080c-84,0 -155,25 -213,76 -59,50 -88,134 -88,251l0 2799c0,122 29,206 88,254 58,49 129,73 213,73 83,0 152,-24 208,-73 56,-48 85,-132 85,-254l0 -2799c0,-117 -29,-201 -85,-251 -56,-51 -125,-76 -208,-76zm-1960 4373l-997 0 0 -2472 -30 0 -241 821 -197 617 -665 0 -212 -677 -234 -784 -36 0 0 2495 -998 0 0 -5293 932 0 506 1414 345 1050 44 0 352 -1073 500 -1391 931 0 0 5293zm-4264 -1293c0,456 -109,793 -330,1012 -219,218 -545,326 -975,326 -867,0 -1300,-445 -1300,-1338l0 -3993 999 0 0 4016c0,122 29,206 88,254 58,49 129,73 213,73 83,0 152,-24 208,-73 57,-48 85,-132 85,-254l0 -4016 1012 0 0 3993z"/>
  </g>
 </g>
</svg>
