<?xml version="1.0" ?><!DOCTYPE svg  PUBLIC '-//W3C//DTD SVG 1.1//EN'  'http://www.w3.org/Graphics/SVG/1.1/DTD/svg11.dtd'><svg height="128px" id="Layer_1" style="enable-background:new 0 0 128 128;" version="1.1" viewBox="0 0 128 128" width="128px" xml:space="preserve" xmlns="http://www.w3.org/2000/svg" xmlns:xlink="http://www.w3.org/1999/xlink"><g><circle cx="64" cy="64" r="64" style="fill:#F2CF61;"/><g><path d="M83.613,32.548l-2.617,12.288c-2.514-2.513-6.182-3.771-11.002-3.771s-8.724,1.73-11.71,5.19    c-1.686,1.952-2.884,4.393-3.593,7.319H79.09l-1.419,6.876H53.804c-0.03,0.681-0.044,1.553-0.044,2.618    c0,1.035,0.029,2.113,0.089,3.237h22.58l-1.42,6.876H54.78c0.739,3.165,1.878,5.649,3.416,7.452    c2.957,3.49,6.802,5.235,11.535,5.235c5.678,0,10.202-1.745,13.574-5.235v13.575c-3.845,1.922-8.326,2.884-13.441,2.884    c-8.637,0-15.734-2.957-21.293-8.873c-3.786-4.021-6.285-9.033-7.497-15.038h-6.565l1.419-6.876h4.348    c-0.03-0.71-0.044-1.464-0.044-2.263c0-1.36,0.029-2.558,0.088-3.594h-5.811l1.419-6.876h5.279    c1.242-5.885,3.711-10.81,7.409-14.772c5.589-5.974,12.938-8.961,22.047-8.961C75.629,29.842,79.947,30.744,83.613,32.548z" style="fill:#F5F5F5;"/></g></g></svg>