<?xml version="1.0" ?><!DOCTYPE svg  PUBLIC '-//W3C//DTD SVG 1.1//EN'  'http://www.w3.org/Graphics/SVG/1.1/DTD/svg11.dtd'><svg height="128px" id="Layer_1" style="enable-background:new 0 0 128 128;" version="1.1" viewBox="0 0 128 128" width="128px" xml:space="preserve" xmlns="http://www.w3.org/2000/svg" xmlns:xlink="http://www.w3.org/1999/xlink"><g><circle cx="64" cy="64" r="64" style="fill:#fff;"/><g><path d="M83.65,82.356l4.791,10.559c-1.686,0.917-3.631,1.663-5.832,2.24    c-2.204,0.577-4.34,0.864-6.41,0.864c-2.662,0-6.211-0.629-10.646-1.886c-4.437-1.257-7.72-1.885-9.849-1.885    c-3.609,0-7.291,1.286-11.046,3.859l-4.747-10.736c3.342-2.396,5.745-4.946,7.209-7.652s2.196-5.285,2.196-7.739    c0-0.8-0.06-1.643-0.178-2.529h-9.227v-9.804h6.965c-1.213-3.489-1.819-7.023-1.819-10.604c0-3.224,0.879-6.3,2.64-9.228    c1.759-2.928,4.251-5.152,7.475-6.676c3.223-1.523,6.743-2.285,10.559-2.285c5.826,0,10.47,1.472,13.93,4.414    s5.574,7.164,6.344,12.664l-12.021,1.774c-0.563-3.164-1.584-5.44-3.062-6.831c-1.479-1.391-3.327-2.085-5.545-2.085    c-2.367,0-4.333,0.791-5.9,2.373c-1.568,1.582-2.351,3.571-2.351,5.967c0,1.242,0.214,2.884,0.643,4.924    c0.429,2.041,0.954,3.904,1.575,5.591h13.84v9.804H61.384c0.089,0.65,0.133,1.302,0.133,1.952c0,2.337-0.443,4.496-1.331,6.477    c-0.887,1.981-2.706,4.585-5.457,7.809c1.626-0.827,3.667-1.242,6.122-1.242c1.035,0,1.966,0.06,2.794,0.178    c0.414,0.06,1.626,0.341,3.638,0.843c3.578,0.917,6.018,1.375,7.32,1.375C76.908,84.841,79.926,84.014,83.65,82.356z" style="fill:#000;"/></g></g></svg>