<svg xmlns="http://www.w3.org/2000/svg" viewBox="0 0 41.999 41.999">
  <defs>
    <style>
      .cls-1 {
        fill: #1db6ad;
      }
    </style>
  </defs>
  <path id="Subtraction_1" data-name="Subtraction 1" class="cls-1" d="M-230,53a20.869,20.869,0,0,1-8.174-1.65,20.929,20.929,0,0,1-6.675-4.5,20.93,20.93,0,0,1-4.5-6.675A20.87,20.87,0,0,1-251,32a20.87,20.87,0,0,1,1.65-8.174,20.93,20.93,0,0,1,4.5-6.675,20.93,20.93,0,0,1,6.675-4.5A20.869,20.869,0,0,1-230,11a20.87,20.87,0,0,1,8.174,1.65,20.929,20.929,0,0,1,6.675,4.5,20.929,20.929,0,0,1,4.5,6.675A20.869,20.869,0,0,1-209,32a20.869,20.869,0,0,1-1.65,8.174,20.928,20.928,0,0,1-4.5,6.675,20.93,20.93,0,0,1-6.675,4.5A20.869,20.869,0,0,1-230,53Zm-1.624-14.328V42.2h3.635V38.565h5.457v-2.52h-5.457V34.523l.1-.2h5.36V31.8h-3.741l5.961-9.8h-3.634l-5.661,9.3h-.2l-5.458-9.3H-239l5.855,9.8h-3.839V34.32h5.36l.1.2v1.522h-5.555v2.626Z" transform="translate(251 -11)"/>
</svg>
