<?xml version="1.0" ?><svg data-name="Layer 1" id="Layer_1" viewBox="0 0 128 128" xmlns="http://www.w3.org/2000/svg"><defs><style>.cls-1{fill:#ff7d00;}.cls-2{fill:#fff;}</style></defs><title/><circle class="cls-1" cx="66.31" cy="64" r="60"/><path class="cls-2" d="M62,93.19a43.66,43.66,0,0,1-8.3-1,22.75,22.75,0,0,1-5.56-1.92l3.24-9.44a19.4,19.4,0,0,0,4.19,1.66A33,33,0,0,0,62,83.58v-17Q59.4,65.46,56.87,64a20.41,20.41,0,0,1-4.52-3.42,15.28,15.28,0,0,1-3.2-4.8,16.71,16.71,0,0,1-1.2-6.64Q47.94,42,51.72,38A18.16,18.16,0,0,1,62,32.88v-7.6h8.69v7.27a32.72,32.72,0,0,1,6.38,1,38.35,38.35,0,0,1,5.06,1.75l-3,9.27a29.2,29.2,0,0,0-3.57-1.24,30.17,30.17,0,0,0-4.89-.93V57.86q2.58,1.17,5.19,2.63A21.63,21.63,0,0,1,80.51,64a16.52,16.52,0,0,1,3.32,4.72,15,15,0,0,1,1.29,6.47q0,7.69-3.86,12a18.2,18.2,0,0,1-10.59,5.56v7.77H62ZM58.8,48.34a5.23,5.23,0,0,0,1.9,4.12,21.37,21.37,0,0,0,4.86,3.05V42.15q-4,.16-5.37,1.9A6.62,6.62,0,0,0,58.8,48.34Zm15.45,28A5.35,5.35,0,0,0,72.19,72a23.94,23.94,0,0,0-5.11-3.1v14.7a8.35,8.35,0,0,0,5.45-2.31A7.07,7.07,0,0,0,74.26,76.32Z"/></svg>