<?xml version="1.0" standalone="no"?>
<!DOCTYPE svg PUBLIC "-//W3C//DTD SVG 20010904//EN"
 "http://www.w3.org/TR/2001/REC-SVG-20010904/DTD/svg10.dtd">
<svg version="1.0" xmlns="http://www.w3.org/2000/svg"
 width="960.000000pt" height="960.000000pt" viewBox="0 0 960.000000 960.000000"
 preserveAspectRatio="xMidYMid meet">
<metadata>
Created by potrace 1.11, written by Peter Selinger 2001-2013
</metadata>
<g transform="translate(0.000000,960.000000) scale(0.100000,-0.100000)"
fill="#000000" stroke="none">
<path d="M6352 7504 c-1 -1155 -1 -2116 -1 -2137 l-1 -39 -22 27 c-13 15 -30
35 -38 44 -8 9 -51 59 -94 111 -44 52 -87 102 -95 111 -9 9 -32 36 -50 59 -19
23 -40 48 -45 54 -6 6 -45 51 -86 101 -41 49 -84 100 -95 112 -22 24 -43 49
-95 112 -19 23 -48 58 -65 76 -16 18 -43 50 -60 70 -16 21 -48 58 -70 83 -22
25 -47 54 -55 66 -8 12 -24 30 -35 41 -11 11 -52 58 -90 105 -39 47 -84 101
-102 120 -35 39 -51 57 -108 126 -22 27 -56 66 -75 89 -20 22 -58 67 -85 100
-27 33 -56 67 -64 76 -9 9 -25 27 -36 40 -41 50 -180 214 -185 219 -3 3 -25
30 -50 60 -25 30 -54 65 -65 76 -11 12 -27 30 -35 40 -23 28 -183 217 -195
230 -6 6 -27 31 -46 54 -18 23 -46 55 -60 70 -14 15 -36 42 -50 59 -13 18 -35
45 -49 60 -30 34 -94 108 -150 176 -40 47 -69 82 -179 209 -179 209 -432 462
-635 636 -27 23 -55 47 -62 53 -28 25 -49 41 -187 148 -172 132 -138 108 -282
204 -66 44 -123 84 -126 88 -3 5 -8 8 -10 6 -2 -1 -23 10 -47 25 -24 15 -54
32 -68 38 -13 6 -24 15 -24 20 0 5 -9 4 -21 -2 -11 -7 -23 -9 -26 -6 -4 3 -11
2 -17 -3 -9 -7 -52 -22 -106 -36 -3 -1 -22 -9 -44 -18 -21 -9 -40 -17 -43 -17
-2 0 -29 -11 -59 -25 -30 -14 -59 -25 -64 -25 -6 0 -10 -4 -10 -8 0 -5 -21
-18 -48 -30 -53 -24 -216 -124 -239 -147 -8 -8 -17 -15 -21 -15 -4 0 -20 -11
-35 -24 -16 -14 -47 -39 -70 -57 -121 -95 -313 -308 -414 -459 -43 -64 -153
-256 -153 -266 0 -2 -12 -29 -26 -61 -14 -32 -29 -67 -34 -78 -12 -28 -51
-137 -55 -155 -2 -8 -17 -69 -34 -135 -30 -123 -35 -151 -48 -265 -10 -85 -10
-5706 -1 -5785 8 -62 13 -96 25 -155 11 -60 12 -63 19 -89 4 -14 7 -29 6 -33
-1 -4 3 -20 9 -35 6 -15 13 -39 15 -53 3 -14 7 -32 11 -40 3 -8 7 -17 8 -20 2
-7 12 -33 42 -115 48 -130 136 -298 219 -418 30 -43 54 -83 54 -88 0 -5 4 -9
8 -9 4 0 26 -24 47 -52 45 -60 262 -280 314 -318 18 -14 43 -33 55 -43 91 -80
471 -292 507 -283 3 0 12 -4 20 -10 8 -6 48 -21 89 -34 41 -12 82 -26 90 -30
9 -4 36 -11 60 -16 51 -9 59 -11 63 -14 1 -1 11 -3 22 -5 39 -6 141 -24 175
-30 19 -4 157 -9 306 -12 l271 -5 0 2146 c0 1181 4 2150 8 2154 3 4 5 2 3 -4
-3 -9 65 -94 130 -161 12 -13 22 -27 22 -30 0 -3 19 -27 43 -52 47 -52 41 -45
222 -261 168 -201 168 -201 180 -214 6 -6 44 -51 85 -101 41 -49 80 -95 85
-101 10 -11 57 -67 164 -193 34 -42 73 -87 85 -101 21 -25 49 -58 130 -154 59
-72 161 -191 216 -256 8 -10 33 -39 55 -66 22 -27 48 -56 58 -66 9 -10 17 -20
17 -23 0 -3 8 -13 18 -23 28 -30 73 -82 151 -177 41 -50 79 -94 85 -100 7 -5
25 -28 41 -49 17 -22 39 -49 50 -61 11 -11 39 -43 61 -70 123 -148 132 -158
155 -183 8 -9 44 -53 80 -97 35 -44 69 -84 76 -90 6 -5 48 -54 93 -109 44 -54
86 -104 93 -110 7 -7 23 -27 37 -45 14 -18 32 -40 40 -49 9 -10 43 -48 75 -86
194 -225 475 -499 710 -691 27 -22 57 -47 66 -55 8 -8 22 -19 31 -25 8 -5 71
-52 139 -103 141 -105 387 -268 400 -264 5 1 9 -2 9 -6 0 -5 18 -17 40 -27 39
-17 41 -17 112 5 40 13 89 30 108 39 19 8 40 16 47 17 51 9 387 197 430 239 8
8 17 15 21 15 4 0 20 11 35 24 16 14 47 39 70 57 60 47 234 223 295 299 29 36
59 72 67 81 8 9 15 20 15 24 0 5 8 18 18 29 48 55 172 285 232 431 14 34 52
139 55 155 2 8 17 69 34 135 30 123 35 151 48 265 10 84 10 5694 1 5780 -8 65
-12 95 -25 160 -11 60 -12 63 -19 89 -4 14 -7 29 -6 33 1 4 -3 20 -9 35 -6 15
-13 39 -15 53 -3 14 -7 32 -11 40 -3 8 -7 17 -8 20 -1 3 -5 14 -9 25 -4 11
-19 52 -33 90 -25 68 -97 219 -143 300 -25 45 -140 217 -150 225 -3 3 -13 16
-22 28 -27 40 -119 141 -192 211 -94 90 -95 91 -151 136 -28 22 -51 43 -53 47
-2 5 -10 8 -17 8 -7 0 -15 3 -17 8 -4 10 -95 72 -106 72 -5 0 -17 9 -27 20
-10 11 -22 20 -27 20 -5 0 -35 15 -66 33 -58 33 -235 116 -262 122 -8 2 -40
13 -70 24 -46 17 -109 36 -192 57 -34 8 -62 14 -98 19 -20 3 -47 8 -60 11 -58
12 -99 15 -367 20 l-281 6 0 -2098z"/>
</g>
</svg>
