<svg xmlns="http://www.w3.org/2000/svg" width="62" height="56" viewBox="0 0 62 56">
  <g fill="none" transform="matrix(-1 0 0 1 62 0)">
    <path fill="#FBD000" d="M55.7721027,17.3332455 C54.9762194,16.537617 53.5681183,16.7212236 52.6497915,17.6392564 L49.5274803,21.0053766 C48.5479317,21.9846116 47.2622742,22.1682181 46.5888345,21.4949941 C45.9153948,20.82177 46.160282,19.475322 47.0786088,18.5572892 L55.1598848,10.4786006 C56.1394334,9.49936567 56.261877,8.0917154 55.4659938,7.35728917 C54.6701105,6.56166076 53.2620094,6.74526731 52.3436826,7.6633001 C52.3436826,7.6633001 31.1609439,28.9004586 30.3650606,29.6348848 C29.5691774,30.4305132 28.0998545,30.9201307 26.9366405,30.0633001 C25.8346483,29.1452673 26.3856444,28.043628 26.9978623,27.4928083 C27.6100802,26.8807864 50.8743596,3.62395584 50.8743596,3.62395584 C51.8539083,2.64472087 51.9763518,1.23707059 51.1804686,0.502644363 C50.3845853,-0.292984053 48.9764842,-0.109377495 48.0581574,0.808655292 L30.3038389,18.5572892 C29.3242903,19.5365241 28.0386327,19.7201307 27.365193,19.0469067 C26.6917534,18.3736826 26.9366405,17.0272345 27.8549673,16.1092017 L39.9156596,4.05237114 C40.8952082,3.07313617 41.0176518,1.66548589 40.2217685,0.931059663 C39.4258853,0.135431248 38.0177842,0.319037805 37.0994573,1.23707059 C37.0994573,1.23707059 19.9573567,18.5572892 16.7126019,21.6173985 C13.4678471,24.7387099 6.91711582,33.4294203 3.48869569,34.4086553 C-0.000946227898,35.4490925 -1.1641602,38.5092017 1.34593311,40.9572892 C3.91724821,43.4665788 5.5090147,48.3627537 4.89679682,51.9124804 C4.28457894,55.4622072 6.36611973,56.9310597 9.54965271,55.2786006 C12.7331857,53.6261416 17.8758159,53.6261416 21.0593489,55.2786006 C24.2428818,56.9310597 25.7734265,55.0949941 26.3244226,51.5452673 C26.8141969,48.7299668 34.6505858,41.3857045 35.9362434,40.1004586 C37.2219009,38.8152127 55.3435502,20.5157591 55.3435502,20.5157591 C56.3843206,19.5365241 56.5067641,18.1288739 55.7721027,17.3332455 Z M42.7930836,28.043628 L42.6094183,28.2272345 C41.5686479,29.2676717 40.0993249,29.5124804 39.3034417,28.7780542 C38.5687802,28.043628 38.8136674,26.5747755 39.8544378,25.4731362 L40.0381032,25.2895296 C41.0788736,24.2490925 42.5481965,24.0042837 43.3440797,24.7387099 C44.0787412,25.4731362 43.833854,27.0031908 42.7930836,28.043628 Z"/>
    <path fill="#FFF" d="M13.6515125,32.1441744 C14.5698393,30.3081088 16.0391622,30.3081088 16.8962673,32.1441744 L17.6309287,33.6130269 C18.5492556,35.4490925 20.8756835,37.1627537 22.8960025,37.4075624 L24.5489908,37.6523711 C26.5693098,37.9583821 26.9978623,39.3048302 25.5285394,40.7736826 L24.3653254,41.9365241 C22.8960025,43.3441744 22.0388975,46.0982728 22.3450064,48.1179449 L22.6511154,49.7704039 C23.0184461,51.7900761 21.7940103,52.6469067 20.0185785,51.6676717 L18.5492556,50.8720433 C16.7738237,49.9540105 13.8351779,49.9540105 12.059746,50.8720433 L10.5904231,51.6676717 C8.81499125,52.5857045 7.59055549,51.7288739 7.95788622,49.7704039 L8.26399516,48.1179449 C8.63132589,46.0982728 7.71299907,43.3441744 6.24367615,41.9365241 L5.08046218,40.7736826 C3.61113927,39.3660323 4.10091357,37.9583821 6.06001079,37.6523711 L7.71299907,37.4075624 C9.73331807,37.1015515 12.059746,35.3878903 12.9780728,33.6130269 L13.6515125,32.1441744 Z"/>
    <path fill="#FBD000" d="M17.8145941,12.3146662 C17.2023762,11.7026444 17.3860416,10.4173985 18.3043684,9.56056786 L21.0593489,6.8064695 C21.9776757,5.88843671 23.2021114,5.70483016 23.8143293,6.31685201 C24.4265472,6.92887387 24.2428818,8.21411977 23.324555,9.07095037 L20.5695746,11.8250487 C19.7124695,12.7430815 18.426812,12.9266881 17.8145941,12.3146662 Z"/>
    <path fill="#EAEAEA" d="M21.1205707,50.2600214 L19.6512477,49.464393 C17.8758159,48.5463602 14.9371701,48.5463602 13.1617382,49.464393 L11.6924153,50.2600214 C9.91698344,51.1780542 8.69254768,50.3212236 9.0598784,48.3627537 L9.36598734,46.7102946 C9.73331807,44.6906225 8.81499125,41.9365241 7.34566834,40.5288739 L6.18245437,39.3660323 C5.63145827,38.8152127 5.38657112,38.3255952 5.32534933,37.8359777 C3.97847,38.3255952 3.79480463,39.5496389 5.01924039,40.7736826 L6.18245437,41.9365241 C7.65177728,43.3441744 8.50888231,46.0982728 8.20277337,48.1179449 L7.89666443,49.7704039 C7.5293337,51.7900761 8.75376946,52.6469067 10.5292013,51.6676717 L11.9985242,50.8720433 C13.7739561,49.9540105 16.7126019,49.9540105 18.4880338,50.8720433 L19.9573567,51.6676717 C21.4266796,52.4633001 22.5286718,51.9736826 22.6511154,50.6272345 C22.2225628,50.6884367 21.7327885,50.5660323 21.1205707,50.2600214 Z"/>
    <path fill="#FBD000" d="M30.0589517 52.096087C29.385512 51.4228629 29.6303992 50.0764149 30.548726 49.1583821L33.0588193 46.6490925C34.0383679 45.6698575 35.3240255 45.4862509 35.9974651 46.159475 36.6709048 46.832699 36.4260177 48.1791471 35.5076908 49.1583821L33.0588193 51.6064695C32.0792707 52.5245023 30.7323914 52.769311 30.0589517 52.096087zM57.6087563 15.3747755C56.9353167 14.7015515 57.1802038 13.3551034 58.0985306 12.4370706L58.1597524 12.3758684C59.0780792 11.4578356 60.4249586 11.2130269 61.0983983 11.8862509 61.7718379 12.559475 61.5269508 13.9059231 60.6086239 14.8239558L60.5474022 14.885158C59.6290753 15.8031908 58.282196 16.0479996 57.6087563 15.3747755z"/>
    <path fill="#663210" d="M21.4266796,52.4633001 C20.9369053,52.4633001 20.3859092,52.3408957 19.7736913,52.0348848 L18.3043684,51.2392564 C17.5084852,50.8720433 16.406493,50.6272345 15.3045008,50.6272345 C14.1412868,50.6272345 13.0392946,50.8720433 12.3046332,51.2392564 L10.8353103,51.9736826 C9.54965271,52.6469067 8.38643874,52.5245023 7.71299907,51.7900761 C7.40689013,51.4228629 7.0395594,50.6884367 7.28444655,49.464393 L7.59055549,47.8731362 C7.89666443,46.0982728 7.0395594,43.5889832 5.69268006,42.3649394 L4.4682443,41.2633001 C3.24380854,40.1616608 3.36625212,39.1824258 3.48869569,38.6928083 C3.67236106,38.2031908 4.16213536,37.4075624 5.81512364,37.1627537 L7.46811191,36.9179449 C9.30476556,36.6731362 11.5699717,35.0818793 12.365855,33.4906225 L13.1005164,32.02177 C13.8351779,30.5529176 14.8147265,30.369311 15.3045008,30.369311 C15.7942751,30.369311 16.7738237,30.6141198 17.5084852,32.02177 L18.2431466,33.4906225 C19.0390299,35.0818793 21.304236,36.6731362 23.1408897,36.9179449 L24.7938779,37.1627537 C26.4468662,37.4075624 26.9978623,38.2031908 27.1203059,38.6928083 C27.3039712,39.1824258 27.365193,40.1004586 26.1407573,41.2633001 L24.9163215,42.3649394 C23.5694422,43.5889832 22.7123371,46.159475 23.0184461,47.8731362 L23.324555,49.464393 C23.5694422,50.6884367 23.2021114,51.4228629 22.8960025,51.7900761 C22.5898936,52.2184914 22.0388975,52.4633001 21.4266796,52.4633001 Z M15.3045008,49.464393 C16.6513801,49.464393 17.9370377,49.7092017 18.9165863,50.1988192 L20.3859092,50.9332455 C21.1205707,51.3004586 21.7327885,51.3616608 21.9776757,51.0556498 C22.2225628,50.8108411 22.2837846,50.3212236 22.161341,49.7092017 L21.8552321,48.1179449 C21.4879014,45.9758684 22.46745,43.0381635 24.0592165,41.5081088 L25.2836522,40.4064695 C25.7734265,39.916852 26.0183137,39.4272345 25.9570919,39.1212236 C25.8346483,38.8152127 25.344874,38.5092017 24.6102126,38.4479996 L22.9572243,38.1419886 C20.6920181,37.8359777 18.120703,36.0611143 17.1411544,34.0414422 L16.406493,32.5725897 C16.100384,31.9605679 15.6718315,31.5933547 15.3045008,31.5933547 C14.9371701,31.5933547 14.5086175,31.9605679 14.2025086,32.5725897 L13.4678471,34.1026444 C12.4882985,36.0611143 9.91698344,37.8359777 7.65177728,38.2031908 L5.93756721,38.3867974 C5.20290576,38.5092017 4.71313145,38.7540105 4.59068788,39.0600214 C4.4682443,39.3660323 4.71313145,39.916852 5.26412754,40.3452673 L6.48856331,41.4469067 C8.14155158,42.9769613 9.12110019,45.853464 8.69254768,48.0567427 L8.38643874,49.6479996 C8.26399516,50.2600214 8.32521695,50.7496389 8.5701041,50.9944476 C8.81499125,51.3004586 9.42720913,51.2392564 10.1618706,50.8720433 L11.6311935,50.137617 C12.6719639,49.7092017 13.9576214,49.464393 15.3045008,49.464393 Z"/>
    <path fill="#FBD000" d="M21.7327885,40.2228629 C21.7327885,40.2228629 21.6715667,40.2228629 21.6715667,40.2228629 C16.2228276,39.5496389 15.0596136,35.0818793 15.0596136,34.8982728 C14.9983918,34.5310597 15.1820572,34.2250487 15.4881662,34.1026444 C15.7942751,34.0414422 16.1616058,34.2250487 16.2228276,34.5922618 L16.2228276,34.5922618 C16.2840494,34.7758684 17.2023762,38.3867974 21.7940103,38.937617 C22.161341,38.9988192 22.3450064,39.3048302 22.3450064,39.6720433 C22.2837846,39.9780542 22.0388975,40.2228629 21.7327885,40.2228629 Z"/>
  </g>
</svg>
