<svg xmlns="http://www.w3.org/2000/svg" xmlns:xlink="http://www.w3.org/1999/xlink" width="129" height="129" viewBox="0 0 129 129">
  <defs>
    <filter id="Ellipse_131" x="0" y="0" width="129" height="129" filterUnits="userSpaceOnUse">
      <feOffset dy="7" input="SourceAlpha"/>
      <feGaussianBlur stdDeviation="7.5" result="blur"/>
      <feFlood flood-color="#6a9dbc" flood-opacity="0.2"/>
      <feComposite operator="in" in2="blur"/>
      <feComposite in="SourceGraphic"/>
    </filter>
  </defs>
  <g id="Group_940" data-name="Group 940" transform="translate(-115.5 -1319.5)">
    <g transform="matrix(1, 0, 0, 1, 115.5, 1319.5)" filter="url(#Ellipse_131)">
      <circle id="Ellipse_131-2" data-name="Ellipse 131" cx="42" cy="42" r="42" transform="translate(22.5 15.5)" fill="#fff"/>
    </g>
    <g id="Group_857" data-name="Group 857" transform="translate(5520.979 -2322.018)">
      <circle id="Ellipse_134" data-name="Ellipse 134" cx="3.757" cy="3.757" r="3.757" transform="translate(-5353.343 3706.844)" fill="#effafa"/>
      <circle id="Ellipse_135" data-name="Ellipse 135" cx="3.757" cy="3.757" r="3.757" transform="translate(-5353.343 3706.844)" fill="#effafa"/>
      <circle id="Ellipse_136" data-name="Ellipse 136" cx="3.757" cy="3.757" r="3.757" transform="translate(-5336.097 3707.144)" fill="#effafa"/>
      <path id="Path_448" data-name="Path 448" d="M-5329.915,3685.65v10.065l-.434,2.5,20.454.351-1.129-13.638-9.089,2.427-9.527-2.427Z" transform="translate(-20.74 -2.05)" fill="#effafa"/>
      <g id="incognito" transform="translate(-5360 3682)">
        <g id="Group_854" data-name="Group 854" transform="translate(5.154 23.692)">
          <g id="Group_853" data-name="Group 853">
            <path id="Path_446" data-name="Path 446" d="M11.192,29.5a5.154,5.154,0,1,0,5.192,5.154A5.174,5.174,0,0,0,11.192,29.5Zm0,8.59a3.436,3.436,0,1,1,3.461-3.436A3.449,3.449,0,0,1,11.192,38.09ZM28.5,29.5a5.154,5.154,0,1,0,5.192,5.154A5.174,5.174,0,0,0,28.5,29.5Zm0,8.59a3.436,3.436,0,1,1,3.461-3.436A3.449,3.449,0,0,1,28.5,38.09Z" transform="translate(-6 -29.5)" fill="#2cc5bd" stroke="#2cc5bd" stroke-width="0.5" fill-rule="evenodd"/>
          </g>
        </g>
        <g id="Group_856" data-name="Group 856" transform="translate(0 0)">
          <g id="Group_855" data-name="Group 855">
            <path id="Path_447" data-name="Path 447" d="M37.136,19.946H.864a.872.872,0,0,0,0,1.745H37.136a.872.872,0,0,0,0-1.745ZM9.5,18.2h19a1.737,1.737,0,0,0,1.727-1.745L29.364,4.245A1.737,1.737,0,0,0,27.636,2.5S19,5.117,18.946,5.117,10.364,2.5,10.364,2.5A1.737,1.737,0,0,0,8.636,4.245L7.773,16.457A1.737,1.737,0,0,0,9.5,18.2Zm.864-13.957S19.024,6.862,19,6.862s8.636-2.617,8.636-2.617L28.5,16.457H9.5Zm11.4,29.447c-2.023-2.045-3.577-2.045-5.6,0l.011.011a.868.868,0,0,0,.582,1.508.849.849,0,0,0,.636-.293c1.35-1.356,1.8-1.354,3.15.007a.856.856,0,0,0,.613.259.873.873,0,0,0,.607-1.492h0Z" transform="translate(0 -2.5)" fill="#2cc5bd" stroke="#2cc5bd" stroke-width="0.5" fill-rule="evenodd"/>
          </g>
        </g>
      </g>
    </g>
  </g>
</svg>
