<svg xmlns="http://www.w3.org/2000/svg" width="54.406" height="53.931" viewBox="0 0 54.406 53.931">
  <g id="settings" transform="translate(0 -2.138)">
    <g id="Group_872" data-name="Group 872" transform="translate(0 2.138)">
      <path id="XMLID_698_" d="M211.451,28.619h1.976a11.989,11.989,0,0,0,1.787,4.318l-1.4,1.4a1.279,1.279,0,0,0,0,1.809l1.521,1.521a1.279,1.279,0,0,0,1.809,0l1.4-1.4a11.876,11.876,0,0,0,4.318,1.787v1.976a1.277,1.277,0,0,0,1.276,1.276h2.153a1.277,1.277,0,0,0,1.276-1.276V38.054a11.989,11.989,0,0,0,4.318-1.787l1.4,1.4a1.279,1.279,0,0,0,1.809,0l1.521-1.521a1.279,1.279,0,0,0,0-1.809l-1.4-1.4A11.876,11.876,0,0,0,237,28.619h1.976a1.277,1.277,0,0,0,1.276-1.276V25.2a1.277,1.277,0,0,0-1.276-1.276H237a11.989,11.989,0,0,0-1.787-4.318l1.4-1.4a1.279,1.279,0,0,0,0-1.809l-1.532-1.521a1.279,1.279,0,0,0-1.809,0l-1.4,1.4a11.876,11.876,0,0,0-4.318-1.787V12.514a1.277,1.277,0,0,0-1.276-1.276h-2.153a1.277,1.277,0,0,0-1.276,1.276V14.49a11.989,11.989,0,0,0-4.318,1.787l-1.387-1.4a1.28,1.28,0,0,0-1.809,0L213.816,16.4a1.279,1.279,0,0,0,0,1.809l1.4,1.4a11.876,11.876,0,0,0-1.787,4.318h-1.976a1.277,1.277,0,0,0-1.276,1.276v2.153A1.267,1.267,0,0,0,211.451,28.619ZM225.2,20.828a5.45,5.45,0,1,1-5.45,5.45A5.452,5.452,0,0,1,225.2,20.828Z" transform="translate(-186.847 -10.228)" fill="#d3d3d3"/>
      <path id="Path_465" data-name="Path 465" d="M38.434,142.576a.747.747,0,0,1-.977.411l-2.508-1.043a1,1,0,0,0-1.221.366,15.357,15.357,0,0,1-4.273,4.273,1,1,0,0,0-.366,1.221l1.032,2.508a.747.747,0,0,1-.411.977l-2.73,1.143a.747.747,0,0,1-.977-.411l-1.043-2.508a1,1,0,0,0-1.121-.6,15.356,15.356,0,0,1-6.038,0,1,1,0,0,0-1.121.6l-1.043,2.508a.757.757,0,0,1-.977.411l-2.73-1.132a.756.756,0,0,1-.411-.988l1.043-2.508a1,1,0,0,0-.366-1.221,15.357,15.357,0,0,1-4.273-4.273,1,1,0,0,0-1.221-.366l-2.508,1.043a.743.743,0,0,1-.977-.411l-1.132-2.73a.747.747,0,0,1,.411-.977L5,137.825a1,1,0,0,0,.6-1.121,15.357,15.357,0,0,1,0-6.038,1,1,0,0,0-.6-1.121L2.495,128.5a.756.756,0,0,1-.411-.988l1.132-2.73a.756.756,0,0,1,.988-.411l2.508,1.043a1,1,0,0,0,1.221-.366,15.357,15.357,0,0,1,4.273-4.273,1,1,0,0,0,.366-1.221l-1.043-2.508a.756.756,0,0,1,.411-.988l2.73-1.132a.747.747,0,0,1,.977.411l1.043,2.508a1,1,0,0,0,1.854-.766L17.5,114.573a2.769,2.769,0,0,0-3.607-1.5l-2.73,1.132a2.755,2.755,0,0,0-1.5,1.5,2.8,2.8,0,0,0,0,2.12l.733,1.765a17.468,17.468,0,0,0-3.674,3.674l-1.765-.733a2.8,2.8,0,0,0-2.12,0,2.755,2.755,0,0,0-1.5,1.5L.208,126.76a2.8,2.8,0,0,0,0,2.12,2.755,2.755,0,0,0,1.5,1.5l1.765.733a16.982,16.982,0,0,0,0,5.194l-1.765.733a2.769,2.769,0,0,0-1.5,3.607l1.132,2.7a2.765,2.765,0,0,0,3.607,1.5l1.765-.733a17.468,17.468,0,0,0,3.674,3.674l-.733,1.765a2.8,2.8,0,0,0,0,2.12,2.755,2.755,0,0,0,1.5,1.5l2.73,1.132a2.765,2.765,0,0,0,3.607-1.5l.733-1.765a16.981,16.981,0,0,0,5.194,0l.733,1.765a2.774,2.774,0,0,0,2.553,1.709,2.709,2.709,0,0,0,1.054-.211l2.73-1.132a2.769,2.769,0,0,0,1.5-3.607l-.733-1.765a17.468,17.468,0,0,0,3.674-3.674l1.765.733a2.756,2.756,0,0,0,3.607-1.5l1.132-2.73a2.8,2.8,0,0,0,0-2.12,2.755,2.755,0,0,0-1.5-1.5l-2.508-1.043a1,1,0,1,0-.766,1.854l2.508,1.043a.756.756,0,0,1,.411.988Z" transform="translate(0 -100.577)" fill="#8d8d8d"/>
      <path id="Path_466" data-name="Path 466" d="M116.307,222.447a1,1,0,0,0-.011-2.009h-.011a8.874,8.874,0,0,0,.055,17.748h.067a8.868,8.868,0,0,0,8.813-8.935,1,1,0,0,0-1.01-1H124.2a1,1,0,0,0-1,1.01,6.859,6.859,0,0,1-6.815,6.915h-.055a6.867,6.867,0,0,1-4.884-11.687A6.933,6.933,0,0,1,116.307,222.447Z" transform="translate(-95.543 -196.209)" fill="#8d8d8d"/>
      <path id="Path_467" data-name="Path 467" d="M231.054,21.539a2.29,2.29,0,0,0,2.286-2.286V17.111a2.29,2.29,0,0,0-2.286-2.286h-1.165a12.948,12.948,0,0,0-1.31-3.163l.832-.832a2.291,2.291,0,0,0,0-3.23l-1.521-1.521a2.268,2.268,0,0,0-1.609-.666,2.23,2.23,0,0,0-1.609.666l-.832.832a12.7,12.7,0,0,0-3.163-1.31V4.424a2.29,2.29,0,0,0-2.286-2.286h-2.153a2.29,2.29,0,0,0-2.286,2.286V5.6a12.948,12.948,0,0,0-3.163,1.31l-.832-.832a2.268,2.268,0,0,0-1.609-.666,2.23,2.23,0,0,0-1.609.666L205.215,7.6a2.291,2.291,0,0,0,0,3.23l.832.832a12.7,12.7,0,0,0-1.31,3.163h-1.177a2.29,2.29,0,0,0-2.286,2.286v2.153a2.29,2.29,0,0,0,2.286,2.286h1.177a12.948,12.948,0,0,0,1.31,3.163l-.832.832a2.291,2.291,0,0,0,0,3.23l1.521,1.521a2.268,2.268,0,0,0,1.609.666,2.23,2.23,0,0,0,1.609-.666l.832-.832a12.7,12.7,0,0,0,3.163,1.31V31.95a2.29,2.29,0,0,0,2.286,2.286h2.153a2.29,2.29,0,0,0,2.286-2.286V30.763a12.948,12.948,0,0,0,3.163-1.31l.832.832a2.268,2.268,0,0,0,1.609.666,2.23,2.23,0,0,0,1.609-.666l1.521-1.521a2.291,2.291,0,0,0,0-3.23l-.832-.832a12.7,12.7,0,0,0,1.31-3.163Zm-2.952-1.2a10.813,10.813,0,0,1-1.643,3.962,1.006,1.006,0,0,0,.122,1.265l1.4,1.4a.268.268,0,0,1,0,.388l-1.521,1.521a.264.264,0,0,1-.189.078.249.249,0,0,1-.189-.078l-1.4-1.4a1,1,0,0,0-1.265-.122A11.006,11.006,0,0,1,219.455,29a1.01,1.01,0,0,0-.81.988v1.976a.27.27,0,0,1-.266.266h-2.153a.27.27,0,0,1-.266-.266V29.986a1.02,1.02,0,0,0-.81-.988,10.812,10.812,0,0,1-3.962-1.643,1.014,1.014,0,0,0-.555-.166.983.983,0,0,0-.71.3l-1.4,1.4a.264.264,0,0,1-.189.078.249.249,0,0,1-.189-.078l-1.521-1.521a.268.268,0,0,1,0-.388l1.4-1.4a1,1,0,0,0,.122-1.265,11.006,11.006,0,0,1-1.643-3.962,1.01,1.01,0,0,0-.988-.81h-1.976a.27.27,0,0,1-.266-.266V17.111a.27.27,0,0,1,.266-.266h1.976a1.02,1.02,0,0,0,.988-.81,10.812,10.812,0,0,1,1.643-3.962,1.006,1.006,0,0,0-.122-1.265l-1.4-1.4a.264.264,0,0,1-.078-.189.249.249,0,0,1,.078-.189L208.134,7.5a.264.264,0,0,1,.189-.078.249.249,0,0,1,.189.078l1.4,1.4a1,1,0,0,0,1.265.122,11.006,11.006,0,0,1,3.962-1.643,1.01,1.01,0,0,0,.81-.988V4.424a.27.27,0,0,1,.266-.266h2.153a.27.27,0,0,1,.266.266V6.4a1.02,1.02,0,0,0,.81.988,10.812,10.812,0,0,1,3.962,1.643,1.006,1.006,0,0,0,1.265-.122l1.4-1.4a.264.264,0,0,1,.189-.078.249.249,0,0,1,.189.078l1.521,1.521a.268.268,0,0,1,0,.388l-1.4,1.4a1,1,0,0,0-.122,1.265,11.006,11.006,0,0,1,1.643,3.962,1.01,1.01,0,0,0,.988.81h1.976a.27.27,0,0,1,.266.266v2.153a.27.27,0,0,1-.266.266h-1.976A.968.968,0,0,0,228.1,20.341Z" transform="translate(-178.935 -2.138)" fill="#8d8d8d"/>
      <path id="Path_468" data-name="Path 468" d="M294.024,88.538a6.449,6.449,0,1,0,6.449,6.449A6.454,6.454,0,0,0,294.024,88.538Zm0,10.888a4.44,4.44,0,1,1,4.44-4.44A4.438,4.438,0,0,1,294.024,99.426Z" transform="translate(-255.657 -78.948)" fill="#8d8d8d"/>
    </g>
  </g>
</svg>
