<?xml version="1.0" encoding="utf-8"?>
<!-- Generator: Adobe Illustrator 23.0.4, SVG Export Plug-In . SVG Version: 6.00 Build 0)  -->
<svg version="1.1" id="Group_865" xmlns="http://www.w3.org/2000/svg" xmlns:xlink="http://www.w3.org/1999/xlink" x="0px" y="0px"
	 viewBox="0 0 73.5 45.2" style="enable-background:new 0 0 73.5 45.2;" xml:space="preserve">
<style type="text/css">
	.st0{fill:url(#Path_458_1_);}
	.st1{fill:url(#Path_459_1_);}
	.st2{fill:url(#Path_460_1_);}
	.st3{fill:url(#Path_461_1_);}
	.st4{fill:url(#Path_462_1_);}
	.st5{fill:url(#Path_463_1_);}
</style>
<g id="Group_864" transform="translate(39.705)">
	
		<linearGradient id="Path_458_1_" gradientUnits="userSpaceOnUse" x1="-268.2788" y1="268.4948" x2="-267.2788" y2="268.4948" gradientTransform="matrix(61.318 0 0 -45.153 16422.7656 12145.9219)">
		<stop  offset="0" style="stop-color:#63DCCB"/>
		<stop  offset="0.827" style="stop-color:#00B6A0"/>
	</linearGradient>
	<path id="Path_458" class="st0" d="M33.7,31c-0.3-2.9-0.9-5.8-1.8-8.6C28.1,10.7,18.1,6,16.8,5.2c-0.1,0-0.2-0.1-0.3-0.1
		C19.7,1.3,18.5,0,18.5,0S12.2,2,1,0.3S-12,3.9-12,3.9h-15.6l6.2,10.3c1.4-3.2,6.6-5,11.3-4.4c4.7,0.6,5.8,2.2,6.8,3.2
		c-4.2,0.3-10,4.8-11.8,5.9c-0.7,0.5-1.5,0.7-2.4,0.7c-0.4,0-0.8-0.1-1.1-0.1c0,0,2,3.4,3.4,5.9c4.9-2.9,10.4-4.4,16-4.4
		c9.7,0,18.8,4.5,24.7,12.2c2.5,3.3,4.3,7.2,5.3,11.2c0.1,0.3,0.1,0.5,0.2,0.8c0.4-0.9,0.8-1.8,1.1-2.7c0.6-2.1,1.1-4.2,1.5-6.4
		c0.1-1.2,0.2-2.4,0.2-3.6C33.8,32,33.7,31.5,33.7,31z M-3.2,6.3c-1.4,0.2-3,0.3-4-1.2C-7.2,5-7.3,4.9-7.3,4.7
		C-5.9,4.8-4.4,4.6-3,4.1c1-0.5,2.1-0.5,3,0C0,4.1-1.6,6.1-3.2,6.3z"/>
	
		<linearGradient id="Path_459_1_" gradientUnits="userSpaceOnUse" x1="-267.5466" y1="266.5009" x2="-266.5466" y2="266.5009" gradientTransform="matrix(49.697 0 0 -32.29 13277.665 8634.3223)">
		<stop  offset="0" style="stop-color:#63DCCB"/>
		<stop  offset="0.294" style="stop-color:#33CAB6"/>
		<stop  offset="0.633" style="stop-color:#00B6A0"/>
	</linearGradient>
	<path id="Path_459" class="st1" d="M0.3,12.9c-1.8,0-3.6,0.2-5.3,0.5c-4,1.1-8.5,4.6-10.2,5.6c-0.7,0.5-1.5,0.7-2.4,0.7
		c-0.4,0-0.8-0.1-1.1-0.1c0,0,2,3.4,3.4,5.9c4.9-2.9,10.4-4.4,16-4.4c9.7,0,18.8,4.5,24.7,12.2c2.5,3.3,4.3,7.2,5.3,11.2
		c0.1,0.3,0.1,0.5,0.2,0.8l0-0.1c0-0.5,0-1,0-1.4C31.1,26.6,17.3,12.9,0.3,12.9z"/>
	
		<linearGradient id="Path_460_1_" gradientUnits="userSpaceOnUse" x1="-267.4068" y1="265.3696" x2="-266.4068" y2="265.3696" gradientTransform="matrix(47.962 0 0 -27.797 12808.3418 7407.4058)">
		<stop  offset="0" style="stop-color:#63DCCB"/>
		<stop  offset="0.167" style="stop-color:#5BD9C8"/>
		<stop  offset="0.427" style="stop-color:#45D1BE"/>
		<stop  offset="0.744" style="stop-color:#22C3AF"/>
		<stop  offset="1" style="stop-color:#00B6A0"/>
	</linearGradient>
	<path id="Path_460" class="st2" d="M0.2,17C-6,17-11.9,18.8-17,22.2c0.6,1,1.3,2.2,1.9,3.1c4.9-2.9,10.4-4.4,16-4.4
		c9.7,0,18.8,4.5,24.7,12.2c2.5,3.3,4.3,7.2,5.3,11.2c0,0.2,0.1,0.3,0.1,0.5C29.3,29,16,17,0.2,17z"/>
	
		<linearGradient id="Path_461_1_" gradientUnits="userSpaceOnUse" x1="-261.9358" y1="250.3051" x2="-260.9658" y2="250.3051" gradientTransform="matrix(23.578 0 0 -9.7435 6167.5967 2455.8713)">
		<stop  offset="0" style="stop-color:#63DCCB"/>
		<stop  offset="1" style="stop-color:#00B6A0"/>
	</linearGradient>
	<path id="Path_461" class="st3" d="M-39.7,12.1c0,0,1.6,5.9,9.4,7.2c-1.5,0.9-3.3,1.5-5,1.6c10.4,3.5,17.8-4.3,19.2-5.9
		C-24,18.3-32.9,17.2-39.7,12.1z"/>
	
		<linearGradient id="Path_462_1_" gradientUnits="userSpaceOnUse" x1="-261.9369" y1="242.3717" x2="-260.9669" y2="242.3717" gradientTransform="matrix(23.581 0 0 -7.2603 6168.4165 1775.4619)">
		<stop  offset="0" style="stop-color:#63DCCB"/>
		<stop  offset="0.102" style="stop-color:#46D1BE"/>
		<stop  offset="0.219" style="stop-color:#2CC7B3"/>
		<stop  offset="0.349" style="stop-color:#19BFAB"/>
		<stop  offset="0.498" style="stop-color:#0BBAA5"/>
		<stop  offset="0.681" style="stop-color:#02B7A1"/>
		<stop  offset="1" style="stop-color:#00B6A0"/>
	</linearGradient>
	<path id="Path_462" class="st4" d="M-39.7,12.1c0,0,5,14.2,23.6,2.9C-21.7,15.4-29.8,19.5-39.7,12.1z"/>
	
		<linearGradient id="Path_463_1_" gradientUnits="userSpaceOnUse" x1="-265.8524" y1="266.9018" x2="-264.8524" y2="266.9018" gradientTransform="matrix(34.5474 0 0 -34.2515 9181.2129 9169.4824)">
		<stop  offset="0" style="stop-color:#63DCCB;stop-opacity:0"/>
		<stop  offset="0.45" style="stop-color:#61DBCA;stop-opacity:0.451"/>
		<stop  offset="0.612" style="stop-color:#5AD9C7;stop-opacity:0.612"/>
		<stop  offset="0.728" style="stop-color:#4FD4C2;stop-opacity:0.729"/>
		<stop  offset="0.821" style="stop-color:#3ECEBB;stop-opacity:0.824"/>
		<stop  offset="0.901" style="stop-color:#28C5B1;stop-opacity:0.902"/>
		<stop  offset="0.971" style="stop-color:#0DBBA6;stop-opacity:0.973"/>
		<stop  offset="0.999" style="stop-color:#00B6A0"/>
	</linearGradient>
	<path id="Path_463" class="st5" d="M-3.3,13c0,0,28.3-5.7,34.2,31.8C32.6,40.6,28.8,0.4-3.3,13z"/>
</g>
</svg>
