<svg xmlns="http://www.w3.org/2000/svg" xmlns:xlink="http://www.w3.org/1999/xlink" width="129" height="129" viewBox="0 0 129 129">
  <defs>
    <filter id="Ellipse_133" x="0" y="0" width="129" height="129" filterUnits="userSpaceOnUse">
      <feOffset dy="7" input="SourceAlpha"/>
      <feGaussianBlur stdDeviation="7.5" result="blur"/>
      <feFlood flood-color="#6a9dbc" flood-opacity="0.2"/>
      <feComposite operator="in" in2="blur"/>
      <feComposite in="SourceGraphic"/>
    </filter>
    <linearGradient id="linear-gradient" y1="0.5" x2="1" y2="0.5" gradientUnits="objectBoundingBox">
      <stop offset="0" stop-color="#63dccb"/>
      <stop offset="0.827" stop-color="#00b6a0"/>
    </linearGradient>
    <linearGradient id="linear-gradient-2" y1="0.5" x2="1" y2="0.5" gradientUnits="objectBoundingBox">
      <stop offset="0" stop-color="#63dccb"/>
      <stop offset="0.167" stop-color="#5bd9c8"/>
      <stop offset="0.427" stop-color="#45d1be"/>
      <stop offset="0.744" stop-color="#22c3af"/>
      <stop offset="1" stop-color="#00b6a0"/>
    </linearGradient>
    <linearGradient id="linear-gradient-3" x1="1.331" y1="2.094" x2="2.301" y2="2.094" gradientUnits="objectBoundingBox">
      <stop offset="0" stop-color="#63dccb"/>
      <stop offset="1" stop-color="#00b6a0"/>
    </linearGradient>
    <linearGradient id="linear-gradient-4" x1="1.331" y1="2.653" x2="2.301" y2="2.653" gradientUnits="objectBoundingBox">
      <stop offset="0" stop-color="#63dccb"/>
      <stop offset="0.102" stop-color="#46d1be"/>
      <stop offset="0.219" stop-color="#2cc7b3"/>
      <stop offset="0.349" stop-color="#19bfab"/>
      <stop offset="0.498" stop-color="#0bbaa5"/>
      <stop offset="0.681" stop-color="#02b7a1"/>
      <stop offset="1" stop-color="#00b6a0"/>
    </linearGradient>
    <linearGradient id="linear-gradient-5" x1="0.5" x2="0.5" y2="1" gradientUnits="objectBoundingBox">
      <stop offset="0" stop-color="#85e6d9" stop-opacity="0"/>
      <stop offset="1" stop-color="#63dccb"/>
    </linearGradient>
  </defs>
  <g id="Group_938" data-name="Group 938" transform="translate(-795.5 -1319.5)">
    <g transform="matrix(1, 0, 0, 1, 795.5, 1319.5)" filter="url(#Ellipse_133)">
      <circle id="Ellipse_133-2" data-name="Ellipse 133" cx="42" cy="42" r="42" transform="translate(22.5 15.5)" fill="#fff"/>
    </g>
    <g id="Group_863" data-name="Group 863" transform="translate(828.251 1364.908)">
      <path id="Path_452" data-name="Path 452" d="M91.653,21.874a26.791,26.791,0,0,0-1.289-6.041C87.693,7.534,80.628,4.262,79.731,3.7c-.064-.032-.13-.062-.2-.092C81.719.905,80.876,0,80.876,0S76.465,1.417,68.507.234s-9.14,2.5-9.14,2.5H48.36l4.367,7.276c.955-2.228,4.685-3.547,8-3.092s4.094,1.546,4.775,2.274c-3,.227-7.049,3.366-8.368,4.184a3.235,3.235,0,0,1-1.665.509,3.337,3.337,0,0,1-.79-.1s1.4,2.432,2.432,4.136A22.432,22.432,0,0,1,68.441,14.8a22.038,22.038,0,0,1,17.418,8.615,21.553,21.553,0,0,1,3.749,7.924c.044.19.091.378.13.568q.431-.94.772-1.924a29.557,29.557,0,0,0,1.026-4.5,21.8,21.8,0,0,0,.147-2.515C91.68,22.6,91.671,22.234,91.653,21.874ZM65.6,4.431c-1.015.146-2.112.236-2.808-.849-.048-.075-.092-.153-.135-.236a7.8,7.8,0,0,0,3.037-.465,2.393,2.393,0,0,1,2.139,0A4.764,4.764,0,0,1,65.6,4.431Z" transform="translate(-39.775)" fill="url(#linear-gradient)"/>
      <path id="Path_453" data-name="Path 453" d="M97.357,51.19a21.791,21.791,0,0,0-3.753.325c-2.8.77-6.027,3.252-7.179,3.966a3.235,3.235,0,0,1-1.665.509,3.337,3.337,0,0,1-.79-.1s1.4,2.432,2.432,4.136A22.432,22.432,0,0,1,97.728,56.9a22.038,22.038,0,0,1,17.418,8.615,21.525,21.525,0,0,1,3.749,7.924c.044.19.091.378.13.568l.032-.073c.016-.337.025-.678.025-1.019A21.724,21.724,0,0,0,97.357,51.19Z" transform="translate(-69.064 -42.103)" fill="#3bd8c2"/>
      <path id="Path_454" data-name="Path 454" d="M102.406,67.72A21.748,21.748,0,0,0,90.26,71.405c.421.719.9,1.527,1.315,2.215A22.432,22.432,0,0,1,102.9,70.495a22.038,22.038,0,0,1,17.418,8.615,21.524,21.524,0,0,1,3.749,7.924c.025.108.051.217.076.325A21.853,21.853,0,0,0,102.406,67.72Z" transform="translate(-74.237 -55.698)" fill="url(#linear-gradient-2)"/>
      <path id="Path_455" data-name="Path 455" d="M0,48.33s1.129,4.179,6.666,5.111a8.261,8.261,0,0,1-3.552,1.147c7.367,2.457,12.542-3.027,13.545-4.181A17.2,17.2,0,0,1,0,48.33Z" transform="translate(0 -39.751)" fill="url(#linear-gradient-3)"/>
      <path id="Path_456" data-name="Path 456" d="M0,48.33s3.552,10,16.66,2.075C12.739,50.664,6.991,53.5,0,48.33Z" transform="translate(0 -39.751)" fill="url(#linear-gradient-4)"/>
      <path id="Path_457" data-name="Path 457" d="M144.94,43.756s19.967-4.024,24.176,22.467C170.307,63.262,167.581,34.815,144.94,43.756Z" transform="translate(-119.21 -34.564)" fill="url(#linear-gradient-5)"/>
    </g>
  </g>
</svg>
