<svg xmlns="http://www.w3.org/2000/svg" xmlns:xlink="http://www.w3.org/1999/xlink" width="129" height="129" viewBox="0 0 129 129">
  <defs>
    <filter id="Ellipse_114" x="0" y="0" width="129" height="129" filterUnits="userSpaceOnUse">
      <feOffset dy="7" input="SourceAlpha"/>
      <feGaussianBlur stdDeviation="7.5" result="blur"/>
      <feFlood flood-color="#6a9dbc" flood-opacity="0.2"/>
      <feComposite operator="in" in2="blur"/>
      <feComposite in="SourceGraphic"/>
    </filter>
  </defs>
  <g id="Group_935" data-name="Group 935" transform="translate(-115.5 -1058.5)">
    <g transform="matrix(1, 0, 0, 1, 115.5, 1058.5)" filter="url(#Ellipse_114)">
      <circle id="Ellipse_114-2" data-name="Ellipse 114" cx="42" cy="42" r="42" transform="translate(22.5 15.5)" fill="#fff"/>
    </g>
    <g id="Group_162" data-name="Group 162" transform="translate(161 1097)">
      <circle id="Ellipse_105" data-name="Ellipse 105" cx="19" cy="19" r="19" fill="#2cc5bd" opacity="0.07"/>
      <path id="Path_101" data-name="Path 101" d="M19,2.621A16.379,16.379,0,1,1,2.621,19,16.385,16.385,0,0,1,19,2.621M19,0A19,19,0,1,0,38,19,19.014,19.014,0,0,0,19,0Z" fill="#2cc5bd"/>
      <g id="Group_113" data-name="Group 113" transform="translate(3.931 3.866)">
        <path id="Path_102" data-name="Path 102" d="M28.655,5.9A.619.619,0,0,0,28,6.555V7.21a.655.655,0,1,0,1.31,0V6.555A.619.619,0,0,0,28.655,5.9Z" transform="translate(-13.586 -5.9)" fill="#2cc5bd"/>
        <path id="Path_103" data-name="Path 103" d="M28.655,48.9a.619.619,0,0,0-.655.655v.655a.655.655,0,0,0,1.31,0v-.655A.619.619,0,0,0,28.655,48.9Z" transform="translate(-13.586 -20.728)" fill="#2cc5bd"/>
        <path id="Path_104" data-name="Path 104" d="M50.31,27.9h-.655a.655.655,0,1,0,0,1.31h.655a.655.655,0,0,0,0-1.31Z" transform="translate(-20.828 -13.486)" fill="#2cc5bd"/>
        <path id="Path_105" data-name="Path 105" d="M7.31,27.9H6.655a.655.655,0,1,0,0,1.31H7.31a.655.655,0,1,0,0-1.31Z" transform="translate(-6 -13.486)" fill="#2cc5bd"/>
        <path id="Path_106" data-name="Path 106" d="M43.455,12.5,43,12.955a.633.633,0,0,0,0,.917.633.633,0,0,0,.917,0l.459-.459a.649.649,0,0,0-.917-.917Z" transform="translate(-18.69 -8.107)" fill="#2cc5bd"/>
        <path id="Path_107" data-name="Path 107" d="M13.055,42.9l-.459.459a.633.633,0,0,0,0,.917.633.633,0,0,0,.917,0l.459-.459a.649.649,0,1,0-.917-.917Z" transform="translate(-8.207 -18.59)" fill="#2cc5bd"/>
        <path id="Path_108" data-name="Path 108" d="M44.014,42.9a.649.649,0,0,0-.917.917l.459.459a.633.633,0,0,0,.917,0,.633.633,0,0,0,0-.917Z" transform="translate(-18.724 -18.59)" fill="#2cc5bd"/>
        <path id="Path_109" data-name="Path 109" d="M13.614,12.5a.649.649,0,1,0-.917.917l.459.459a.633.633,0,0,0,.917,0,.633.633,0,0,0,0-.917Z" transform="translate(-8.241 -8.107)" fill="#2cc5bd"/>
      </g>
      <path id="Path_110" data-name="Path 110" d="M22.9,29.21H17.655a.655.655,0,1,1,0-1.31H22.9a.655.655,0,0,1,0,1.31Z" transform="translate(-5.862 -9.621)" fill="#2cc5bd"/>
      <path id="Path_111" data-name="Path 111" d="M28.655,22.417A.619.619,0,0,1,28,21.762V14.555a.655.655,0,0,1,1.31,0v7.207A.657.657,0,0,1,28.655,22.417Z" transform="translate(-9.655 -4.793)" fill="#2cc5bd"/>
      <path id="Path_112" data-name="Path 112" d="M27.621,30.141a2.621,2.621,0,1,1,2.621-2.621A2.628,2.628,0,0,1,27.621,30.141Zm0-3.931a1.31,1.31,0,1,0,1.31,1.31A1.314,1.314,0,0,0,27.621,26.21Z" transform="translate(-8.621 -8.586)" fill="#2cc5bd"/>
    </g>
  </g>
</svg>
