<svg id="Group_865" data-name="Group 865" xmlns="http://www.w3.org/2000/svg" xmlns:xlink="http://www.w3.org/1999/xlink" width="113.177" height="46.315" viewBox="0 0 113.177 46.315">
  <defs>
    <linearGradient id="linear-gradient" y1="0.5" x2="1" y2="0.5" gradientUnits="objectBoundingBox">
      <stop offset="0" stop-color="#63dccb"/>
      <stop offset="0.827" stop-color="#00b6a0"/>
    </linearGradient>
    <linearGradient id="linear-gradient-2" y1="0.5" x2="1" y2="0.5" gradientUnits="objectBoundingBox">
      <stop offset="0" stop-color="#63dccb"/>
      <stop offset="0.294" stop-color="#33cab6"/>
      <stop offset="0.633" stop-color="#00b6a0"/>
    </linearGradient>
    <linearGradient id="linear-gradient-3" y1="0.5" x2="1" y2="0.5" gradientUnits="objectBoundingBox">
      <stop offset="0" stop-color="#63dccb"/>
      <stop offset="0.167" stop-color="#5bd9c8"/>
      <stop offset="0.427" stop-color="#45d1be"/>
      <stop offset="0.744" stop-color="#22c3af"/>
      <stop offset="1" stop-color="#00b6a0"/>
    </linearGradient>
    <linearGradient id="linear-gradient-4" x1="1.331" y1="2.094" x2="2.301" y2="2.094" gradientUnits="objectBoundingBox">
      <stop offset="0" stop-color="#63dccb"/>
      <stop offset="1" stop-color="#00b6a0"/>
    </linearGradient>
    <linearGradient id="linear-gradient-5" x1="1.331" y1="2.653" x2="2.301" y2="2.653" gradientUnits="objectBoundingBox">
      <stop offset="0" stop-color="#63dccb"/>
      <stop offset="0.102" stop-color="#46d1be"/>
      <stop offset="0.219" stop-color="#2cc7b3"/>
      <stop offset="0.349" stop-color="#19bfab"/>
      <stop offset="0.498" stop-color="#0bbaa5"/>
      <stop offset="0.681" stop-color="#02b7a1"/>
      <stop offset="1" stop-color="#00b6a0"/>
    </linearGradient>
    <linearGradient id="linear-gradient-6" y1="0.5" x2="1" y2="0.5" gradientUnits="objectBoundingBox">
      <stop offset="0" stop-color="#63dccb" stop-opacity="0"/>
      <stop offset="0.45" stop-color="#61dbca" stop-opacity="0.451"/>
      <stop offset="0.612" stop-color="#5ad9c7" stop-opacity="0.612"/>
      <stop offset="0.728" stop-color="#4fd4c2" stop-opacity="0.729"/>
      <stop offset="0.821" stop-color="#3ecebb" stop-opacity="0.824"/>
      <stop offset="0.901" stop-color="#28c5b1" stop-opacity="0.902"/>
      <stop offset="0.971" stop-color="#0dbba6" stop-opacity="0.973"/>
      <stop offset="0.999" stop-color="#00b6a0"/>
    </linearGradient>
  </defs>
  <g id="Group_864" data-name="Group 864" transform="translate(39.705)">
    <path id="Path_458" data-name="Path 458" d="M355.223,30.961a37.921,37.921,0,0,0-1.824-8.55c-3.781-11.747-13.782-16.377-15.051-17.169-.09-.045-.183-.088-.276-.131,3.091-3.829,1.9-5.111,1.9-5.111s-6.244,2.005-17.508.332-12.938,3.54-12.938,3.54H293.95l6.179,10.3c1.352-3.153,6.631-5.02,11.329-4.377s5.794,2.188,6.759,3.219c-4.249.322-9.978,4.764-11.845,5.922a4.579,4.579,0,0,1-2.357.721,4.723,4.723,0,0,1-1.118-.143s1.982,3.442,3.442,5.854a31.751,31.751,0,0,1,16.031-4.425,31.192,31.192,0,0,1,24.654,12.194,30.506,30.506,0,0,1,5.307,11.216c.063.269.128.535.183.8q.611-1.33,1.093-2.724a41.835,41.835,0,0,0,1.452-6.372,30.873,30.873,0,0,0,.209-3.56Q355.261,31.724,355.223,30.961ZM318.35,6.272c-1.437.206-2.99.334-3.975-1.2-.068-.106-.131-.216-.191-.334a11.043,11.043,0,0,0,4.3-.658,3.387,3.387,0,0,1,3.028,0S319.885,6.05,318.35,6.272Z" transform="translate(-281.796 0)" fill="url(#linear-gradient)"/>
    <path id="Path_459" data-name="Path 459" d="M348.5,51.19a30.844,30.844,0,0,0-5.312.46c-3.96,1.09-8.53,4.6-10.161,5.613a4.579,4.579,0,0,1-2.357.721,4.724,4.724,0,0,1-1.118-.143s1.982,3.442,3.442,5.854a31.751,31.751,0,0,1,16.031-4.425,31.192,31.192,0,0,1,24.654,12.194,30.464,30.464,0,0,1,5.307,11.216c.063.269.128.535.183.8l.045-.1c.023-.477.035-.96.035-1.442A30.749,30.749,0,0,0,348.5,51.19Z" transform="translate(-308.451 -38.328)" fill="url(#linear-gradient-2)"/>
    <path id="Path_460" data-name="Path 460" d="M353.031,67.72a30.783,30.783,0,0,0-17.191,5.216c.6,1.018,1.271,2.161,1.862,3.136a31.751,31.751,0,0,1,16.031-4.425,31.192,31.192,0,0,1,24.654,12.194,30.465,30.465,0,0,1,5.307,11.216c.035.153.073.307.108.46A30.932,30.932,0,0,0,353.031,67.72Z" transform="translate(-313.161 -50.704)" fill="url(#linear-gradient-3)"/>
    <path id="Path_461" data-name="Path 461" d="M245.58,48.33s1.6,5.915,9.435,7.234a11.692,11.692,0,0,1-5.028,1.623c10.427,3.477,17.752-4.284,19.171-5.917A24.346,24.346,0,0,1,245.58,48.33Z" transform="translate(-245.58 -36.186)" fill="url(#linear-gradient-4)"/>
    <path id="Path_462" data-name="Path 462" d="M245.58,48.33s5.028,14.154,23.581,2.937C263.611,51.634,255.475,55.644,245.58,48.33Z" transform="translate(-245.58 -36.186)" fill="url(#linear-gradient-5)"/>
    <path id="Path_463" data-name="Path 463" d="M390.52,44.476s28.262-5.7,34.219,31.8C426.425,72.084,422.566,31.819,390.52,44.476Z" transform="translate(-354.102 -31.465)" fill="url(#linear-gradient-6)"/>
  </g>
  <text id="DRAGONDEX" transform="translate(0 42.315)" fill="#fff" font-size="15" font-family="ClanOffcPro-Bold, Clan Offc Pro" font-weight="700"><tspan x="0" y="0">DRAGONDEX</tspan></text>
</svg>
