<?xml version="1.0" encoding="utf-8"?>
<!-- Generator: Adobe Illustrator 23.0.4, SVG Export Plug-In . SVG Version: 6.00 Build 0)  -->
<svg version="1.1" id="Group_865" xmlns="http://www.w3.org/2000/svg" xmlns:xlink="http://www.w3.org/1999/xlink" x="0px" y="0px"
	 viewBox="0 0 112.1 45.2" style="enable-background:new 0 0 112.1 45.2;" xml:space="preserve">
<style type="text/css">
	.st0{fill:url(#Path_458_1_);}
	.st1{fill:url(#Path_459_1_);}
	.st2{fill:url(#Path_460_1_);}
	.st3{fill:url(#Path_461_1_);}
	.st4{fill:url(#Path_462_1_);}
	.st5{fill:url(#Path_463_1_);}
	.st6{enable-background:new    ;}
	.st7{fill:#FFFFFF;}
</style>
<g id="Group_864" transform="translate(39.705)">
	
		<linearGradient id="Path_458_1_" gradientUnits="userSpaceOnUse" x1="-229.6387" y1="268.4948" x2="-228.6387" y2="268.4948" gradientTransform="matrix(61.318 0 0 -45.153 14092.0752 12145.9219)">
		<stop  offset="0" style="stop-color:#63DCCB"/>
		<stop  offset="0.827" style="stop-color:#00B6A0"/>
	</linearGradient>
	<path id="Path_458" class="st0" d="M72.4,31c-0.3-2.9-0.9-5.8-1.8-8.6C66.8,10.7,56.8,6,55.5,5.2c-0.1,0-0.2-0.1-0.3-0.1
		C58.3,1.3,57.1,0,57.1,0s-6.2,2-17.5,0.3S26.7,3.9,26.7,3.9H11.1l6.2,10.3c1.4-3.2,6.6-5,11.3-4.4c4.7,0.6,5.8,2.2,6.8,3.2
		c-4.2,0.3-10,4.8-11.8,5.9c-0.7,0.5-1.5,0.7-2.4,0.7c-0.4,0-0.8-0.1-1.1-0.1c0,0,2,3.4,3.4,5.9c4.9-2.9,10.4-4.4,16-4.4
		c9.7,0,18.8,4.5,24.7,12.2c2.5,3.3,4.3,7.2,5.3,11.2c0.1,0.3,0.1,0.5,0.2,0.8c0.4-0.9,0.8-1.8,1.1-2.7c0.6-2.1,1.1-4.2,1.5-6.4
		c0.1-1.2,0.2-2.4,0.2-3.6C72.4,32,72.4,31.5,72.4,31z M35.5,6.3c-1.4,0.2-3,0.3-4-1.2c-0.1-0.1-0.1-0.2-0.2-0.3
		c1.5,0.1,2.9-0.2,4.3-0.7c1-0.5,2.1-0.5,3,0C38.7,4.1,37,6.1,35.5,6.3z"/>
	
		<linearGradient id="Path_459_1_" gradientUnits="userSpaceOnUse" x1="-228.9065" y1="266.5009" x2="-227.9065" y2="266.5009" gradientTransform="matrix(49.697 0 0 -32.29 11396.0088 8634.3223)">
		<stop  offset="0" style="stop-color:#63DCCB"/>
		<stop  offset="0.294" style="stop-color:#33CAB6"/>
		<stop  offset="0.633" style="stop-color:#00B6A0"/>
	</linearGradient>
	<path id="Path_459" class="st1" d="M39,12.9c-1.8,0-3.6,0.2-5.3,0.5c-4,1.1-8.5,4.6-10.2,5.6c-0.7,0.5-1.5,0.7-2.4,0.7
		c-0.4,0-0.8-0.1-1.1-0.1c0,0,2,3.4,3.4,5.9c4.9-2.9,10.4-4.4,16-4.4c9.7,0,18.8,4.5,24.7,12.2c2.5,3.3,4.3,7.2,5.3,11.2
		c0.1,0.3,0.1,0.5,0.2,0.8l0-0.1c0-0.5,0-1,0-1.4C69.7,26.6,56,12.9,39,12.9z"/>
	
		<linearGradient id="Path_460_1_" gradientUnits="userSpaceOnUse" x1="-228.7668" y1="265.3696" x2="-227.7668" y2="265.3696" gradientTransform="matrix(47.962 0 0 -27.797 10993.7275 7407.4058)">
		<stop  offset="0" style="stop-color:#63DCCB"/>
		<stop  offset="0.167" style="stop-color:#5BD9C8"/>
		<stop  offset="0.427" style="stop-color:#45D1BE"/>
		<stop  offset="0.744" style="stop-color:#22C3AF"/>
		<stop  offset="1" style="stop-color:#00B6A0"/>
	</linearGradient>
	<path id="Path_460" class="st2" d="M38.8,17c-6.1,0-12.1,1.8-17.2,5.2c0.6,1,1.3,2.2,1.9,3.1c4.9-2.9,10.4-4.4,16-4.4
		c9.7,0,18.8,4.5,24.7,12.2c2.5,3.3,4.3,7.2,5.3,11.2c0,0.2,0.1,0.3,0.1,0.5C68,29,54.7,17,38.8,17z"/>
	
		<linearGradient id="Path_461_1_" gradientUnits="userSpaceOnUse" x1="-223.2958" y1="250.3051" x2="-222.3258" y2="250.3051" gradientTransform="matrix(23.578 0 0 -9.7435 5295.1821 2455.8713)">
		<stop  offset="0" style="stop-color:#63DCCB"/>
		<stop  offset="1" style="stop-color:#00B6A0"/>
	</linearGradient>
	<path id="Path_461" class="st3" d="M-1.1,12.1c0,0,1.6,5.9,9.4,7.2c-1.5,0.9-3.3,1.5-5,1.6c10.4,3.5,17.8-4.3,19.2-5.9
		C14.7,18.3,5.8,17.2-1.1,12.1z"/>
	
		<linearGradient id="Path_462_1_" gradientUnits="userSpaceOnUse" x1="-223.2968" y1="242.3717" x2="-222.3268" y2="242.3717" gradientTransform="matrix(23.581 0 0 -7.2603 5295.8853 1775.4619)">
		<stop  offset="0" style="stop-color:#63DCCB"/>
		<stop  offset="0.102" style="stop-color:#46D1BE"/>
		<stop  offset="0.219" style="stop-color:#2CC7B3"/>
		<stop  offset="0.349" style="stop-color:#19BFAB"/>
		<stop  offset="0.498" style="stop-color:#0BBAA5"/>
		<stop  offset="0.681" style="stop-color:#02B7A1"/>
		<stop  offset="1" style="stop-color:#00B6A0"/>
	</linearGradient>
	<path id="Path_462" class="st4" d="M-1.1,12.1c0,0,5,14.2,23.6,2.9C17,15.4,8.8,19.5-1.1,12.1z"/>
	
		<linearGradient id="Path_463_1_" gradientUnits="userSpaceOnUse" x1="-227.2124" y1="266.9018" x2="-226.2124" y2="266.9018" gradientTransform="matrix(34.5474 0 0 -34.2515 7884.9409 9169.4824)">
		<stop  offset="0" style="stop-color:#63DCCB;stop-opacity:0"/>
		<stop  offset="0.45" style="stop-color:#61DBCA;stop-opacity:0.451"/>
		<stop  offset="0.612" style="stop-color:#5AD9C7;stop-opacity:0.612"/>
		<stop  offset="0.728" style="stop-color:#4FD4C2;stop-opacity:0.729"/>
		<stop  offset="0.821" style="stop-color:#3ECEBB;stop-opacity:0.824"/>
		<stop  offset="0.901" style="stop-color:#28C5B1;stop-opacity:0.902"/>
		<stop  offset="0.971" style="stop-color:#0DBBA6;stop-opacity:0.973"/>
		<stop  offset="0.999" style="stop-color:#00B6A0"/>
	</linearGradient>
	<path id="Path_463" class="st5" d="M35.4,13c0,0,28.3-5.7,34.2,31.8C71.3,40.6,67.4,0.4,35.4,13z"/>
</g>
<g class="st6">
	<path class="st7" d="M9.3,36.6c0,1-0.1,1.9-0.3,2.6S8.4,40.5,8,41c-0.4,0.5-0.9,0.8-1.6,1s-1.4,0.3-2.2,0.3H0V31.1h4.2
		c0.9,0,1.7,0.1,2.3,0.3c0.6,0.2,1.2,0.6,1.6,1c0.4,0.5,0.7,1,0.9,1.7S9.3,35.7,9.3,36.6z M6.6,36.6c0-0.7,0-1.2-0.1-1.6
		c-0.1-0.4-0.2-0.8-0.4-1c-0.2-0.2-0.4-0.4-0.8-0.5c-0.3-0.1-0.7-0.1-1.1-0.1H2.5v6.7h1.7c0.4,0,0.8,0,1.1-0.1
		c0.3-0.1,0.6-0.3,0.8-0.5c0.2-0.2,0.3-0.6,0.4-1C6.6,37.9,6.6,37.4,6.6,36.6z"/>
	<path class="st7" d="M19.3,34.6c0,0.8-0.2,1.5-0.5,2c-0.3,0.5-0.8,0.9-1.4,1.1l2.6,4.7h-3l-2-4.2h-1.6v4.2H11V31.1h4.1
		c1.4,0,2.4,0.3,3.1,0.8C18.9,32.5,19.3,33.4,19.3,34.6z M16.6,34.7c0-0.6-0.1-1-0.3-1.2c-0.2-0.2-0.6-0.3-1.2-0.3h-1.6v3.1h1.6
		c0.6,0,1-0.1,1.2-0.3C16.5,35.7,16.6,35.3,16.6,34.7z"/>
	<path class="st7" d="M27.6,40.1h-4.1l-0.6,2.2h-2.7l3.9-11.2h3L31,42.3h-2.8L27.6,40.1z M25.2,34.2L24.1,38H27l-1.1-3.9L25.6,33h0
		L25.2,34.2z"/>
	<path class="st7" d="M40.1,41.9c-0.4,0.2-0.9,0.4-1.5,0.5c-0.6,0.1-1.2,0.2-1.8,0.2c-1,0-1.8-0.1-2.5-0.4c-0.7-0.2-1.2-0.6-1.7-1.1
		c-0.4-0.5-0.7-1.1-0.9-1.8c-0.2-0.7-0.3-1.6-0.3-2.5c0-2,0.4-3.4,1.3-4.4c0.9-1,2.2-1.4,4.1-1.4c0.5,0,1.1,0,1.6,0.1
		c0.5,0.1,1,0.2,1.5,0.4l-0.2,2.2c-0.4-0.1-0.8-0.3-1.3-0.4s-0.9-0.1-1.4-0.1c-0.6,0-1,0.1-1.4,0.2c-0.4,0.1-0.7,0.3-0.9,0.6
		c-0.2,0.3-0.4,0.6-0.5,1.1S34,36,34,36.7c0,0.7,0,1.3,0.1,1.7c0.1,0.5,0.2,0.8,0.4,1.1c0.2,0.3,0.5,0.5,0.8,0.6s0.7,0.2,1.2,0.2
		c0.5,0,0.9,0,1.2-0.2v-3.8h2.2V41.9z"/>
	<path class="st7" d="M51.4,36.7c0,1-0.1,1.9-0.3,2.6c-0.2,0.7-0.5,1.3-0.9,1.8c-0.4,0.5-0.9,0.8-1.5,1c-0.6,0.2-1.4,0.3-2.3,0.3
		c-1.7,0-3-0.5-3.8-1.4c-0.8-0.9-1.2-2.4-1.2-4.4c0-1,0.1-1.9,0.3-2.6c0.2-0.7,0.5-1.3,0.9-1.8c0.4-0.5,0.9-0.8,1.5-1.1
		c0.6-0.2,1.4-0.3,2.3-0.3s1.6,0.1,2.3,0.3c0.6,0.2,1.1,0.6,1.5,1.1c0.4,0.5,0.7,1.1,0.9,1.8C51.3,34.8,51.4,35.7,51.4,36.7z
		 M48.8,36.7c0-0.7,0-1.3-0.1-1.8s-0.2-0.8-0.4-1.1c-0.2-0.3-0.4-0.4-0.7-0.5c-0.3-0.1-0.7-0.2-1.1-0.2s-0.8,0-1.1,0.2
		c-0.3,0.1-0.5,0.3-0.7,0.5c-0.2,0.3-0.3,0.6-0.4,1.1s-0.1,1-0.1,1.8s0,1.3,0.1,1.8s0.2,0.8,0.4,1.1c0.2,0.3,0.4,0.5,0.7,0.6
		c0.3,0.1,0.7,0.2,1.1,0.2c0.4,0,0.8-0.1,1.1-0.2c0.3-0.1,0.5-0.3,0.7-0.6c0.2-0.3,0.3-0.6,0.4-1.1S48.8,37.4,48.8,36.7z"/>
	<path class="st7" d="M60.4,42.3l-4.4-6.1l-0.7-1l0,0l0,1.2v5.9h-2.2V31.1h2.2l4,5.8l0.7,1l0,0l0-1.2v-5.6h2.2v11.2H60.4z"/>
	<path class="st7" d="M73.6,36.6c0,1-0.1,1.9-0.3,2.6s-0.5,1.3-0.9,1.8c-0.4,0.5-0.9,0.8-1.6,1c-0.6,0.2-1.4,0.3-2.2,0.3h-4.2V31.1
		h4.2c0.9,0,1.7,0.1,2.3,0.3c0.6,0.2,1.2,0.6,1.6,1c0.4,0.5,0.7,1,0.9,1.7C73.5,34.8,73.6,35.7,73.6,36.6z M70.9,36.6
		c0-0.7,0-1.2-0.1-1.6s-0.2-0.8-0.4-1s-0.4-0.4-0.8-0.5c-0.3-0.1-0.7-0.1-1.1-0.1h-1.6v6.7h1.7c0.4,0,0.8,0,1.1-0.1
		c0.3-0.1,0.6-0.3,0.8-0.5c0.2-0.2,0.3-0.6,0.4-1C70.9,37.9,70.9,37.4,70.9,36.6z"/>
	<path class="st7" d="M83,40.1L83,42.3h-7.7V31.1h7.4l0,2.2h-4.9v2.2H82v2h-4.2v2.6H83z"/>
	<path class="st7" d="M90.7,36.4l3.3,5.9h-2.9l-1.6-3.2L88.9,38h0l-0.5,1.1l-1.6,3.2h-2.9l3.2-5.8l-3.1-5.4h3l1.5,2.8l0.5,1.1h0
		l0.5-1.1l1.5-2.8h2.9L90.7,36.4z"/>
</g>
</svg>
