<svg width="291" height="77" viewBox="0 0 291 77" fill="none" xmlns="http://www.w3.org/2000/svg">
<line x1="134.5" y1="16" x2="134.5" y2="59" stroke="#0A0A0A"/>
<path d="M168.818 46.8101V54.6199H166.146V47.3577C166.146 45.0005 165.12 43.7505 163.163 43.7505C161.122 43.7505 159.673 45.3874 159.673 47.6792V54.6258H157V41.6492H158.861L159.38 43.4588C160.365 42.1492 161.97 41.3516 163.879 41.3516C166.915 41.3575 168.818 43.6195 168.818 46.8101Z" fill="#212121" fill-opacity="0.56"/>
<path d="M189.33 49.0417H178.777C179.111 51.143 180.626 52.4347 182.756 52.4347C184.307 52.4347 185.566 51.7204 186.252 50.5358H189.068C188.036 53.274 185.661 54.9347 182.756 54.9347C178.956 54.9347 176.074 52.0061 176.074 48.1309C176.074 44.2499 178.944 41.3271 182.756 41.3271C186.735 41.3271 189.384 44.3868 189.384 48.1607C189.384 48.4583 189.36 48.75 189.33 49.0417ZM178.842 46.875H186.705C186.228 44.9046 184.737 43.7439 182.756 43.7439C180.746 43.7439 179.278 44.9523 178.842 46.875Z" fill="#212121" fill-opacity="0.56"/>
<path d="M198.833 54.626L195.593 49.6854L192.318 54.626H189.383L194 47.9175L189.735 41.6494H192.742L195.611 46.0127L198.582 41.6494H201.517L197.192 47.7865L201.84 54.626H198.833Z" fill="#212121" fill-opacity="0.56"/>
<path d="M208.653 54.9406C204.781 54.9406 201.84 52 201.84 48.1249C201.84 44.2498 204.775 41.333 208.659 41.333C211.874 41.333 214.386 43.2974 215.108 46.2737H212.459C211.773 44.7796 210.347 43.8807 208.653 43.8807C206.314 43.8807 204.56 45.726 204.56 48.1309C204.56 50.5357 206.338 52.3929 208.653 52.3929C210.353 52.3929 211.731 51.4762 212.441 49.8988H215.138C214.422 52.9286 211.863 54.9406 208.653 54.9406Z" fill="#212121" fill-opacity="0.56"/>
<path d="M228.99 46.8039V54.6196H226.318V47.3575C226.318 45.0062 225.309 43.7502 223.335 43.7502C221.312 43.7502 219.845 45.3812 219.845 47.6789V54.6256H217.172V37H219.845V43.1252C220.841 42.018 222.332 41.3573 224.068 41.3573C227.099 41.3573 228.99 43.4645 228.99 46.8039Z" fill="#212121" fill-opacity="0.56"/>
<path d="M244.973 41.6425V54.6192H242.819L242.557 53.0417C241.381 54.2323 239.735 54.9406 237.844 54.9406C233.972 54.9406 231.072 52.0179 231.072 48.1309C231.072 44.2319 233.966 41.333 237.844 41.333C239.759 41.333 241.417 42.0533 242.598 43.2676L242.909 41.6425H244.973ZM242.294 48.1309C242.294 45.6843 240.504 43.8748 238.052 43.8748C235.6 43.8748 233.793 45.7022 233.793 48.1309C233.793 50.5595 235.6 52.387 238.052 52.387C240.504 52.387 242.294 50.5774 242.294 48.1309Z" fill="#212121" fill-opacity="0.56"/>
<path d="M260.008 46.8101V54.6199H257.335V47.3577C257.335 45.0005 256.309 43.7505 254.352 43.7505C252.312 43.7505 250.862 45.3874 250.862 47.6792V54.6258H248.189V41.6492H250.051L250.57 43.4588C251.554 42.1492 253.159 41.3516 255.068 41.3516C258.111 41.3575 260.008 43.6195 260.008 46.8101Z" fill="#212121" fill-opacity="0.56"/>
<path d="M275.434 41.6493V52.9235C275.434 57.0605 272.97 59.5904 268.943 59.5904C265.614 59.5904 263.251 57.8641 262.583 55.0188H265.25C265.751 56.4415 267.278 57.2272 268.919 57.2272C271.168 57.2272 272.809 55.751 272.809 53.2925V52.6973C271.681 53.6735 270.19 54.2509 268.507 54.2509C264.886 54.2509 262.082 51.4413 262.082 47.8102C262.082 44.1851 264.892 41.3457 268.507 41.3457C270.416 41.3457 272.087 42.1017 273.25 43.3339L273.674 41.6612L275.434 41.6493ZM268.818 51.7687C271.132 51.7687 272.809 50.09 272.809 47.7983C272.809 45.5006 271.138 43.822 268.818 43.822C266.503 43.822 264.808 45.5185 264.808 47.7983C264.808 50.0722 266.497 51.7687 268.818 51.7687Z" fill="#212121" fill-opacity="0.56"/>
<path d="M290.946 49.0417H280.392C280.726 51.143 282.241 52.4347 284.371 52.4347C285.922 52.4347 287.181 51.7204 287.867 50.5358H290.683C289.651 53.274 287.277 54.9347 284.371 54.9347C280.571 54.9347 277.689 52.0061 277.689 48.1309C277.689 44.2499 280.559 41.3271 284.371 41.3271C288.351 41.3271 290.999 44.3868 290.999 48.1607C290.999 48.4583 290.976 48.75 290.946 49.0417ZM280.458 46.875H288.321C287.843 44.9046 286.352 43.7439 284.371 43.7439C282.361 43.7439 280.893 44.9523 280.458 46.875Z" fill="#212121" fill-opacity="0.56"/>
<path d="M172.983 54.6199C173.79 54.6199 174.445 53.9669 174.445 53.1615C174.445 52.3561 173.79 51.7031 172.983 51.7031C172.176 51.7031 171.521 52.3561 171.521 53.1615C171.521 53.9669 172.176 54.6199 172.983 54.6199Z" fill="#212121" fill-opacity="0.56"/>
<path d="M14.7776 59V44.54L0.497578 17H9.31758L18.1976 35H19.2776L28.1576 17H36.9776L22.6976 44.54V59H14.7776ZM56.0398 59.84C50.7598 59.84 46.5598 58.4 43.4398 55.52C40.3198 52.6 38.7598 48.44 38.7598 43.04V32.96C38.7598 27.56 40.3198 23.42 43.4398 20.54C46.5598 17.62 50.7598 16.16 56.0398 16.16C61.3198 16.16 65.5198 17.62 68.6398 20.54C71.7598 23.42 73.3198 27.56 73.3198 32.96V43.04C73.3198 48.44 71.7598 52.6 68.6398 55.52C65.5198 58.4 61.3198 59.84 56.0398 59.84ZM56.0398 52.76C58.9998 52.76 61.2998 51.9 62.9398 50.18C64.5798 48.46 65.3998 46.16 65.3998 43.28V32.72C65.3998 29.84 64.5798 27.54 62.9398 25.82C61.2998 24.1 58.9998 23.24 56.0398 23.24C53.1198 23.24 50.8198 24.1 49.1398 25.82C47.4998 27.54 46.6798 29.84 46.6798 32.72V43.28C46.6798 46.16 47.4998 48.46 49.1398 50.18C50.8198 51.9 53.1198 52.76 56.0398 52.76ZM77.0351 59L88.0751 17H101.875L112.915 59H104.755L102.475 49.76H87.4751L85.1951 59H77.0351ZM89.3351 42.44H100.615L95.5151 21.98H94.4351L89.3351 42.44Z" fill="black"/>
<path d="M158.795 31.2045C158.242 31.2045 157.741 31.1004 157.29 30.892C156.839 30.6799 156.481 30.375 156.216 29.9773C155.951 29.5758 155.818 29.0909 155.818 28.5227C155.818 28.0227 155.917 27.6174 156.114 27.3068C156.311 26.9924 156.574 26.7462 156.903 26.5682C157.233 26.3902 157.597 26.2576 157.994 26.1705C158.396 26.0795 158.799 26.0076 159.205 25.9545C159.735 25.8864 160.165 25.8352 160.494 25.8011C160.828 25.7633 161.07 25.7008 161.222 25.6136C161.377 25.5265 161.455 25.375 161.455 25.1591V25.1136C161.455 24.553 161.301 24.1174 160.994 23.8068C160.691 23.4962 160.231 23.3409 159.614 23.3409C158.973 23.3409 158.472 23.4811 158.108 23.7614C157.744 24.0417 157.489 24.3409 157.341 24.6591L156.068 24.2045C156.295 23.6742 156.598 23.2614 156.977 22.9659C157.36 22.6667 157.777 22.4583 158.227 22.3409C158.682 22.2197 159.129 22.1591 159.568 22.1591C159.848 22.1591 160.17 22.1932 160.534 22.2614C160.902 22.3258 161.256 22.4602 161.597 22.6648C161.941 22.8693 162.227 23.178 162.455 23.5909C162.682 24.0038 162.795 24.5568 162.795 25.25V31H161.455V29.8182H161.386C161.295 30.0076 161.144 30.2102 160.932 30.4261C160.72 30.642 160.438 30.8258 160.085 30.9773C159.733 31.1288 159.303 31.2045 158.795 31.2045ZM159 30C159.53 30 159.977 29.8958 160.341 29.6875C160.708 29.4792 160.985 29.2102 161.17 28.8807C161.36 28.5511 161.455 28.2045 161.455 27.8409V26.6136C161.398 26.6818 161.273 26.7443 161.08 26.8011C160.89 26.8542 160.67 26.9015 160.42 26.9432C160.174 26.9811 159.934 27.0152 159.699 27.0455C159.468 27.072 159.28 27.0947 159.136 27.1136C158.788 27.1591 158.462 27.233 158.159 27.3352C157.86 27.4337 157.617 27.5833 157.432 27.7841C157.25 27.9811 157.159 28.25 157.159 28.5909C157.159 29.0568 157.331 29.4091 157.676 29.6477C158.025 29.8826 158.466 30 159 30ZM169.925 31V19.3636H171.266V23.6591H171.379C171.478 23.5076 171.614 23.3144 171.788 23.0795C171.966 22.8409 172.22 22.6288 172.55 22.4432C172.883 22.2538 173.334 22.1591 173.902 22.1591C174.637 22.1591 175.285 22.3428 175.845 22.7102C176.406 23.0777 176.843 23.5985 177.158 24.2727C177.472 24.947 177.629 25.7424 177.629 26.6591C177.629 27.5833 177.472 28.3845 177.158 29.0625C176.843 29.7367 176.408 30.2595 175.851 30.6307C175.294 30.9981 174.652 31.1818 173.925 31.1818C173.364 31.1818 172.915 31.089 172.578 30.9034C172.241 30.714 171.982 30.5 171.8 30.2614C171.618 30.0189 171.478 29.8182 171.379 29.6591H171.22V31H169.925ZM171.243 26.6364C171.243 27.2955 171.339 27.8769 171.533 28.3807C171.726 28.8807 172.008 29.2727 172.379 29.5568C172.75 29.8371 173.205 29.9773 173.743 29.9773C174.304 29.9773 174.771 29.8295 175.146 29.5341C175.525 29.2348 175.809 28.8333 175.999 28.3295C176.192 27.822 176.288 27.2576 176.288 26.6364C176.288 26.0227 176.194 25.4697 176.004 24.9773C175.819 24.4811 175.536 24.089 175.158 23.8011C174.783 23.5095 174.311 23.3636 173.743 23.3636C173.197 23.3636 172.739 23.5019 172.368 23.7784C171.997 24.0511 171.716 24.4337 171.527 24.9261C171.338 25.4148 171.243 25.9848 171.243 26.6364ZM179.68 31V22.2727H180.976V23.5909H181.067C181.226 23.1591 181.514 22.8087 181.93 22.5398C182.347 22.2708 182.817 22.1364 183.339 22.1364C183.438 22.1364 183.561 22.1383 183.709 22.142C183.857 22.1458 183.968 22.1515 184.044 22.1591V23.5227C183.999 23.5114 183.894 23.4943 183.732 23.4716C183.572 23.4451 183.404 23.4318 183.226 23.4318C182.802 23.4318 182.423 23.5208 182.089 23.6989C181.76 23.8731 181.499 24.1155 181.305 24.4261C181.116 24.733 181.021 25.0833 181.021 25.4773V31H179.68ZM188.202 31.2045C187.649 31.2045 187.147 31.1004 186.696 30.892C186.245 30.6799 185.887 30.375 185.622 29.9773C185.357 29.5758 185.224 29.0909 185.224 28.5227C185.224 28.0227 185.323 27.6174 185.52 27.3068C185.717 26.9924 185.98 26.7462 186.31 26.5682C186.639 26.3902 187.003 26.2576 187.401 26.1705C187.802 26.0795 188.205 26.0076 188.611 25.9545C189.141 25.8864 189.571 25.8352 189.901 25.8011C190.234 25.7633 190.476 25.7008 190.628 25.6136C190.783 25.5265 190.861 25.375 190.861 25.1591V25.1136C190.861 24.553 190.707 24.1174 190.401 23.8068C190.098 23.4962 189.637 23.3409 189.02 23.3409C188.38 23.3409 187.878 23.4811 187.514 23.7614C187.151 24.0417 186.895 24.3409 186.747 24.6591L185.474 24.2045C185.702 23.6742 186.005 23.2614 186.384 22.9659C186.766 22.6667 187.183 22.4583 187.634 22.3409C188.088 22.2197 188.535 22.1591 188.974 22.1591C189.255 22.1591 189.577 22.1932 189.94 22.2614C190.308 22.3258 190.662 22.4602 191.003 22.6648C191.348 22.8693 191.634 23.178 191.861 23.5909C192.088 24.0038 192.202 24.5568 192.202 25.25V31H190.861V29.8182H190.793C190.702 30.0076 190.55 30.2102 190.338 30.4261C190.126 30.642 189.844 30.8258 189.491 30.9773C189.139 31.1288 188.709 31.2045 188.202 31.2045ZM188.406 30C188.937 30 189.384 29.8958 189.747 29.6875C190.115 29.4792 190.391 29.2102 190.577 28.8807C190.766 28.5511 190.861 28.2045 190.861 27.8409V26.6136C190.804 26.6818 190.679 26.7443 190.486 26.8011C190.296 26.8542 190.077 26.9015 189.827 26.9432C189.58 26.9811 189.34 27.0152 189.105 27.0455C188.874 27.072 188.687 27.0947 188.543 27.1136C188.194 27.1591 187.868 27.233 187.565 27.3352C187.266 27.4337 187.024 27.5833 186.838 27.7841C186.656 27.9811 186.565 28.25 186.565 28.5909C186.565 29.0568 186.738 29.4091 187.082 29.6477C187.431 29.8826 187.872 30 188.406 30ZM195.99 25.75V31H194.649V22.2727H195.945V23.6364H196.058C196.263 23.1932 196.573 22.8371 196.99 22.5682C197.407 22.2955 197.945 22.1591 198.604 22.1591C199.195 22.1591 199.712 22.2803 200.155 22.5227C200.598 22.7614 200.943 23.125 201.189 23.6136C201.435 24.0985 201.558 24.7121 201.558 25.4545V31H200.217V25.5455C200.217 24.8598 200.039 24.3258 199.683 23.9432C199.327 23.5568 198.839 23.3636 198.217 23.3636C197.789 23.3636 197.407 23.4564 197.07 23.642C196.736 23.8277 196.473 24.0985 196.28 24.4545C196.087 24.8106 195.99 25.2424 195.99 25.75ZM207.304 31.1818C206.577 31.1818 205.935 30.9981 205.378 30.6307C204.821 30.2595 204.385 29.7367 204.071 29.0625C203.757 28.3845 203.599 27.5833 203.599 26.6591C203.599 25.7424 203.757 24.947 204.071 24.2727C204.385 23.5985 204.823 23.0777 205.384 22.7102C205.944 22.3428 206.592 22.1591 207.327 22.1591C207.895 22.1591 208.344 22.2538 208.673 22.4432C209.007 22.6288 209.26 22.8409 209.435 23.0795C209.613 23.3144 209.751 23.5076 209.849 23.6591H209.963V19.3636H211.304V31H210.009V29.6591H209.849C209.751 29.8182 209.611 30.0189 209.429 30.2614C209.247 30.5 208.988 30.714 208.651 30.9034C208.313 31.089 207.865 31.1818 207.304 31.1818ZM207.486 29.9773C208.024 29.9773 208.478 29.8371 208.849 29.5568C209.221 29.2727 209.503 28.8807 209.696 28.3807C209.889 27.8769 209.986 27.2955 209.986 26.6364C209.986 25.9848 209.891 25.4148 209.702 24.9261C209.512 24.4337 209.232 24.0511 208.861 23.7784C208.49 23.5019 208.031 23.3636 207.486 23.3636C206.918 23.3636 206.444 23.5095 206.065 23.8011C205.69 24.089 205.408 24.4811 205.219 24.9773C205.033 25.4697 204.94 26.0227 204.94 26.6364C204.94 27.2576 205.035 27.822 205.224 28.3295C205.418 28.8333 205.702 29.2348 206.077 29.5341C206.455 29.8295 206.925 29.9773 207.486 29.9773ZM218.628 31V19.3636H219.969V23.6591H220.082C220.181 23.5076 220.317 23.3144 220.491 23.0795C220.67 22.8409 220.923 22.6288 221.253 22.4432C221.586 22.2538 222.037 22.1591 222.605 22.1591C223.34 22.1591 223.988 22.3428 224.548 22.7102C225.109 23.0777 225.546 23.5985 225.861 24.2727C226.175 24.947 226.332 25.7424 226.332 26.6591C226.332 27.5833 226.175 28.3845 225.861 29.0625C225.546 29.7367 225.111 30.2595 224.554 30.6307C223.997 30.9981 223.355 31.1818 222.628 31.1818C222.067 31.1818 221.618 31.089 221.281 30.9034C220.944 30.714 220.685 30.5 220.503 30.2614C220.321 30.0189 220.181 29.8182 220.082 29.6591H219.923V31H218.628ZM219.946 26.6364C219.946 27.2955 220.043 27.8769 220.236 28.3807C220.429 28.8807 220.711 29.2727 221.082 29.5568C221.454 29.8371 221.908 29.9773 222.446 29.9773C223.007 29.9773 223.474 29.8295 223.849 29.5341C224.228 29.2348 224.512 28.8333 224.702 28.3295C224.895 27.822 224.991 27.2576 224.991 26.6364C224.991 26.0227 224.897 25.4697 224.707 24.9773C224.522 24.4811 224.24 24.089 223.861 23.8011C223.486 23.5095 223.014 23.3636 222.446 23.3636C221.901 23.3636 221.442 23.5019 221.071 23.7784C220.7 24.0511 220.42 24.4337 220.23 24.9261C220.041 25.4148 219.946 25.9848 219.946 26.6364ZM228.935 34.2727C228.707 34.2727 228.505 34.2538 228.327 34.2159C228.149 34.1818 228.026 34.1477 227.957 34.1136L228.298 32.9318C228.624 33.0152 228.912 33.0455 229.162 33.0227C229.412 33 229.634 32.8883 229.827 32.6875C230.024 32.4905 230.204 32.1705 230.366 31.7273L230.616 31.0455L227.389 22.2727H228.844L231.253 29.2273H231.344L233.753 22.2727H235.207L231.503 32.2727C231.336 32.7235 231.13 33.0966 230.884 33.392C230.637 33.6913 230.351 33.9129 230.026 34.0568C229.704 34.2008 229.34 34.2727 228.935 34.2727Z" fill="#838383"/>
</svg>
