<svg width="258" height="77" viewBox="0 0 258 77" fill="none" xmlns="http://www.w3.org/2000/svg">
<path d="M14.7776 59V44.54L0.497578 17H9.31758L18.1976 35H19.2776L28.1576 17H36.9776L22.6976 44.54V59H14.7776ZM56.0398 59.84C50.7598 59.84 46.5598 58.4 43.4398 55.52C40.3198 52.6 38.7598 48.44 38.7598 43.04V32.96C38.7598 27.56 40.3198 23.42 43.4398 20.54C46.5598 17.62 50.7598 16.16 56.0398 16.16C61.3198 16.16 65.5198 17.62 68.6398 20.54C71.7598 23.42 73.3198 27.56 73.3198 32.96V43.04C73.3198 48.44 71.7598 52.6 68.6398 55.52C65.5198 58.4 61.3198 59.84 56.0398 59.84ZM56.0398 52.76C58.9998 52.76 61.2998 51.9 62.9398 50.18C64.5798 48.46 65.3998 46.16 65.3998 43.28V32.72C65.3998 29.84 64.5798 27.54 62.9398 25.82C61.2998 24.1 58.9998 23.24 56.0398 23.24C53.1198 23.24 50.8198 24.1 49.1398 25.82C47.4998 27.54 46.6798 29.84 46.6798 32.72V43.28C46.6798 46.16 47.4998 48.46 49.1398 50.18C50.8198 51.9 53.1198 52.76 56.0398 52.76ZM77.0351 59L88.0751 17H101.875L112.915 59H104.755L102.475 49.76H87.4751L85.1951 59H77.0351ZM89.3351 42.44H100.615L95.5151 21.98H94.4351L89.3351 42.44Z" fill="#F0F0F0"/>
<path d="M157.321 35.179C156.837 35.179 156.398 35.0878 156.004 34.9055C155.609 34.7199 155.296 34.4531 155.064 34.1051C154.832 33.7538 154.716 33.3295 154.716 32.8324C154.716 32.3949 154.802 32.0402 154.974 31.7685C155.147 31.4934 155.377 31.2779 155.665 31.1222C155.954 30.9664 156.272 30.8504 156.62 30.7741C156.971 30.6946 157.324 30.6316 157.679 30.5852C158.143 30.5256 158.519 30.4808 158.808 30.451C159.099 30.4179 159.311 30.3632 159.444 30.2869C159.58 30.2107 159.648 30.0781 159.648 29.8892V29.8494C159.648 29.3589 159.513 28.9777 159.245 28.706C158.98 28.4342 158.577 28.2983 158.037 28.2983C157.477 28.2983 157.038 28.4209 156.719 28.6662C156.401 28.9115 156.178 29.1733 156.048 29.4517L154.935 29.054C155.134 28.59 155.399 28.2287 155.73 27.9702C156.065 27.7083 156.429 27.526 156.824 27.4233C157.222 27.3172 157.613 27.2642 157.997 27.2642C158.242 27.2642 158.524 27.294 158.842 27.3537C159.164 27.41 159.474 27.5277 159.772 27.7067C160.074 27.8857 160.324 28.1558 160.523 28.517C160.722 28.8783 160.821 29.3622 160.821 29.9688V35H159.648V33.9659H159.588C159.509 34.1316 159.376 34.3089 159.19 34.4979C159.005 34.6868 158.758 34.8475 158.45 34.9801C158.141 35.1127 157.765 35.179 157.321 35.179ZM157.5 34.125C157.964 34.125 158.355 34.0339 158.673 33.8516C158.995 33.6693 159.237 33.4339 159.399 33.1456C159.565 32.8572 159.648 32.554 159.648 32.2358V31.1619C159.598 31.2216 159.489 31.2763 159.32 31.326C159.154 31.3724 158.962 31.4138 158.743 31.4503C158.527 31.4834 158.317 31.5133 158.112 31.5398C157.909 31.563 157.745 31.5829 157.619 31.5994C157.314 31.6392 157.029 31.7038 156.764 31.7933C156.502 31.8795 156.29 32.0104 156.128 32.1861C155.969 32.3584 155.889 32.5937 155.889 32.892C155.889 33.2997 156.04 33.608 156.342 33.8168C156.647 34.0223 157.033 34.125 157.5 34.125ZM167.059 35V24.8182H168.232V28.5767H168.332C168.418 28.4441 168.537 28.2751 168.69 28.0696C168.846 27.8608 169.068 27.6752 169.356 27.5128C169.648 27.3471 170.042 27.2642 170.539 27.2642C171.182 27.2642 171.749 27.425 172.24 27.7464C172.73 28.0679 173.113 28.5237 173.388 29.1136C173.663 29.7036 173.801 30.3996 173.801 31.2017C173.801 32.0104 173.663 32.7114 173.388 33.3047C173.113 33.8946 172.732 34.352 172.244 34.6768C171.757 34.9983 171.195 35.1591 170.559 35.1591C170.069 35.1591 169.676 35.0779 169.381 34.9155C169.086 34.7498 168.859 34.5625 168.7 34.3537C168.541 34.1416 168.418 33.9659 168.332 33.8267H168.193V35H167.059ZM168.213 31.1818C168.213 31.7585 168.297 32.2673 168.466 32.7081C168.635 33.1456 168.882 33.4886 169.207 33.7372C169.532 33.9825 169.929 34.1051 170.4 34.1051C170.891 34.1051 171.3 33.9759 171.628 33.7173C171.959 33.4555 172.208 33.1042 172.374 32.6634C172.543 32.2192 172.627 31.7254 172.627 31.1818C172.627 30.6449 172.544 30.161 172.379 29.7301C172.216 29.2959 171.969 28.9529 171.638 28.701C171.31 28.4458 170.897 28.3182 170.4 28.3182C169.923 28.3182 169.522 28.4392 169.197 28.6811C168.872 28.9197 168.627 29.2545 168.461 29.6854C168.295 30.1129 168.213 30.6117 168.213 31.1818ZM175.595 35V27.3636H176.729V28.517H176.808C176.948 28.1392 177.2 27.8326 177.564 27.5973C177.929 27.362 178.34 27.2443 178.797 27.2443C178.883 27.2443 178.991 27.246 179.12 27.2493C179.249 27.2526 179.347 27.2576 179.414 27.2642V28.4574C179.374 28.4474 179.283 28.4325 179.14 28.4126C179.001 28.3894 178.853 28.3778 178.698 28.3778C178.326 28.3778 177.995 28.4557 177.703 28.6115C177.415 28.764 177.186 28.9761 177.017 29.2479C176.852 29.5163 176.769 29.8229 176.769 30.1676V35H175.595ZM183.051 35.179C182.568 35.179 182.128 35.0878 181.734 34.9055C181.34 34.7199 181.026 34.4531 180.794 34.1051C180.562 33.7538 180.446 33.3295 180.446 32.8324C180.446 32.3949 180.533 32.0402 180.705 31.7685C180.877 31.4934 181.108 31.2779 181.396 31.1222C181.684 30.9664 182.002 30.8504 182.35 30.7741C182.702 30.6946 183.055 30.6316 183.409 30.5852C183.873 30.5256 184.25 30.4808 184.538 30.451C184.83 30.4179 185.042 30.3632 185.174 30.2869C185.31 30.2107 185.378 30.0781 185.378 29.8892V29.8494C185.378 29.3589 185.244 28.9777 184.975 28.706C184.71 28.4342 184.308 28.2983 183.767 28.2983C183.207 28.2983 182.768 28.4209 182.45 28.6662C182.132 28.9115 181.908 29.1733 181.779 29.4517L180.665 29.054C180.864 28.59 181.129 28.2287 181.461 27.9702C181.795 27.7083 182.16 27.526 182.554 27.4233C182.952 27.3172 183.343 27.2642 183.728 27.2642C183.973 27.2642 184.255 27.294 184.573 27.3537C184.894 27.41 185.204 27.5277 185.502 27.7067C185.804 27.8857 186.054 28.1558 186.253 28.517C186.452 28.8783 186.551 29.3622 186.551 29.9688V35H185.378V33.9659H185.319C185.239 34.1316 185.106 34.3089 184.921 34.4979C184.735 34.6868 184.488 34.8475 184.18 34.9801C183.872 35.1127 183.496 35.179 183.051 35.179ZM183.23 34.125C183.694 34.125 184.086 34.0339 184.404 33.8516C184.725 33.6693 184.967 33.4339 185.13 33.1456C185.295 32.8572 185.378 32.554 185.378 32.2358V31.1619C185.328 31.2216 185.219 31.2763 185.05 31.326C184.884 31.3724 184.692 31.4138 184.473 31.4503C184.258 31.4834 184.047 31.5133 183.842 31.5398C183.64 31.563 183.476 31.5829 183.35 31.5994C183.045 31.6392 182.76 31.7038 182.495 31.7933C182.233 31.8795 182.021 32.0104 181.858 32.1861C181.699 32.3584 181.62 32.5937 181.62 32.892C181.62 33.2997 181.77 33.608 182.072 33.8168C182.377 34.0223 182.763 34.125 183.23 34.125ZM189.866 30.4062V35H188.693V27.3636H189.827V28.5568H189.926C190.105 28.169 190.377 27.8575 190.741 27.6222C191.106 27.3835 191.577 27.2642 192.153 27.2642C192.67 27.2642 193.123 27.3703 193.51 27.5824C193.898 27.7912 194.2 28.1094 194.415 28.5369C194.631 28.9612 194.738 29.4981 194.738 30.1477V35H193.565V30.2273C193.565 29.6274 193.409 29.16 193.098 28.8253C192.786 28.4872 192.359 28.3182 191.815 28.3182C191.441 28.3182 191.106 28.3994 190.811 28.5618C190.519 28.7242 190.289 28.9612 190.12 29.2727C189.951 29.5843 189.866 29.9621 189.866 30.4062ZM199.766 35.1591C199.13 35.1591 198.568 34.9983 198.081 34.6768C197.593 34.352 197.212 33.8946 196.937 33.3047C196.662 32.7114 196.525 32.0104 196.525 31.2017C196.525 30.3996 196.662 29.7036 196.937 29.1136C197.212 28.5237 197.595 28.0679 198.086 27.7464C198.576 27.425 199.143 27.2642 199.786 27.2642C200.283 27.2642 200.676 27.3471 200.964 27.5128C201.256 27.6752 201.478 27.8608 201.63 28.0696C201.786 28.2751 201.907 28.4441 201.993 28.5767H202.093V24.8182H203.266V35H202.132V33.8267H201.993C201.907 33.9659 201.784 34.1416 201.625 34.3537C201.466 34.5625 201.239 34.7498 200.944 34.9155C200.649 35.0779 200.257 35.1591 199.766 35.1591ZM199.925 34.1051C200.396 34.1051 200.793 33.9825 201.118 33.7372C201.443 33.4886 201.69 33.1456 201.859 32.7081C202.028 32.2673 202.113 31.7585 202.113 31.1818C202.113 30.6117 202.03 30.1129 201.864 29.6854C201.698 29.2545 201.453 28.9197 201.128 28.6811C200.803 28.4392 200.402 28.3182 199.925 28.3182C199.428 28.3182 199.014 28.4458 198.682 28.701C198.354 28.9529 198.107 29.2959 197.941 29.7301C197.779 30.161 197.698 30.6449 197.698 31.1818C197.698 31.7254 197.781 32.2192 197.946 32.6634C198.115 33.1042 198.364 33.4555 198.692 33.7173C199.024 33.9759 199.435 34.1051 199.925 34.1051Z" fill="#F0F0F0"/>
<path d="M183.226 47.9982V52.7733H181.592V48.333C181.592 46.8917 180.965 46.1274 179.768 46.1274C178.521 46.1274 177.634 47.1283 177.634 48.5296V52.777H176V44.8426H177.138L177.455 45.9491C178.057 45.1484 179.039 44.6606 180.206 44.6606C182.063 44.6643 183.226 46.0473 183.226 47.9982Z" fill="white"/>
<path d="M195.767 49.3629H189.315C189.519 50.6477 190.445 51.4375 191.748 51.4375C192.696 51.4375 193.466 51.0008 193.885 50.2765H195.607C194.976 51.9507 193.524 52.9661 191.748 52.9661C189.424 52.9661 187.662 51.1755 187.662 48.8061C187.662 46.433 189.417 44.646 191.748 44.646C194.181 44.646 195.8 46.5168 195.8 48.8243C195.8 49.0063 195.786 49.1846 195.767 49.3629ZM189.355 48.0381H194.162C193.871 46.8334 192.959 46.1237 191.748 46.1237C190.518 46.1237 189.621 46.8625 189.355 48.0381Z" fill="white"/>
<path d="M201.577 52.7766L199.596 49.7558L197.594 52.7766H195.799L198.622 48.6748L196.014 44.8423H197.853L199.607 47.5101L201.424 44.8423H203.218L200.574 48.5947L203.415 52.7766H201.577Z" fill="white"/>
<path d="M207.582 52.9696C205.214 52.9696 203.416 51.1716 203.416 48.8022C203.416 46.4328 205.211 44.6494 207.585 44.6494C209.552 44.6494 211.087 45.8505 211.529 47.6703H209.909C209.49 46.7567 208.618 46.2072 207.582 46.2072C206.152 46.2072 205.079 47.3354 205.079 48.8059C205.079 50.2763 206.166 51.4118 207.582 51.4118C208.621 51.4118 209.464 50.8513 209.898 49.8868H211.547C211.109 51.7394 209.544 52.9696 207.582 52.9696Z" fill="white"/>
<path d="M220.017 47.9944V52.7733H218.383V48.3329C218.383 46.8953 217.767 46.1273 216.559 46.1273C215.323 46.1273 214.425 47.1246 214.425 48.5295V52.7769H212.791V42H214.425V45.7452C215.034 45.0682 215.946 44.6642 217.008 44.6642C218.861 44.6642 220.017 45.9526 220.017 47.9944Z" fill="white"/>
<path d="M229.788 44.8387V52.773H228.471L228.311 51.8085C227.592 52.5365 226.586 52.9696 225.429 52.9696C223.062 52.9696 221.289 51.1825 221.289 48.8059C221.289 46.4219 223.058 44.6494 225.429 44.6494C226.6 44.6494 227.614 45.0898 228.337 45.8323L228.526 44.8387H229.788ZM228.15 48.8059C228.15 47.31 227.056 46.2035 225.557 46.2035C224.058 46.2035 222.952 47.3209 222.952 48.8059C222.952 50.2908 224.058 51.4082 225.557 51.4082C227.056 51.4082 228.15 50.3017 228.15 48.8059Z" fill="white"/>
<path d="M238.982 47.9982V52.7733H237.348V48.333C237.348 46.8917 236.72 46.1274 235.524 46.1274C234.276 46.1274 233.39 47.1283 233.39 48.5296V52.777H231.756V44.8426H232.894L233.211 45.9491C233.813 45.1484 234.794 44.6606 235.962 44.6606C237.822 44.6643 238.982 46.0473 238.982 47.9982Z" fill="white"/>
<path d="M248.414 44.8424V51.7358C248.414 54.2653 246.907 55.8122 244.445 55.8122C242.409 55.8122 240.965 54.7567 240.556 53.0169H242.187C242.493 53.8868 243.427 54.3672 244.43 54.3672C245.806 54.3672 246.809 53.4646 246.809 51.9614V51.5975C246.119 52.1944 245.207 52.5474 244.179 52.5474C241.964 52.5474 240.25 50.8295 240.25 48.6094C240.25 46.3928 241.968 44.6567 244.179 44.6567C245.346 44.6567 246.367 45.119 247.079 45.8724L247.338 44.8496L248.414 44.8424ZM244.368 51.0297C245.784 51.0297 246.809 50.0033 246.809 48.6021C246.809 47.1972 245.787 46.1708 244.368 46.1708C242.953 46.1708 241.917 47.2081 241.917 48.6021C241.917 49.9924 242.949 51.0297 244.368 51.0297Z" fill="white"/>
<path d="M257.898 49.3629H251.445C251.65 50.6477 252.576 51.4375 253.878 51.4375C254.827 51.4375 255.597 51.0008 256.016 50.2765H257.738C257.107 51.9507 255.655 52.9661 253.878 52.9661C251.555 52.9661 249.793 51.1755 249.793 48.8061C249.793 46.433 251.548 44.646 253.878 44.646C256.312 44.646 257.931 46.5168 257.931 48.8243C257.931 49.0063 257.917 49.1846 257.898 49.3629ZM251.486 48.0381H256.293C256.001 46.8334 255.09 46.1237 253.878 46.1237C252.649 46.1237 251.752 46.8625 251.486 48.0381Z" fill="white"/>
<path d="M185.773 52.7732C186.266 52.7732 186.666 52.3739 186.666 51.8815C186.666 51.389 186.266 50.9897 185.773 50.9897C185.279 50.9897 184.879 51.389 184.879 51.8815C184.879 52.3739 185.279 52.7732 185.773 52.7732Z" fill="white"/>
<path d="M155.233 53V42.8182H156.406V46.5767H156.506C156.592 46.4441 156.711 46.2751 156.864 46.0696C157.019 45.8608 157.241 45.6752 157.53 45.5128C157.821 45.3471 158.216 45.2642 158.713 45.2642C159.356 45.2642 159.923 45.425 160.413 45.7464C160.904 46.0679 161.287 46.5237 161.562 47.1136C161.837 47.7036 161.974 48.3996 161.974 49.2017C161.974 50.0104 161.837 50.7114 161.562 51.3047C161.287 51.8946 160.906 52.352 160.418 52.6768C159.931 52.9983 159.369 53.1591 158.733 53.1591C158.242 53.1591 157.85 53.0779 157.555 52.9155C157.26 52.7498 157.033 52.5625 156.874 52.3537C156.714 52.1416 156.592 51.9659 156.506 51.8267H156.366V53H155.233ZM156.386 49.1818C156.386 49.7585 156.471 50.2673 156.64 50.7081C156.809 51.1456 157.056 51.4886 157.381 51.7372C157.705 51.9825 158.103 52.1051 158.574 52.1051C159.064 52.1051 159.474 51.9759 159.802 51.7173C160.133 51.4555 160.382 51.1042 160.548 50.6634C160.717 50.2192 160.801 49.7254 160.801 49.1818C160.801 48.6449 160.718 48.161 160.553 47.7301C160.39 47.2959 160.143 46.9529 159.812 46.701C159.484 46.4458 159.071 46.3182 158.574 46.3182C158.097 46.3182 157.696 46.4392 157.371 46.6811C157.046 46.9197 156.801 47.2545 156.635 47.6854C156.469 48.1129 156.386 48.6117 156.386 49.1818ZM164.251 55.8636C164.053 55.8636 163.875 55.8471 163.719 55.8139C163.564 55.7841 163.456 55.7543 163.396 55.7244L163.695 54.6903C163.98 54.7633 164.232 54.7898 164.45 54.7699C164.669 54.75 164.863 54.6522 165.032 54.4766C165.204 54.3042 165.362 54.0241 165.504 53.6364L165.723 53.0398L162.899 45.3636H164.172L166.28 51.4489H166.359L168.467 45.3636H169.74L166.499 54.1136C166.353 54.508 166.172 54.8345 165.957 55.093C165.741 55.3549 165.491 55.5488 165.206 55.6747C164.924 55.8007 164.606 55.8636 164.251 55.8636Z" fill="#F0F0F0"/>
<line x1="134.5" y1="16" x2="134.5" y2="60" stroke="white"/>
</svg>
