<svg xmlns="http://www.w3.org/2000/svg" xmlns:xlink="http://www.w3.org/1999/xlink" width="129" height="129" viewBox="0 0 129 129">
  <defs>
    <filter id="Ellipse_115" x="0" y="0" width="129" height="129" filterUnits="userSpaceOnUse">
      <feOffset dy="7" input="SourceAlpha"/>
      <feGaussianBlur stdDeviation="7.5" result="blur"/>
      <feFlood flood-color="#6a9dbc" flood-opacity="0.2"/>
      <feComposite operator="in" in2="blur"/>
      <feComposite in="SourceGraphic"/>
    </filter>
  </defs>
  <g id="Group_936" data-name="Group 936" transform="translate(-455.5 -1058.5)">
    <g transform="matrix(1, 0, 0, 1, 455.5, 1058.5)" filter="url(#Ellipse_115)">
      <circle id="Ellipse_115-2" data-name="Ellipse 115" cx="42" cy="42" r="42" transform="translate(22.5 15.5)" fill="#fff"/>
    </g>
    <g id="Group_163" data-name="Group 163" transform="translate(505 1096.95)">
      <path id="Path_116" data-name="Path 116" d="M16.906,1.7,3.3,5.919V28.143l2.985,4.219,10.62,5.883,13.319-8.081.919-23.769Z" transform="translate(-1.406 -0.67)" fill="#2cc5bd" opacity="0.07"/>
      <g id="Group_116" data-name="Group 116" transform="translate(0 0.05)">
        <path id="Path_117" data-name="Path 117" d="M15.5,38.05a7.284,7.284,0,0,1-3.33-.832l-.057-.059L3.961,32.227A7.5,7.5,0,0,1,0,25.512V7.151A3.354,3.354,0,0,1,2.411,3.883L14.869.139a2.272,2.272,0,0,1,1.263,0l12.515,3.8A3.249,3.249,0,0,1,31,7.151V25.512a7.5,7.5,0,0,1-3.961,6.715L18.83,37.218A7.284,7.284,0,0,1,15.5,38.05ZM15.5,2.4,3.043,6.141A1.065,1.065,0,0,0,2.3,7.151V25.512a5.161,5.161,0,0,0,2.756,4.635l.057.059L13.261,35.2a5.073,5.073,0,0,0,4.535,0h0l8.152-4.991A5.271,5.271,0,0,0,28.7,25.572V7.151a.959.959,0,0,0-.689-.951h0Z" transform="translate(0 -0.05)" fill="#2cc5bd"/>
      </g>
      <g id="Group_118" data-name="Group 118" transform="translate(9.042 14.073)">
        <g id="Group_117" data-name="Group 117">
          <path id="Path_118" data-name="Path 118" d="M21.577,33.128a1.488,1.488,0,0,1-2.124,0l-3.272-3.387a1.619,1.619,0,0,1,0-2.2,1.488,1.488,0,0,1,2.124,0l1.952,2.02a.315.315,0,0,0,.517,0L26.055,24.1a1.488,1.488,0,0,1,2.124,0,1.624,1.624,0,0,1,.459,1.07,1.512,1.512,0,0,1-.459,1.07Z" transform="translate(-15.75 -23.65)" fill="#2cc5bd"/>
        </g>
      </g>
    </g>
  </g>
</svg>
