<svg xmlns="http://www.w3.org/2000/svg" xmlns:xlink="http://www.w3.org/1999/xlink" viewBox="0 0 473.18 115.27" width="190"><defs><style>.cls-1{fill:url(#Безымянный_градиент_11)}.cls-2{fill:url(#Безымянный_градиент_11-2)}.cls-3{fill:#fff}</style><linearGradient id="Безымянный_градиент_11" x1="55.5" y1="100.75" x2="140.19" y2="16.07" gradientUnits="userSpaceOnUse"><stop offset="0" stop-color="#fe8529"/><stop offset="1" stop-color="#fec54e"/></linearGradient><linearGradient id="Безымянный_градиент_11-2" x1="8.04" y1="89.59" x2="73.19" y2="24.45" xlink:href="#Безымянный_градиент_11"/></defs><title>logo</title><g id="Layer_2" data-name="Layer 2"><g id="Main_logo" data-name="Main logo"><path class="cls-1" d="M100.53.07a57.47 57.47 0 0 0-9.17.75Q89 .42 86.62.21C84.59 0 82.91 0 81.76 0a56.89 56.89 0 0 0-8.19.59 1.75 1.75 0 0 0-.87.76 1.6 1.6 0 0 0-.16.44L71 8.94a50.1 50.1 0 0 1 7 95.25 6.55 6.55 0 0 1-8.87-7.41l5.07-24.12 6.5 10 7.93-5.18L77.93 61a8.39 8.39 0 0 0-11.61-2.44L49.89 69.31l5.18 7.93 9.88-6.45-5.15 24.49a15.17 15.17 0 0 0 8.45 16.94c6.43 2.5 13.93 3.12 22.69 1.31A57.14 57.14 0 1 0 100.53.07zm18.31 57.6c0-18.48-9.18-35.7-23.76-46.83a48.17 48.17 0 0 1 1.68 92.07c13.47-11.03 22.05-27.46 22.08-45.23zm-2.73 45.12a57.13 57.13 0 0 0 .33-91.05 48.17 48.17 0 0 1-.33 91.05z"/><path class="cls-2" d="M44.61 42.69l-6.5-10-7.93 5.21L40.9 54.33a8.39 8.39 0 0 0 11.61 2.44L68.95 46l-5.18-7.93-9.88 6.45L59 20.07A15.27 15.27 0 0 0 38.33 2.8C15.86 11.81 0 33.51 0 57.68c0 26.65 19.12 50.72 45.93 57.6l1.86-8.87a50.1 50.1 0 0 1-7-95.25 6.55 6.55 0 0 1 8.87 7.41z"/><path class="cls-3" d="M469.86 32a41.09 41.09 0 0 0-9-12.5 43.43 43.43 0 0 0-13.41-8.62 42.88 42.88 0 0 0-16.57-3.23H419a42.92 42.92 0 0 0-16.57 3.23A43.43 43.43 0 0 0 389 19.5a41 41 0 0 0-9 12.5 35 35 0 0 0-3.32 14.81v60.81h21.54V49a18.4 18.4 0 0 1 1.81-8.28 19.54 19.54 0 0 1 4.76-6.19 21.49 21.49 0 0 1 6.71-3.89 21.88 21.88 0 0 1 7.5-1.4h11.89a21.93 21.93 0 0 1 7.46 1.36 21.46 21.46 0 0 1 6.71 3.89 19.54 19.54 0 0 1 4.76 6.19 18.42 18.42 0 0 1 1.82 8.32v58.66h21.54V46.82A35 35 0 0 0 469.86 32zM299.5 14.55a41.14 41.14 0 0 0-12.51 9 43.53 43.53 0 0 0-8.62 13.41 42.93 42.93 0 0 0-3.23 16.57v11.85A42.93 42.93 0 0 0 278.37 82 43.53 43.53 0 0 0 287 95.36a41.1 41.1 0 0 0 12.51 9 35 35 0 0 0 14.8 3.32h48.21V86.11h-46.07a18.41 18.41 0 0 1-8.29-1.81 19.53 19.53 0 0 1-6.16-4.76 21.44 21.44 0 0 1-3.88-6.71 21.82 21.82 0 0 1-1.37-7.45V53.49a21.87 21.87 0 0 1 1.34-7.49 21.46 21.46 0 0 1 3.91-6.67 19.53 19.53 0 0 1 6.19-4.76 18.43 18.43 0 0 1 8.29-1.81h46.07V11.23H314.3a35 35 0 0 0-14.8 3.32zm-97.14 0a41.12 41.12 0 0 0-12.51 9 43.48 43.48 0 0 0-8.62 13.41A43 43 0 0 0 178 53.49v11.89A43 43 0 0 0 181.23 82a43.48 43.48 0 0 0 8.62 13.41 41.06 41.06 0 0 0 12.51 9 35 35 0 0 0 14.8 3.32h48.21V86.11h-46.06A18.41 18.41 0 0 1 211 84.3a19.53 19.53 0 0 1-6.19-4.76 21.49 21.49 0 0 1-3.89-6.71 21.88 21.88 0 0 1-1.36-7.45V53.49a21.93 21.93 0 0 1 1.39-7.49 21.46 21.46 0 0 1 3.89-6.71 19.53 19.53 0 0 1 6.16-4.72 18.43 18.43 0 0 1 8.29-1.81h46.07V11.23h-48.2a35 35 0 0 0-14.8 3.32z"/></g></g></svg>