<svg xmlns="http://www.w3.org/2000/svg" xmlns:xlink="http://www.w3.org/1999/xlink" width="48" height="48" viewBox="0 0 48 48">
  <defs><path id="h3b1a" d="M616 318c0-13.255 10.745-24 24-24s24 10.745 24 24-10.745 24-24 24-24-10.745-24-24z"/><path
    id="h3b1c"
    d="M644.552 321.804h-13.83l1.051-1.056a.835.835 0 0 0 0-1.177.823.823 0 0 0-1.17 0l-2.34 2.354a.753.753 0 0 0-.203.415.796.796 0 0 0-.06.297.82.82 0 0 0 .057.285c.02.175.07.344.205.48l2.34 2.354a.823.823 0 0 0 1.17 0 .835.835 0 0 0 0-1.178l-1.102-1.109h13.882a.83.83 0 0 0 .827-.832.83.83 0 0 0-.827-.833zm7.39-7.727a.76.76 0 0 0-.204-.479l-2.34-2.354a.823.823 0 0 0-1.17 0 .835.835 0 0 0 0 1.177l1.101 1.11h-13.88a.83.83 0 0 0-.828.832c0 .46.37.832.827.832h13.83l-1.05 1.058a.835.835 0 0 0 0 1.177.823.823 0 0 0 1.17 0l2.34-2.355a.758.758 0 0 0 .202-.415.83.83 0 0 0 .06-.297.82.82 0 0 0-.057-.286z"/>
    <clipPath id="h3b1b"><use fill="#fff" xlink:href="#h3b1a"/></clipPath>
  </defs>
  <g>
    <g transform="translate(-616 -294)">
      <g><use fill="#fff" fill-opacity="0" stroke="#efefef" stroke-miterlimit="50" stroke-width="4" clip-path="url(&quot;#h3b1b&quot;)" xlink:href="#h3b1a"/></g>
      <g>
        <g><g/></g>
        <g>
          <g>
            <g><use fill="#9c9c9c" xlink:href="#h3b1c"/></g>
          </g>
        </g>
      </g>
    </g>
  </g>
</svg>
