<svg xmlns="http://www.w3.org/2000/svg" viewBox="0 0 22 24">
  <defs>
    <style>
      .cls-1 {
        fill: #9c9c9c;
      }
    </style>
  </defs>
  <g id="Group_8" data-name="Group 8" transform="translate(0 -0.025)">
    <g id="Group_7" data-name="Group 7" transform="translate(0 0.025)">
      <path id="Path_13" data-name="Path 13" class="cls-1" d="M8.215,327.316a.668.668,0,0,0-.949.137,5.843,5.843,0,0,1-4.722,2.387H.678a.687.687,0,0,0,0,1.374H2.549a7.1,7.1,0,0,0,3.292-.8,7.29,7.29,0,0,0,2.509-2.138A.7.7,0,0,0,8.215,327.316Z" transform="translate(0 -310.524)"/>
      <path id="Path_14" data-name="Path 14" class="cls-1" d="M196.838,7.155a.678.678,0,0,0,.954-.122,5.84,5.84,0,0,1,4.667-2.321h3.94l-2.1,2.133a.692.692,0,0,0,0,.972.677.677,0,0,0,.477.2.656.656,0,0,0,.477-.2l3.262-3.309a.692.692,0,0,0,0-.972L205.25.227a.669.669,0,0,0-.959,0,.692.692,0,0,0,0,.972l2.1,2.133h-3.94a7.183,7.183,0,0,0-5.741,2.856A.705.705,0,0,0,196.838,7.155Z" transform="translate(-186.711 -0.025)"/>
      <path id="Path_15" data-name="Path 15" class="cls-1" d="M19.113,78a.669.669,0,0,0-.959,0,.692.692,0,0,0,0,.972l2.1,2.133h-3.94a5.956,5.956,0,0,1-5.907-5.991V72.466A7.322,7.322,0,0,0,3.149,65.1H1.278a.687.687,0,0,0,0,1.374H3.149a5.956,5.956,0,0,1,5.907,5.991v2.647a7.322,7.322,0,0,0,7.262,7.366h3.94l-2.1,2.133a.692.692,0,0,0,0,.972.677.677,0,0,0,.477.2.656.656,0,0,0,.477-.2l3.262-3.309a.692.692,0,0,0,0-.972Z" transform="translate(-0.57 -61.787)"/>
    </g>
  </g>
</svg>
