<svg id="Group_6" data-name="Group 6" xmlns="http://www.w3.org/2000/svg" viewBox="0 0 22 24">
  <defs>
    <style>
      .cls-1 {
        fill: #1db6ad;
      }
    </style>
  </defs>
  <g id="Group_5" data-name="Group 5">
    <path id="Path_11" data-name="Path 11" class="cls-1" d="M136.323,9.861a.678.678,0,0,0,0,.957l3.561,3.587a.673.673,0,0,0,.472.2.653.653,0,0,0,.472-.2l3.561-3.587a.678.678,0,0,0,0-.957.666.666,0,0,0-.95,0l-2.412,2.43V.676a.671.671,0,1,0-1.343,0V12.291l-2.412-2.43A.666.666,0,0,0,136.323,9.861Z" transform="translate(-129.356)"/>
    <path id="Path_12" data-name="Path 12" class="cls-1" d="M21.975,135.659l-2.337-8.518a.684.684,0,0,0-.368-.436l-.065-.03a.68.68,0,0,0-.278-.06H14.715a.676.676,0,0,0,0,1.353h3.759l1.974,7.205H15.227a.671.671,0,0,0-.671.676v.611a1.617,1.617,0,0,1-1.611,1.623h-4.1a1.617,1.617,0,0,1-1.611-1.623v-.611a.671.671,0,0,0-.671-.676H1.547l1.984-7.22H7.29a.676.676,0,0,0,0-1.353H3.073a.68.68,0,0,0-.278.06l-.065.03a.67.67,0,0,0-.368.436L.025,135.644a.751.751,0,0,0-.025.18v3.552a4.868,4.868,0,0,0,4.844,4.88H17.156A4.868,4.868,0,0,0,22,139.377v-3.537A.528.528,0,0,0,21.975,135.659Zm-1.318,3.718a3.519,3.519,0,0,1-3.5,3.527H4.844a3.519,3.519,0,0,1-3.5-3.527v-2.851H5.9a2.967,2.967,0,0,0,2.954,2.906h4.1a2.967,2.967,0,0,0,2.954-2.906h4.759v2.851Z" transform="translate(0 -120.257)"/>
  </g>
</svg>
