<svg xmlns="http://www.w3.org/2000/svg" viewBox="0 0 20 24">
  <defs>
    <style>
      .cls-1 {
        fill: #9c9c9c;
      }
    </style>
  </defs>
  <g id="Group_9" data-name="Group 9" transform="translate(0.023 -0.1)">
    <path id="Path_16" data-name="Path 16" class="cls-1" d="M19.952,6.274c-.011-.65-.022-1.255-.022-1.849a.843.843,0,0,0-.833-.84A11.444,11.444,0,0,1,10.555.335a.84.84,0,0,0-1.166,0A11.435,11.435,0,0,1,.857,3.585a.843.843,0,0,0-.833.84c0,.594-.011,1.21-.022,1.849-.111,6.028-.267,14.3,9.7,17.782a.883.883,0,0,0,.555,0C20.219,20.559,20.064,12.3,19.952,6.274ZM9.977,22.363C1.424,19.226,1.557,12.369,1.668,6.3c.011-.359.011-.717.022-1.064A12.8,12.8,0,0,0,9.977,2.061a12.823,12.823,0,0,0,8.287,3.171c0,.347.011.695.022,1.064C18.4,12.369,18.531,19.226,9.977,22.363Z" transform="translate(0 0)"/>
    <path id="Path_17" data-name="Path 17" class="cls-1" d="M58.576,79.169l-4.021,4.056L52.844,81.5a.833.833,0,0,0-1.177,0,.851.851,0,0,0,0,1.188l2.311,2.319a.826.826,0,0,0,1.177,0l4.61-4.65a.84.84,0,0,0-1.189-1.188Z" transform="translate(-45.733 -69.993)"/>
  </g>
</svg>
