<?xml version="1.0" encoding="iso-8859-1"?>
<!-- Generator: Adobe Illustrator 19.0.0, SVG Export Plug-In . SVG Version: 6.00 Build 0)  -->
<svg xmlns="http://www.w3.org/2000/svg" xmlns:xlink="http://www.w3.org/1999/xlink" version="1.1" id="Layer_1" x="0px" y="0px" viewBox="0 0 512 512" style="enable-background:new 0 0 512 512;" xml:space="preserve">
<path style="fill:#F5F5F5;" d="M473.651,88.256H38.292c-20.485,0-37.215,16.06-38.292,36.277v262.933  c1.077,20.215,17.807,36.277,38.292,36.277h435.359c21.18,0,38.349-17.169,38.349-38.349V126.605  C512,105.425,494.831,88.256,473.651,88.256z"/>
<g>
	<path style="fill:#464655;" d="M38.292,88.256c-9.375,0-17.961,3.368-24.623,8.955l242.36,158.788V88.256H38.292z"/>
	<path style="fill:#464655;" d="M498.323,97.255L256.029,255.999H512V126.605C512,114.825,506.683,104.289,498.323,97.255z"/>
	<path style="fill:#464655;" d="M0,387.465c0.584,10.964,5.775,20.701,13.669,27.321l242.36-158.787H0V387.465z"/>
	<path style="fill:#464655;" d="M473.651,423.742c9.399,0,18.003-3.387,24.673-8.999L256.029,255.999v167.743L473.651,423.742   L473.651,423.742z"/>
</g>
<path style="fill:#FF4B55;" d="M277.217,243.639v28.251c0,11.684-9.505,21.189-21.189,21.189c-11.684,0-21.189-9.505-21.189-21.189  v-28.251H277.217 M284.28,229.513h-56.503c-3.901,0-7.063,3.162-7.063,7.063v35.314c0,19.503,15.811,35.314,35.314,35.314  s35.314-15.811,35.314-35.314v-35.314C291.343,232.675,288.181,229.513,284.28,229.513L284.28,229.513z"/>
<path style="fill:#F5F5F5;" d="M277.217,243.639v28.251c0,11.684-9.505,21.189-21.189,21.189c-11.684,0-21.189-9.505-21.189-21.189  v-28.251H277.217"/>
<g>
	<circle style="fill:#FFE15A;" cx="227.72" cy="236.569" r="3.531"/>
	<circle style="fill:#FFE15A;" cx="284.23" cy="236.569" r="3.531"/>
	<circle style="fill:#FFE15A;" cx="227.72" cy="264.819" r="3.531"/>
	<circle style="fill:#FFE15A;" cx="284.23" cy="264.819" r="3.531"/>
	<circle style="fill:#FFE15A;" cx="255.97" cy="236.569" r="3.531"/>
	<circle style="fill:#FFE15A;" cx="255.97" cy="300.429" r="3.531"/>
	<circle style="fill:#FFE15A;" cx="277.17" cy="290.869" r="3.531"/>
	<circle style="fill:#FFE15A;" cx="235.18" cy="290.869" r="3.531"/>
</g>
<g>
	<path style="fill:#41479B;" d="M260.591,263.038v6.082c0,2.515-2.046,4.561-4.561,4.561c-2.515,0-4.561-2.046-4.561-4.561v-6.082   H260.591"/>
	<path style="fill:#41479B;" d="M260.591,248.617v6.082c0,2.515-2.046,4.561-4.561,4.561c-2.515,0-4.561-2.046-4.561-4.561v-6.082   L260.591,248.617"/>
	<path style="fill:#41479B;" d="M260.591,277.605v6.082c0,2.515-2.046,4.561-4.561,4.561c-2.515,0-4.561-2.046-4.561-4.561v-6.082   H260.591"/>
	<path style="fill:#41479B;" d="M272.877,263.038v6.082c0,2.515-2.046,4.561-4.561,4.561s-4.562-2.046-4.562-4.561v-6.082H272.877"/>
	<path style="fill:#41479B;" d="M248.304,263.038v6.082c0,2.515-2.046,4.561-4.561,4.561s-4.561-2.046-4.561-4.561v-6.082H248.304"/>
</g>
<path style="fill:#FFE15A;" d="M290.22,229.513h-68.032c-2.294,0-4.155-1.861-4.155-4.155v-2.597c0-2.294,1.861-4.155,4.155-4.155  h68.032c2.294,0,4.155,1.861,4.155,4.155v2.597C294.375,227.654,292.514,229.513,290.22,229.513z"/>
<polygon style="fill:#FF4B55;" points="256.203,221.335 250.75,224.061 256.203,226.786 261.657,224.061 "/>
<g>
	<ellipse style="fill:#4173CD;" cx="273.93" cy="224.059" rx="4.09" ry="2.727"/>
	<ellipse style="fill:#4173CD;" cx="238.48" cy="224.059" rx="4.09" ry="2.727"/>
</g>
<g>
	<circle style="fill:#F5F5F5;" cx="265.75" cy="224.059" r="1.363"/>
	<circle style="fill:#F5F5F5;" cx="282.11" cy="224.059" r="1.363"/>
	<circle style="fill:#F5F5F5;" cx="246.66" cy="224.059" r="1.363"/>
	<circle style="fill:#F5F5F5;" cx="230.3" cy="224.059" r="1.363"/>
</g>
<g>
	<polygon style="fill:#FF4B55;" points="218.033,222.697 218.033,225.423 220.76,226.786 226.212,224.061 220.76,221.335  "/>
	<polygon style="fill:#FF4B55;" points="294.375,225.423 294.375,222.697 291.648,221.335 286.195,224.061 291.648,226.786  "/>
</g>
<g>
	<path style="fill:#F5F5F5;" d="M238.059,200.872c-0.87-0.428-1.904-0.164-2.774,0.509c0.447-0.661,0.703-1.543,0.654-2.502   c-0.099-1.95-1.399-3.47-2.902-3.392c-1.504,0.076-2.642,1.719-2.544,3.669c0.053,1.036,0.457,1.928,1.038,2.546   c-1.174-0.573-2.459-0.518-3.243,0.268c-1.065,1.064-0.809,3.047,0.573,4.428c1.381,1.382,3.364,1.638,4.429,0.573   c0.297-0.297,0.468-0.673,0.563-1.081c0.217,0.571,0.552,1.065,1.083,1.326c1.351,0.665,3.145-0.215,4.008-1.967   C239.805,203.497,239.41,201.538,238.059,200.872z M234.051,202.839c-0.2,0.406-0.317,0.822-0.386,1.232   c-0.203-0.537-0.489-1.067-0.949-1.528c-0.079-0.079-0.175-0.117-0.259-0.19c0.299,0.124,0.61,0.212,0.939,0.195   c0.441-0.023,0.833-0.211,1.19-0.47C234.396,202.318,234.196,202.546,234.051,202.839z"/>
	<path style="fill:#F5F5F5;" d="M273.115,205.249c0.863,1.751,2.657,2.632,4.008,1.967c0.531-0.262,0.865-0.757,1.083-1.326   c0.096,0.407,0.266,0.784,0.563,1.081c1.065,1.065,3.047,0.809,4.429-0.573c1.381-1.381,1.638-3.364,0.573-4.428   c-0.786-0.786-2.069-0.841-3.243-0.268c0.582-0.618,0.985-1.51,1.038-2.546c0.099-1.95-1.04-3.593-2.544-3.669   c-1.504-0.076-2.803,1.442-2.902,3.392c-0.049,0.96,0.207,1.841,0.654,2.502c-0.871-0.673-1.905-0.937-2.774-0.509   C272.647,201.538,272.252,203.497,273.115,205.249z M277.472,202.077c0.356,0.26,0.748,0.448,1.19,0.47   c0.329,0.017,0.64-0.072,0.939-0.195c-0.083,0.072-0.18,0.11-0.259,0.19c-0.46,0.46-0.746,0.991-0.949,1.528   c-0.068-0.409-0.185-0.827-0.386-1.232C277.863,202.546,277.662,202.318,277.472,202.077z"/>
</g>
<path style="fill:#FFE15A;" d="M305.789,192.863c-3.928-1.398-12.189-2.146-15.334,4.993c-0.607,1.379,0.018,2.987,1.395,3.594  c1.332,0.588,2.863,0.006,3.514-1.281l1.027,1.217c-0.86,2.416-1.205,4.579-1.302,5.323c-1.403,5.815-6.801,6.446-9.07,6.446  c-3.659,0-5.729-3.922-5.749-3.962c-0.373-0.722-1.054-1.246-1.85-1.419c-0.798-0.173-1.63,0.011-2.269,0.511  c-1.494,1.174-6.141,4.346-9.647,4.904c-1.691,0.271-3.07-0.011-4.002-0.809c-0.755-0.644-1.022-1.453-1.022-1.951  c0-1.222,1.503-2.727,2.727-2.727c0.927,0,1.282,0.594,1.282,0.594c0.647,1.368,2.273,1.947,3.633,1.304  c1.362-0.647,1.942-2.271,1.298-3.632c-0.529-1.118-1.986-2.843-4.38-3.467c1.454-2.309,2.791-5.114,3.621-8.431l-8.18-2.727  c0,0,2.727-8.18-5.453-8.18s-5.453,8.18-5.453,8.18l-8.18,2.727c0.83,3.317,2.165,6.124,3.62,8.431  c-2.394,0.625-3.851,2.35-4.38,3.467c-0.644,1.361-0.064,2.985,1.298,3.632c1.36,0.641,2.986,0.064,3.631-1.299  c0,0,0.359-0.599,1.285-0.599c1.224,0,2.727,1.504,2.727,2.727c0,0.498-0.267,1.308-1.022,1.951  c-0.931,0.799-2.311,1.081-4.002,0.809c-3.507-0.56-8.154-3.73-9.647-4.904c-0.639-0.501-1.471-0.684-2.269-0.511  c-0.795,0.173-1.477,0.697-1.85,1.419c-0.02,0.04-2.089,3.962-5.749,3.962c-2.269,0-7.667-0.631-9.07-6.446  c-0.096-0.744-0.441-2.906-1.301-5.323l1.027-1.217c0.651,1.288,2.182,1.869,3.514,1.281c1.378-0.607,2.002-2.215,1.395-3.594  c-3.144-7.138-11.407-6.39-15.334-4.993c-1.125,0.399-1.86,1.483-1.813,2.676c0.045,1.193,0.863,2.215,2.015,2.527  c3.34,0.897,4.839,7.282,5.101,9.447c0.012,0.093,0.03,0.192,0.05,0.285c1.524,6.667,7.05,10.811,14.416,10.811  c4.223,0,7.142-2.391,8.837-4.372c2.388,1.574,6.232,3.768,9.82,4.337c0.689,0.109,1.362,0.166,2.02,0.166  c2.463,0,4.679-0.759,6.38-2.21c1.839-1.568,2.936-3.85,2.936-6.099c0,2.25,1.097,4.531,2.935,6.099  c1.699,1.451,3.917,2.21,6.38,2.21c0.658,0,1.331-0.056,2.02-0.166c3.588-0.569,7.431-2.763,9.82-4.337  c1.695,1.981,4.614,4.372,8.837,4.372c7.367,0,12.892-4.143,14.416-10.811c0.02-0.093,0.038-0.192,0.05-0.285  c0.26-2.165,1.76-8.549,5.1-9.447c1.153-0.311,1.97-1.334,2.015-2.527C307.648,194.346,306.913,193.262,305.789,192.863z"/>
<g>
	
		<ellipse transform="matrix(-0.9237 0.3831 -0.3831 -0.9237 481.9169 308.5448)" style="fill:#4173CD;" cx="210.235" cy="202.259" rx="2.727" ry="4.09"/>
	
		<ellipse transform="matrix(0.9237 0.3831 -0.3831 0.9237 100.5081 -100.1971)" style="fill:#4173CD;" cx="301.818" cy="202.246" rx="2.727" ry="4.09"/>
	<ellipse style="fill:#4173CD;" cx="256.03" cy="199.529" rx="4.09" ry="5.453"/>
</g>
<g>
</g>
<g>
</g>
<g>
</g>
<g>
</g>
<g>
</g>
<g>
</g>
<g>
</g>
<g>
</g>
<g>
</g>
<g>
</g>
<g>
</g>
<g>
</g>
<g>
</g>
<g>
</g>
<g>
</g>
</svg>
