<?xml version="1.0" encoding="iso-8859-1"?>
<!-- Generator: Adobe Illustrator 19.0.0, SVG Export Plug-In . SVG Version: 6.00 Build 0)  -->
<svg xmlns="http://www.w3.org/2000/svg" xmlns:xlink="http://www.w3.org/1999/xlink" version="1.1" id="Layer_1" x="0px" y="0px" viewBox="0 0 511.999 511.999" style="enable-background:new 0 0 511.999 511.999;" xml:space="preserve">
<path style="fill:#41479B;" d="M511.221,118.893c-0.255-1.248-0.572-2.474-0.945-3.674s-0.804-2.376-1.29-3.523  c-0.727-1.72-1.577-3.377-2.538-4.958s-2.033-3.087-3.204-4.508c-1.172-1.42-2.444-2.755-3.807-3.992  c-0.371-0.338-0.754-0.662-1.138-0.985L13.7,414.749c6.665,5.599,15.258,8.975,24.644,8.975h435.31  c21.177,0,38.345-17.167,38.345-38.345V126.621C512,123.974,511.732,121.389,511.221,118.893z"/>
<path style="fill:#F5F5F5;" d="M496.598,95.894c-0.984-0.736-2.005-1.426-3.059-2.067c-5.799-3.523-12.605-5.551-19.884-5.551  H224.779L0,235.544v149.834c0,11.791,5.326,22.335,13.7,29.369L498.3,97.252C497.745,96.785,497.18,96.329,496.598,95.894z"/>
<path style="fill:#FFE15A;" d="M38.345,88.276c-7.279,0-14.086,2.029-19.883,5.551c-1.054,0.64-2.074,1.331-3.059,2.067  s-1.932,1.518-2.84,2.344c-1.362,1.238-2.634,2.572-3.807,3.992c-1.172,1.42-2.244,2.926-3.204,4.508  c-0.961,1.581-1.811,3.238-2.538,4.958c-0.486,1.146-0.916,2.322-1.29,3.523s-0.69,2.426-0.945,3.674  C0.268,121.389,0,123.974,0,126.621v108.925l224.779-147.27H38.345z"/>
<path style="fill:#464655;" d="M202.274,229.137c-4.006-26.737-25.089-47.82-51.826-51.826l-9.207-18.415l-9.207,18.415  c-26.737,4.006-47.819,25.088-51.826,51.826l-18.415,9.207l18.415,9.207c4.006,26.737,25.089,47.82,51.826,51.826l9.207,18.415  l9.207-18.415c26.737-4.006,47.819-25.088,51.826-51.826l18.415-9.207L202.274,229.137z M141.241,291.31  c-29.252,0-52.966-23.713-52.966-52.965s23.713-52.966,52.966-52.966s52.966,23.713,52.966,52.966  C194.207,267.598,170.494,291.31,141.241,291.31z"/>
<polygon style="fill:#FF4B55;" points="141.241,204.398 150.746,221.882 170.638,221.372 160.25,238.344 170.638,255.316   150.746,254.807 141.241,272.289 131.737,254.807 111.844,255.316 122.232,238.344 111.844,221.372 131.737,221.882 "/>
<g>
</g>
<g>
</g>
<g>
</g>
<g>
</g>
<g>
</g>
<g>
</g>
<g>
</g>
<g>
</g>
<g>
</g>
<g>
</g>
<g>
</g>
<g>
</g>
<g>
</g>
<g>
</g>
<g>
</g>
</svg>
