<?xml version="1.0" encoding="iso-8859-1"?>
<!-- Generator: Adobe Illustrator 19.0.0, SVG Export Plug-In . SVG Version: 6.00 Build 0)  -->
<svg xmlns="http://www.w3.org/2000/svg" xmlns:xlink="http://www.w3.org/1999/xlink" version="1.1" id="Layer_1" x="0px" y="0px" viewBox="0 0 512 512" style="enable-background:new 0 0 512 512;" xml:space="preserve">
<path style="fill:#FFE15A;" d="M473.655,88.277H38.345c-20.818,0-37.748,16.593-38.317,37.272h511.946  C511.403,104.868,494.473,88.277,473.655,88.277z"/>
<path style="fill:#FF4B55;" d="M512,126.622c0-0.36-0.018-0.715-0.028-1.073H0.028C0.018,125.907,0,126.262,0,126.622v36.199h512  V126.622z"/>
<rect y="162.821" style="fill:#FFE15A;" width="512" height="37.27"/>
<rect y="200.09" style="fill:#FF4B55;" width="512" height="37.27"/>
<g>
	<rect y="237.361" style="fill:#FFE15A;" width="512" height="37.27"/>
	<path style="fill:#FFE15A;" d="M38.345,423.724h435.31c20.818,0,37.748-16.593,38.317-37.272H0.028   C0.597,407.133,17.527,423.724,38.345,423.724z"/>
</g>
<rect y="274.641" style="fill:#FF4B55;" width="512" height="37.27"/>
<rect y="311.911" style="fill:#FFE15A;" width="512" height="37.27"/>
<path style="fill:#FF4B55;" d="M511.972,386.453c0.01-0.358,0.028-0.713,0.028-1.073V349.18H0v36.199  c0,0.36,0.018,0.715,0.028,1.073H511.972z"/>
<path style="fill:#64466E;" d="M8.828,256h238.345c4.875,0,8.828-3.953,8.828-8.828V97.104c0-4.874-3.95-8.825-8.823-8.828H38.345  C17.167,88.277,0,105.444,0,126.622v120.552C0,252.048,3.953,256,8.828,256z"/>
<path style="fill:#F5F5F5;" d="M235.442,162.614h-20.327v-23.231h2.904v-5.807h-2.904h-23.231h-2.904v5.807h2.904v23.231h-11.615  v-23.231h2.903v-5.807h-2.904h-23.231h-2.904v5.807h2.904v23.231h-17.422v-29.038h2.904v-5.807h-29.038v5.807h2.904v29.038H98.962  v-23.231h2.904v-5.807h-2.904h-23.23h-2.904v5.807h2.904v23.231H64.116v-23.231h2.904v-5.807h-2.904h-23.23h-2.904v5.807h2.904  v23.231H20.559h-2.904v5.807h2.904v52.269h20.327h20.327v-17.423c0-3.208,2.6-5.807,5.807-5.807c3.208,0,5.807,2.601,5.807,5.807  v17.423h2.904h23.231h2.904v-17.423c0-3.208,2.6-5.807,5.807-5.807s5.807,2.601,5.807,5.807v17.423h2.904h2.904v-20.327  c0-4.811,3.901-8.712,8.712-8.712c4.811,0,8.712,3.901,8.712,8.712v20.327h2.904h2.904v-17.423c0-3.208,2.6-5.807,5.807-5.807  s5.807,2.601,5.807,5.807v17.423h2.904h23.231h2.9v-17.423c0-3.208,2.6-5.807,5.807-5.807s5.807,2.601,5.807,5.807v17.423h20.327  h20.327v-52.268h2.904v-5.807h-2.903v-0.001H235.442z M58.308,185.844H46.694v-17.422c0-3.208,2.6-5.807,5.807-5.807  s5.807,2.601,5.807,5.807V185.844z M93.154,185.844H81.539v-17.422c0-3.208,2.6-5.807,5.807-5.807c3.208,0,5.807,2.601,5.807,5.807  L93.154,185.844L93.154,185.844z M133.807,168.421h-11.615v-11.615c0-3.208,2.6-5.807,5.807-5.807c3.208,0,5.807,2.601,5.807,5.807  L133.807,168.421L133.807,168.421z M174.461,185.844h-11.615v-17.422c0-3.208,2.6-5.807,5.807-5.807  c3.208,0,5.807,2.601,5.807,5.807L174.461,185.844L174.461,185.844z M209.306,185.844h-11.615v-17.422  c0-3.208,2.6-5.807,5.807-5.807s5.807,2.601,5.807,5.807L209.306,185.844L209.306,185.844z"/>
<g>
</g>
<g>
</g>
<g>
</g>
<g>
</g>
<g>
</g>
<g>
</g>
<g>
</g>
<g>
</g>
<g>
</g>
<g>
</g>
<g>
</g>
<g>
</g>
<g>
</g>
<g>
</g>
<g>
</g>
</svg>
