<?xml version="1.0" encoding="iso-8859-1"?>
<!-- Generator: Adobe Illustrator 19.0.0, SVG Export Plug-In . SVG Version: 6.00 Build 0)  -->
<svg xmlns="http://www.w3.org/2000/svg" xmlns:xlink="http://www.w3.org/1999/xlink" version="1.1" id="Layer_1" x="0px" y="0px" viewBox="0 0 512 512" style="enable-background:new 0 0 512 512;" xml:space="preserve">
<path style="fill:#41479B;" d="M38.292,88.256c-20.485,0-37.215,16.061-38.292,36.277v262.933  c1.077,20.215,17.807,36.277,38.292,36.277h164.766v-1.104V88.256H38.292z"/>
<path style="fill:#F5F5F5;" d="M473.651,88.256H203.057v334.382h279.727C499.553,418.54,512,403.424,512,385.393V126.605  C512,105.425,494.831,88.256,473.651,88.256z"/>
<g>
	<path style="fill:#FFE15A;" d="M262.615,254.072c-3.717,0-7.322,1.265-10.225,3.587l-17.604,14.084   c-2.902,2.322-6.508,3.587-10.225,3.587h-4.887v-2.811c0-4.317,3.499-7.818,7.818-7.818h8.126v-3.789c0-3.778-3.062-6.84-6.84-6.84   h-3.789l0,0c0-2.934-2.379-5.314-5.314-5.314l0,0c-14.674,0-26.571,11.896-26.571,26.571h-10.201   c-3.716,0-7.322-1.265-10.223-3.587l-17.605-14.084c-2.902-2.322-6.508-3.587-10.223-3.587H67.328c-2.612,0-3.92,3.157-2.073,5.005   l26.832,26.832c3.433,3.433,8.09,5.362,12.945,5.362h18.988l15.588,11.691c3.679,2.76,8.154,4.251,12.754,4.251h19.486   c3.345,0,6.496-1.575,8.502-4.251l2.125-2.834v12.4l-13.114,26.229c-1.3,2.599,0.59,5.657,3.496,5.657h42.908   c2.159,0,3.909-1.75,3.909-3.909v-47.462l7.44,9.92c2.007,2.676,5.157,4.251,8.503,4.251h19.486c4.6,0,9.075-1.492,12.754-4.251   l15.588-11.691h18.988c4.856,0,9.512-1.929,12.945-5.362l26.832-26.832c1.846-1.846,0.539-5.005-2.073-5.005L262.615,254.072   L262.615,254.072z"/>
	<path style="fill:#FFE15A;" d="M204.759,167.967l2.54,7.618l8.031,0.062c1.04,0.008,1.471,1.335,0.635,1.952l-6.46,4.771   l2.422,7.657c0.313,0.991-0.816,1.811-1.661,1.206l-6.533-4.669l-6.533,4.669c-0.845,0.605-1.974-0.215-1.661-1.206l2.422-7.657   l-6.46-4.771c-0.837-0.618-0.405-1.944,0.635-1.952l8.031-0.062l2.54-7.618C203.035,166.98,204.43,166.98,204.759,167.967z"/>
	<path style="fill:#FFE15A;" d="M86.799,215.977l7.183,3.59l5.722-5.635c0.74-0.729,1.984-0.096,1.83,0.933l-1.195,7.941   l7.127,3.701c0.923,0.479,0.704,1.857-0.321,2.027l-7.921,1.318l-1.318,7.921c-0.171,1.025-1.548,1.244-2.027,0.321l-3.701-7.127   l-7.941,1.195c-1.029,0.155-1.662-1.088-0.933-1.83l5.635-5.722l-3.59-7.183C84.882,216.499,85.869,215.512,86.799,215.977z"/>
	<path style="fill:#FFE15A;" d="M322.117,217.429l-3.59,7.183l5.634,5.722c0.729,0.741,0.096,1.984-0.933,1.83l-7.941-1.195   l-3.701,7.127c-0.479,0.923-1.857,0.704-2.027-0.321l-1.318-7.921l-7.921-1.318c-1.025-0.171-1.244-1.548-0.321-2.027l7.127-3.701   l-1.195-7.941c-0.155-1.029,1.088-1.662,1.83-0.933l5.722,5.635l7.183-3.59C321.595,215.512,322.582,216.499,322.117,217.429z"/>
	<path style="fill:#FFE15A;" d="M141.003,180.24l5.263,6.066l7.443-3.016c0.963-0.391,1.869,0.67,1.333,1.562l-4.143,6.88   l5.168,6.147c0.669,0.796-0.06,1.985-1.073,1.75l-7.823-1.814l-4.249,6.815c-0.55,0.882-1.907,0.556-1.996-0.479l-0.692-8.001   l-7.793-1.936c-1.009-0.251-1.119-1.641-0.161-2.047l7.395-3.131l-0.568-8.011C139.034,179.988,140.322,179.455,141.003,180.24z"/>
	<path style="fill:#FFE15A;" d="M268.358,181.026l-0.568,8.011l7.395,3.131c0.958,0.405,0.848,1.797-0.161,2.047l-7.793,1.936   l-0.692,8.001c-0.089,1.036-1.446,1.362-1.996,0.479l-4.249-6.815l-7.823,1.814c-1.013,0.235-1.741-0.955-1.073-1.75l5.168-6.147   l-4.143-6.88c-0.536-0.891,0.37-1.951,1.333-1.562l7.442,3.016l5.263-6.066C267.142,179.455,268.431,179.988,268.358,181.026z"/>
	<path style="fill:#FFE15A;" d="M172.276,170.964l3.978,6.976l7.888-1.505c1.021-0.195,1.703,1.022,1.003,1.791l-5.405,5.939   l3.869,7.036c0.501,0.912-0.446,1.936-1.394,1.507l-7.319-3.305l-5.497,5.854c-0.712,0.758-1.979,0.174-1.864-0.86l0.882-7.982   l-7.267-3.419c-0.941-0.443-0.777-1.828,0.242-2.038l7.864-1.628l1.005-7.968C170.394,170.333,171.762,170.061,172.276,170.964z"/>
	<path style="fill:#FFE15A;" d="M297.03,196.579l-2.12,7.746l6.642,4.514c0.86,0.584,0.481,1.927-0.557,1.975l-8.022,0.377   l-2.24,7.712c-0.29,0.999-1.684,1.053-2.052,0.081l-2.838-7.512l-8.026,0.253c-1.04,0.033-1.522-1.276-0.711-1.926l6.268-5.02   l-2.721-7.555c-0.352-0.978,0.744-1.842,1.612-1.271l6.712,4.41l6.344-4.923C296.145,194.802,297.305,195.577,297.03,196.579z"/>
	<path style="fill:#FFE15A;" d="M112.142,195.439l6.344,4.923l6.712-4.41c0.869-0.571,1.964,0.292,1.612,1.271l-2.721,7.555   l6.268,5.02c0.811,0.65,0.329,1.959-0.711,1.926l-8.026-0.253l-2.838,7.512c-0.367,0.972-1.761,0.918-2.052-0.081l-2.239-7.712   l-8.022-0.377c-1.038-0.049-1.417-1.392-0.557-1.975l6.642-4.514l-2.12-7.746C110.16,195.577,111.32,194.802,112.142,195.439z"/>
	<path style="fill:#FFE15A;" d="M237.201,171.365l1.005,7.968l7.864,1.628c1.019,0.211,1.182,1.596,0.242,2.038l-7.267,3.419   l0.882,7.982c0.114,1.033-1.153,1.618-1.864,0.86l-5.497-5.854l-7.319,3.305c-0.948,0.428-1.895-0.597-1.394-1.507l3.869-7.036   l-5.405-5.939c-0.7-0.769-0.018-1.986,1.003-1.791l7.888,1.505l3.978-6.976C235.703,170.061,237.07,170.333,237.201,171.365z"/>
</g>
<path style="fill:#FF4B55;" d="M72.189,126.167v22.852c0,9.45-7.689,17.138-17.138,17.138s-17.138-7.689-17.138-17.138v-22.852  L72.189,126.167 M77.901,114.742H32.199c-3.155,0-5.713,2.558-5.713,5.713v28.565c0,15.776,12.789,28.565,28.565,28.565  s28.565-12.789,28.565-28.565v-28.565C83.614,117.3,81.056,114.742,77.901,114.742L77.901,114.742z"/>
<path style="fill:#F5F5F5;" d="M72.189,126.167v22.852c0,9.45-7.689,17.138-17.138,17.138s-17.138-7.689-17.138-17.138v-22.852  L72.189,126.167"/>
<g>
	<circle style="fill:#FFE15A;" cx="32.16" cy="120.449" r="2.856"/>
	<circle style="fill:#FFE15A;" cx="77.857" cy="120.449" r="2.856"/>
	<circle style="fill:#FFE15A;" cx="32.16" cy="143.309" r="2.856"/>
	<circle style="fill:#FFE15A;" cx="77.857" cy="143.309" r="2.856"/>
	<circle style="fill:#FFE15A;" cx="55.01" cy="120.449" r="2.856"/>
	<circle style="fill:#FFE15A;" cx="72.15" cy="164.379" r="2.856"/>
	<circle style="fill:#FFE15A;" cx="38.19" cy="164.379" r="2.856"/>
</g>
<g>
	<path style="fill:#41479B;" d="M58.74,141.858v4.92c0,2.034-1.655,3.689-3.689,3.689s-3.689-1.655-3.689-3.689v-4.92H58.74"/>
	<path style="fill:#41479B;" d="M58.74,130.194v4.92c0,2.034-1.655,3.689-3.689,3.689s-3.689-1.655-3.689-3.689v-4.92H58.74"/>
	<path style="fill:#41479B;" d="M58.74,153.641v4.92c0,2.034-1.655,3.689-3.689,3.689s-3.689-1.655-3.689-3.689v-4.92H58.74"/>
	<path style="fill:#41479B;" d="M68.677,141.858v4.92c0,2.034-1.655,3.689-3.689,3.689c-2.034,0-3.689-1.655-3.689-3.689v-4.92   H68.677"/>
	<path style="fill:#41479B;" d="M48.802,141.858v4.92c0,2.034-1.655,3.689-3.689,3.689s-3.689-1.655-3.689-3.689v-4.92H48.802"/>
</g>
<g>
</g>
<g>
</g>
<g>
</g>
<g>
</g>
<g>
</g>
<g>
</g>
<g>
</g>
<g>
</g>
<g>
</g>
<g>
</g>
<g>
</g>
<g>
</g>
<g>
</g>
<g>
</g>
<g>
</g>
</svg>
