<?xml version="1.0" encoding="iso-8859-1"?>
<!-- Generator: Adobe Illustrator 19.0.0, SVG Export Plug-In . SVG Version: 6.00 Build 0)  -->
<svg xmlns="http://www.w3.org/2000/svg" xmlns:xlink="http://www.w3.org/1999/xlink" version="1.1" id="Layer_1" x="0px" y="0px" viewBox="0 0 512 512" style="enable-background:new 0 0 512 512;" xml:space="preserve">
<path style="fill:#41479B;" d="M473.664,423.744H38.336C17.152,423.744,0,406.592,0,385.408V126.592  c0-21.184,17.152-38.336,38.336-38.336h435.328c21.184,0,38.336,17.152,38.336,38.336v258.752  C512,406.528,494.848,423.744,473.664,423.744z"/>
<polygon style="fill:#F5F5F5;" points="256,178.432 109.44,256 256,333.568 402.56,256 "/>
<polygon style="fill:#73AF00;" points="207.296,305.856 302.848,305.856 369.344,270.656 339.456,240.704 329.024,240.704   321.28,248.448 315.776,242.944 304.768,242.944 262.592,285.12 209.6,285.12 197.568,267.328 182.272,267.328 176.256,275.712   169.472,275.712 165.44,283.712 "/>
<path style="fill:#FFE15A;" d="M257.152,213.696l3.52,10.496l11.072,0.064c1.408,0,2.048,1.856,0.896,2.688l-8.896,6.656  l3.328,10.56c0.448,1.344-1.152,2.496-2.304,1.664l-9.024-6.464l-9.024,6.464c-1.152,0.832-2.752-0.32-2.304-1.664l3.328-10.56  l-8.896-6.592c-1.152-0.832-0.576-2.688,0.896-2.688l11.072-0.064l3.52-10.496C254.784,212.352,256.704,212.352,257.152,213.696z"/>
<path style="fill:#FF4B55;" d="M473.664,88.256H38.336C17.152,88.256,0,105.408,0,126.592v258.752  c0,21.184,17.152,38.336,38.336,38.336h435.328c21.184,0,38.336-17.152,38.336-38.336V126.592  C512,105.472,494.848,88.256,473.664,88.256z M17.664,105.92h229.504v65.28l-143.424,75.968h-86.08  C17.664,247.168,17.664,105.92,17.664,105.92z M247.168,406.08H17.664V264.832h86.08l143.424,75.904V406.08z M124.8,256L256,186.56  L387.2,256L256,325.44L124.8,256z M494.336,406.08H264.832V340.8l143.424-75.904h86.08V406.08z M494.336,247.168h-86.08  l-143.424-75.904v-65.28h229.504L494.336,247.168L494.336,247.168z"/>
<g>
</g>
<g>
</g>
<g>
</g>
<g>
</g>
<g>
</g>
<g>
</g>
<g>
</g>
<g>
</g>
<g>
</g>
<g>
</g>
<g>
</g>
<g>
</g>
<g>
</g>
<g>
</g>
<g>
</g>
</svg>
