<?xml version="1.0" encoding="iso-8859-1"?>
<!-- Generator: Adobe Illustrator 19.0.0, SVG Export Plug-In . SVG Version: 6.00 Build 0)  -->
<svg xmlns="http://www.w3.org/2000/svg" xmlns:xlink="http://www.w3.org/1999/xlink" version="1.1" id="Layer_1" x="0px" y="0px" viewBox="0 0 512 512" style="enable-background:new 0 0 512 512;" xml:space="preserve">
<path style="fill:#F5F5F5;" d="M473.7,88.3H38.3C17.2,88.3,0,105.4,0,126.6v3.6v255.2c0,21.2,17.2,38.3,38.3,38.3h435.3  c21.2,0,38.3-17.2,38.3-38.3V126.6C512,105.4,494.8,88.3,473.7,88.3z"/>
<path style="fill:#FF4B55;" d="M0,130.2h512v41.9H0V130.2z M11,247.2H0v8.8v41.9h512V256H23.8L11,247.2z M0,385.4  c0,21.2,17.2,38.3,38.3,38.3h435.3c21.2,0,38.3-17.2,38.3-38.3v-3.6H0V385.4z"/>
<g>
	<path style="fill:#41479B;" d="M0,172.1h512V214H0V172.1z M0,297.9h512v41.9H0V297.9z"/>
	<path style="fill:#41479B;" d="M8.8,256h238.3c4.9,0,8.8-4,8.8-8.8V97.1c0-4.9-4-8.8-8.8-8.8H38.3C17.2,88.3,0,105.4,0,126.6v120.6   C0,252,4,256,8.8,256z"/>
</g>
<path style="fill:#F5F5F5;" d="M8.8,256h15.3l81.8-53.6V256H150v-53.6l81.8,53.6h15.3c4.9,0,8.9-3.8,8.9-8.6l-0.1-7.2l-70.2-46H256  v-44.1h-70.2l70.2-46l0.1-6.9c0-5.2-4-8.9-8.9-8.9h-15.3l-81.8,53.6V88.3H106v53.6L26.8,90c-9.2,2.9-17,9.2-21.7,17.4l65,42.6H0  v44.1h70.2L0,240.2v7C0,252,4,256,8.8,256z"/>
<g>
	<polygon style="fill:#FF4B55;" points="256,158.9 141.2,158.9 141.2,88.3 114.8,88.3 114.8,158.9 0,158.9 0,185.4 114.8,185.4    114.8,256 141.2,256 141.2,185.4 256,185.4  "/>
	<path style="fill:#FF4B55;" d="M8.2,102.9l72.7,47.2h16.2L14.6,96.5C12.2,98.4,10.1,100.5,8.2,102.9z"/>
	<path style="fill:#FF4B55;" d="M166.3,150.1l88.5-57.5c-1.5-2.6-4.3-4.3-7.6-4.3h-1.9l-95.2,61.8H166.3z"/>
	<path style="fill:#FF4B55;" d="M89.5,194.2L1.1,251.6c1.5,2.7,4.4,4.5,7.7,4.5l1.7-0.1l95.2-61.8H89.5z"/>
	<path style="fill:#FF4B55;" d="M255.9,247.9l-82.7-53.7H157l93.9,60.9C253.7,253.8,255.6,251.1,255.9,247.9z"/>
</g>
<g>
</g>
<g>
</g>
<g>
</g>
<g>
</g>
<g>
</g>
<g>
</g>
<g>
</g>
<g>
</g>
<g>
</g>
<g>
</g>
<g>
</g>
<g>
</g>
<g>
</g>
<g>
</g>
<g>
</g>
</svg>
